<?xml version="1.0" encoding="UTF-8"?>
<svg width="48px" height="48px" viewBox="0 0 48 48" version="1.1" xmlns="http://www.w3.org/2000/svg" xmlns:xlink="http://www.w3.org/1999/xlink">
    <title>arrow-uturn-left-dark-thick</title>
    <g id="arrow-uturn-left-dark-thick" stroke="none" stroke-width="1" fill="none" fill-rule="evenodd">
        <rect id="frame" stroke-opacity="0.01" stroke="#979797" stroke-width="0.1" x="0.05" y="0.05" width="47.9" height="47.9"></rect>
        <g id="thick" transform="translate(10.6214, 11.6885)" fill="#FFFFFF" fill-rule="nonzero">
            <path d="M17.1286337,7.06148284 C21.6849828,7.06148284 25.3786337,10.7551337 25.3786337,15.3114828 C25.3786337,19.867832 21.6849828,23.5614828 17.1286337,23.5614828 L14.8786337,23.5614828 C14.0502065,23.5614828 13.3786337,22.88991 13.3786337,22.0614828 C13.3786337,21.2330557 14.0502065,20.5614828 14.8786337,20.5614828 L17.1286337,20.5614828 C20.0281286,20.5614828 22.3786337,18.2109778 22.3786337,15.3114828 C22.3786337,12.4119879 20.0281286,10.0614828 17.1286337,10.0614828 L8.87863366,10.0614828 C8.05020654,10.0614828 7.37863366,9.38990997 7.37863366,8.56148284 C7.37863366,7.73305572 8.05020654,7.06148284 8.87863366,7.06148284 L17.1286337,7.06148284 Z M6.87172077,0.439339828 C7.4575072,-0.146446609 8.40725467,-0.146446609 8.99304111,0.439339828 C9.57882755,1.02512627 9.57882755,1.97487373 8.99304111,2.56066017 L2.99627435,8.55742693 L9.092478,14.6259486 C9.67693268,15.2104033 9.67693268,16.1579915 9.092478,16.7424462 C8.50639074,17.3285335 7.5564129,17.3293669 6.9692981,16.744309 L0.878679656,10.6750216 C-0.292893219,9.50344875 -0.292893219,7.60395381 0.878679656,6.43238094 L6.87172077,0.439339828 Z" id="Shape"></path>
        </g>
    </g>
</svg>