<?xml version="1.0" encoding="UTF-8"?>
<svg width="48px" height="48px" viewBox="0 0 48 48" version="1.1" xmlns="http://www.w3.org/2000/svg" xmlns:xlink="http://www.w3.org/1999/xlink">
    <title>arrow-right-fork-dark-thick</title>
    <g id="arrow-right-fork-dark-thick" stroke="none" stroke-width="1" fill="none" fill-rule="evenodd">
        <rect id="frame" stroke-opacity="0.01" stroke="#979797" stroke-width="0.1" x="0.05" y="0.05" width="47.9" height="47.9"></rect>
        <g id="thick" transform="translate(9, 10.6752)" fill="#FFFFFF" fill-rule="nonzero">
            <path d="M22.8003113,0.660667588 C22.8730421,0.821057561 22.9071023,0.996282422 22.8997506,1.17223885 L22.5822032,8.77247614 C22.5562663,9.39325489 22.0319997,9.87546947 21.4112209,9.84953255 C21.2032102,9.8408416 21.0016911,9.77460011 20.8290919,9.65818048 L18.6239135,8.17092445 C16.7842364,10.3993406 14.460098,12.1399198 11.8600947,13.2810247 L11.7590625,13.3247656 L11.8600947,13.3685065 C14.4601062,14.509615 16.7842511,16.2502016 18.6239309,18.4786278 L20.8290919,16.9913507 C21.3441898,16.6439128 22.0434132,16.779828 22.3908512,17.2949259 C22.5072708,17.4675251 22.5735123,17.6690443 22.5822032,17.877055 L22.8997506,25.4772923 C22.9256876,26.0980711 22.443473,26.6223377 21.8226942,26.6482746 C21.6467378,26.6556263 21.4715129,26.621566 21.311123,26.5488352 L14.383261,23.4073114 C13.8174011,23.1507153 13.5666933,22.483983 13.8232894,21.9181231 C13.9092697,21.7285145 14.0461781,21.5664838 14.2187773,21.4500641 L16.1228988,20.1657734 C13.2336896,16.7987736 8.99751035,14.8247656 4.5,14.8247656 L1.5,14.8247656 C-0.48,14.8247656 -0.4998,11.8844656 1.4406,11.8256596 L1.5,11.8247656 L4.5,11.8247656 C8.99751035,11.8247656 13.2336896,9.85075758 16.1228988,6.48375782 L14.2187773,5.19946702 C13.7036794,4.8520291 13.5677641,4.15280565 13.9152021,3.63770774 C14.0316217,3.46510854 14.1936525,3.32820011 14.383261,3.24221979 L21.311123,0.100695956 C21.8769829,-0.15590014 22.5437152,0.0948076999 22.8003113,0.660667588 Z" id="Path"></path>
        </g>
    </g>
</svg>