<?xml version="1.0" encoding="UTF-8"?>
<svg width="48px" height="48px" viewBox="0 0 48 48" version="1.1" xmlns="http://www.w3.org/2000/svg" xmlns:xlink="http://www.w3.org/1999/xlink">
    <title>arrow-right-dark-fill</title>
    <g id="arrow-right-dark-fill" stroke="none" stroke-width="1" fill="none" fill-rule="evenodd">
        <rect id="frame" stroke-opacity="0.01" stroke="#979797" stroke-width="0.1" x="0.05" y="0.05" width="47.9" height="47.9"></rect>
        <g id="fill" transform="translate(7.5, 7.5)" fill="#FFFFFF">
            <path d="M16.5,0 C25.6126984,0 33,7.38730163 33,16.5 C33,25.6126984 25.6126984,33 16.5,33 C7.38730163,33 0,25.6126984 0,16.5 C0,7.38730163 7.38730163,0 16.5,0 Z M18.9975675,6.69035699 C18.411781,6.10457055 17.4620336,6.10457055 16.8762471,6.69035699 C16.2904607,7.27614342 16.2904607,8.22589089 16.8762471,8.81167733 L24.7480139,16.6834441 L16.7768102,24.6259637 C16.1920788,25.2106951 16.1920788,26.158732 16.7768102,26.7434634 C17.3628469,27.3295 18.3127861,27.3301931 18.8996773,26.7450123 L26.8662363,18.8016665 C28.0378092,17.6300936 28.0378092,15.7305987 26.8662363,14.5590258 L18.9975675,6.69035699 Z M18,15 L6,15 C5.17157288,15 4.5,15.6715729 4.5,16.5 C4.5,17.3284271 5.17157288,18 6,18 L18,18 C18.8284271,18 19.5,17.3284271 19.5,16.5 C19.5,15.6715729 18.8284271,15 18,15 Z" id="Shape"></path>
        </g>
    </g>
</svg>