<?xml version="1.0" encoding="UTF-8"?>
<svg width="48px" height="48px" viewBox="0 0 48 48" version="1.1" xmlns="http://www.w3.org/2000/svg" xmlns:xlink="http://www.w3.org/1999/xlink">
    <title>arrow-left-dark-fill</title>
    <g id="arrow-left-dark-fill" stroke="none" stroke-width="1" fill="none" fill-rule="evenodd">
        <rect id="frame" stroke-opacity="0.01" stroke="#979797" stroke-width="0.1" x="0.05" y="0.05" width="47.9" height="47.9"></rect>
        <g id="fill" transform="translate(7.5, 7.5)" fill="#FFFFFF">
            <path d="M16.5,0 C25.6126984,0 33,7.38730163 33,16.5 C33,25.6126984 25.6126984,33 16.5,33 C7.38730163,33 0,25.6126984 0,16.5 C0,7.38730163 7.38730163,0 16.5,0 Z M16.1237529,6.69035699 C15.5379664,6.10457055 14.588219,6.10457055 14.0024325,6.69035699 L6.13376371,14.5590258 C4.96219083,15.7305987 4.96219083,17.6300936 6.13376371,18.8016665 L14.1003227,26.7450123 C14.6872139,27.3301931 15.6371531,27.3295 16.2231898,26.7434634 C16.8079212,26.158732 16.8079212,25.2106951 16.2231898,24.6259637 L8.2519861,16.6834441 L16.1237529,8.81167733 C16.7095393,8.22589089 16.7095393,7.27614342 16.1237529,6.69035699 Z M27,15 L15,15 C14.1715729,15 13.5,15.6715729 13.5,16.5 C13.5,17.3284271 14.1715729,18 15,18 L27,18 C27.8284271,18 28.5,17.3284271 28.5,16.5 C28.5,15.6715729 27.8284271,15 27,15 Z" id="Shape"></path>
        </g>
    </g>
</svg>