<?xml version="1.0" encoding="UTF-8"?>
<svg width="48px" height="48px" viewBox="0 0 48 48" version="1.1" xmlns="http://www.w3.org/2000/svg" xmlns:xlink="http://www.w3.org/1999/xlink">
    <title>arrow-right-light-thick</title>
    <g id="arrow-right-light-thick" stroke="none" stroke-width="1" fill="none" fill-rule="evenodd">
        <rect id="frame" stroke-opacity="0.01" stroke="#979797" stroke-width="0.1" x="0.05" y="0.05" width="47.9" height="47.9"></rect>
        <g id="thick" transform="translate(12, 13.751)" fill="#000000" fill-rule="nonzero">
            <path d="M14.4975675,0.439339828 L22.3662363,8.30800864 C23.5215373,9.46330967 23.5375832,11.3264531 22.4143738,12.5014164 L22.3631383,12.5537428 L14.3996773,20.4939952 C13.8127861,21.079176 12.8628469,21.0784829 12.2768102,20.4924462 C11.7045199,19.9201559 11.6923436,18.9998554 12.2402811,18.4127562 L12.2787206,18.3730396 L20.2480139,10.4324269 L12.3762471,2.56066017 C11.7904607,1.97487373 11.7904607,1.02512627 12.3762471,0.439339828 C12.9620336,-0.146446609 13.911781,-0.146446609 14.4975675,0.439339828 Z M13.5,8.74898284 C14.3284271,8.74898284 15,9.42055572 15,10.2489828 C15,11.07741 14.3284271,11.7489828 13.5,11.7489828 L1.5,11.7489828 C0.671572875,11.7489828 0,11.07741 0,10.2489828 C0,9.42055572 0.671572875,8.74898284 1.5,8.74898284 L13.5,8.74898284 Z" id="Shape"></path>
        </g>
    </g>
</svg>