<?xml version="1.0" encoding="UTF-8"?>
<svg width="48px" height="48px" viewBox="0 0 48 48" version="1.1" xmlns="http://www.w3.org/2000/svg" xmlns:xlink="http://www.w3.org/1999/xlink">
    <title>arrow-right-light</title>
    <g id="arrow-right-light" stroke="none" stroke-width="1" fill="none" fill-rule="evenodd">
        <rect id="frame" stroke-opacity="0.01" stroke="#979797" stroke-width="0.1" x="0.05" y="0.05" width="47.9" height="47.9"></rect>
        <g id="outline" transform="translate(12, 13.2647)" fill="#000000" fill-rule="nonzero">
            <path d="M15.4659903,0.659009742 L23.4209415,8.61396103 C24.5925144,9.78553391 24.5925144,11.6850288 23.4209415,12.8566017 L15.4659903,20.811553 C14.5873106,21.6902327 13.1626894,21.6902327 12.2840097,20.811553 C11.4053301,19.9328733 11.4053301,18.5082521 12.2840097,17.6295725 L19.1783009,10.7352814 L12.2840097,3.84099026 C11.4053301,2.9623106 11.4053301,1.5376894 12.2840097,0.659009742 C13.1626894,-0.219669914 14.5873106,-0.219669914 15.4659903,0.659009742 Z M13.3446699,1.71966991 C13.0517767,2.01256313 13.0517767,2.48743687 13.3446699,2.78033009 L21.2996212,10.7352814 L13.3446699,18.6902327 C13.0517767,18.9831259 13.0517767,19.4579996 13.3446699,19.7508928 C13.6375631,20.0437861 14.1124369,20.0437861 14.4053301,19.7508928 L22.3602814,11.7959415 C22.9460678,11.2101551 22.9460678,10.2604076 22.3602814,9.6746212 L14.4053301,1.71966991 C14.1124369,1.4267767 13.6375631,1.4267767 13.3446699,1.71966991 Z M12.75,8.48528137 C13.9926407,8.48528137 15,9.49264069 15,10.7352814 C15,11.9779221 13.9926407,12.9852814 12.75,12.9852814 L2.25,12.9852814 C1.00735931,12.9852814 0,11.9779221 0,10.7352814 C0,9.49264069 1.00735931,8.48528137 2.25,8.48528137 L12.75,8.48528137 Z M12.75,9.98528137 L2.25,9.98528137 C1.83578644,9.98528137 1.5,10.3210678 1.5,10.7352814 C1.5,11.1494949 1.83578644,11.4852814 2.25,11.4852814 L12.75,11.4852814 C13.1642136,11.4852814 13.5,11.1494949 13.5,10.7352814 C13.5,10.3210678 13.1642136,9.98528137 12.75,9.98528137 Z" id="Shape"></path>
        </g>
    </g>
</svg>