<?xml version="1.0" encoding="UTF-8"?>
<svg width="48px" height="48px" viewBox="0 0 48 48" version="1.1" xmlns="http://www.w3.org/2000/svg" xmlns:xlink="http://www.w3.org/1999/xlink">
    <title>arrow-right-fork-dark-fill</title>
    <g id="arrow-right-fork-dark-fill" stroke="none" stroke-width="1" fill="none" fill-rule="evenodd">
        <rect id="frame" stroke-opacity="0.01" stroke="#979797" stroke-width="0.1" x="0.05" y="0.05" width="47.9" height="47.9"></rect>
        <g id="fill" transform="translate(7.5, 7.5)" fill="#FFFFFF">
            <path d="M16.5,0 C25.6126984,0 33,7.38730163 33,16.5 C33,25.6126984 25.6126984,33 16.5,33 C7.38730163,33 0,25.6126984 0,16.5 C0,7.38730163 7.38730163,0 16.5,0 Z M24.3003113,3.835902 C24.0437152,3.27004211 23.3769829,3.01933427 22.811123,3.27593037 L15.883261,6.41745421 C15.6936525,6.50343452 15.5316217,6.64034296 15.4152021,6.81294215 C15.0677641,7.32804006 15.2036794,8.02726351 15.7187773,8.37470144 L17.6228988,9.65899223 C14.7336896,13.025992 10.4975103,15 6,15 L3,15 L2.9406,15.000894 C1.0002,15.0597 1.02,18 3,18 L6,18 C10.4975103,18 14.7336896,19.974008 17.6228988,23.3410078 L15.7187773,24.6252986 C15.5461781,24.7417182 15.4092697,24.903749 15.3232894,25.0933575 C15.0666933,25.6592174 15.3174011,26.3259497 15.883261,26.5825458 L22.811123,29.7240696 C22.9715129,29.7968004 23.1467378,29.8308607 23.3226942,29.823509 C23.943473,29.7975721 24.4256876,29.2733055 24.3997506,28.6525267 L24.0822032,21.0522894 C24.0735123,20.8442787 24.0072708,20.6427596 23.8908512,20.4701604 C23.5434132,19.9550624 22.8441898,19.8191472 22.3290919,20.1665851 L20.1239309,21.6538622 C18.2842511,19.425436 15.9601062,17.6848494 13.3600947,16.5437409 L13.2590625,16.5 L13.3600947,16.4562591 C15.960098,15.3151542 18.2842364,13.574575 20.1239135,11.3461589 L22.3290919,12.8334149 C22.5016911,12.9498345 22.7032102,13.016076 22.9112209,13.024767 C23.5319997,13.0507039 24.0562663,12.5684893 24.0822032,11.9477106 L24.3997506,4.34747327 C24.4071023,4.17151684 24.3730421,3.99629198 24.3003113,3.835902 Z" id="Shape"></path>
        </g>
    </g>
</svg>