<?xml version="1.0" encoding="UTF-8"?>
<svg width="48px" height="48px" viewBox="0 0 48 48" version="1.1" xmlns="http://www.w3.org/2000/svg" xmlns:xlink="http://www.w3.org/1999/xlink">
    <title>arrow-left-dark-thick</title>
    <g id="arrow-left-dark-thick" stroke="none" stroke-width="1" fill="none" fill-rule="evenodd">
        <rect id="frame" stroke-opacity="0.01" stroke="#979797" stroke-width="0.1" x="0.05" y="0.05" width="47.9" height="47.9"></rect>
        <g id="thick" transform="translate(13.2457, 13.751)" fill="#FFFFFF" fill-rule="nonzero">
            <path d="M8.74734847,0.439339828 C9.33313491,-0.146446609 10.2828824,-0.146446609 10.8686688,0.439339828 C11.4544553,1.02512627 11.4544553,1.97487373 10.8686688,2.56066017 L2.99690205,10.4324269 L10.9681057,18.3749465 C11.5528371,18.9596779 11.5528371,19.9077148 10.9681057,20.4924462 C10.3820691,21.0784829 9.43212989,21.079176 8.84523865,20.4939952 L0.878679656,12.5506493 C-0.292893219,11.3790765 -0.292893219,9.47958152 0.878679656,8.30800864 L8.74734847,0.439339828 Z M21.7449159,8.74898284 C22.5733431,8.74898284 23.2449159,9.42055572 23.2449159,10.2489828 C23.2449159,11.07741 22.5733431,11.7489828 21.7449159,11.7489828 L9.74491595,11.7489828 C8.91648882,11.7489828 8.24491595,11.07741 8.24491595,10.2489828 C8.24491595,9.42055572 8.91648882,8.74898284 9.74491595,8.74898284 L21.7449159,8.74898284 Z" id="Shape"></path>
        </g>
    </g>
</svg>