<?xml version="1.0" encoding="UTF-8"?>
<svg width="48px" height="48px" viewBox="0 0 48 48" version="1.1" xmlns="http://www.w3.org/2000/svg" xmlns:xlink="http://www.w3.org/1999/xlink">
    <title>arrow-uturn-left-dark-fill</title>
    <g id="arrow-uturn-left-dark-fill" stroke="none" stroke-width="1" fill="none" fill-rule="evenodd">
        <rect id="frame" stroke-opacity="0.01" stroke="#979797" stroke-width="0.1" x="0.05" y="0.05" width="47.9" height="47.9"></rect>
        <g id="fill" transform="translate(7.5, 7.5)" fill="#FFFFFF">
            <path d="M16.5,0 C25.6126984,0 33,7.38730163 33,16.5 C33,25.6126984 25.6126984,33 16.5,33 C7.38730163,33 0,25.6126984 0,16.5 C0,7.38730163 7.38730163,0 16.5,0 Z M12.8644074,5.37785699 C12.278621,4.79207055 11.3288735,4.79207055 10.7430871,5.37785699 L5.50037458,10.6205695 C4.3288017,11.7921424 4.3288017,13.6916373 5.50037458,14.8632102 L10.8405007,20.1829905 C11.4277325,20.767984 12.3777306,20.7670771 12.9638443,20.1809634 C13.5481429,19.5966648 13.5481429,18.6493296 12.9638443,18.065031 L9.12938242,14.2499547 L20.25,14.25 C23.1494949,14.25 25.5,16.6005051 25.5,19.5 C25.5,22.3994949 23.1494949,24.75 20.25,24.75 L18,24.75 C17.1715729,24.75 16.5,25.4215729 16.5,26.25 C16.5,27.0784271 17.1715729,27.75 18,27.75 L20.25,27.75 C24.8063492,27.75 28.5,24.0563492 28.5,19.5 L28.4988947,19.3635712 C28.4260407,14.8701472 24.7607857,11.25 20.25,11.25 L9.11344492,11.2499547 L12.8644074,7.49917733 C13.4501939,6.91339089 13.4501939,5.96364342 12.8644074,5.37785699 Z" id="Shape"></path>
        </g>
    </g>
</svg>