<?xml version="1.0" encoding="UTF-8"?>
<svg width="48px" height="48px" viewBox="0 0 48 48" version="1.1" xmlns="http://www.w3.org/2000/svg" xmlns:xlink="http://www.w3.org/1999/xlink">
    <title>arrow-up-dark-fill</title>
    <g id="arrow-up-dark-fill" stroke="none" stroke-width="1" fill="none" fill-rule="evenodd">
        <rect id="frame" stroke-opacity="0.01" stroke="#979797" stroke-width="0.1" x="0.05" y="0.05" width="47.9" height="47.9"></rect>
        <g id="fill" transform="translate(7.5, 7.5)" fill="#FFFFFF">
            <path d="M16.5,0 C25.6126984,0 33,7.38730163 33,16.5 C33,25.6126984 25.6126984,33 16.5,33 C7.38730163,33 -1.01033361e-15,25.6126984 -1.01033361e-15,16.5 C-1.01033361e-15,7.38730163 7.38730163,0 16.5,0 Z M16.5,13.5 C15.6715729,13.5 15,14.1715729 15,15 L15,27 C15,27.8284271 15.6715729,28.5 16.5,28.5 C17.3284271,28.5 18,27.8284271 18,27 L18,15 C18,14.1715729 17.3284271,13.5 16.5,13.5 Z M18.6595086,6.13316829 C17.4879357,4.96159542 15.5884408,4.96159542 14.4168679,6.13316829 L6.54819907,14.0018371 C5.96241263,14.5876235 5.96241263,15.537371 6.54819907,16.1231574 C7.13398551,16.7089439 8.08373297,16.7089439 8.66951941,16.1231574 L16.5412862,8.25139069 L24.4838057,16.2225943 C25.0685371,16.8073257 26.016574,16.8073257 26.6013054,16.2225943 C27.1873421,15.6365577 27.1880352,14.6866185 26.6028544,14.0997273 L18.6595086,6.13316829 Z" id="Shape"></path>
        </g>
    </g>
</svg>