<?xml version="1.0" encoding="UTF-8"?>
<svg width="48px" height="48px" viewBox="0 0 48 48" version="1.1" xmlns="http://www.w3.org/2000/svg" xmlns:xlink="http://www.w3.org/1999/xlink">
    <title>arrow-right-join-dark-fill</title>
    <g id="arrow-right-join-dark-fill" stroke="none" stroke-width="1" fill="none" fill-rule="evenodd">
        <rect id="frame" stroke-opacity="0.01" stroke="#979797" stroke-width="0.1" x="0.05" y="0.05" width="47.9" height="47.9"></rect>
        <g id="fill" transform="translate(7.5, 7.5)" fill="#FFFFFF">
            <path d="M16.5,0 C25.6126984,0 33,7.38730163 33,16.5 C33,25.6126984 25.6126984,33 16.5,33 C7.38730163,33 0,25.6126984 0,16.5 C0,7.38730163 7.38730163,0 16.5,0 Z M8.21158679,6.41271074 C8.02530708,5.60549864 7.21992284,5.10213349 6.41271074,5.28841321 C5.60549864,5.47469292 5.10213349,6.28007716 5.28841321,7.08728926 L5.51467765,8.0677685 L5.55607504,8.24167338 C6.43527429,11.8250953 8.77706909,14.7474541 11.8555913,16.4313124 L11.9829375,16.5 L11.8555913,16.5686876 C8.72741551,18.2797049 6.35992418,21.2694965 5.51467765,24.9322315 L5.28841321,25.9127107 C5.10213349,26.7199228 5.60549864,27.5253071 6.41271074,27.7115868 C7.21992284,27.8978665 8.02530708,27.3945014 8.21158679,26.5872893 L8.43785123,25.60681 C9.46539087,21.1541382 13.4303038,18 18,18 L21,18 L21,21.8979183 C21,22.1200214 21.0657428,22.337155 21.1889434,22.521956 C21.5335899,23.0389258 22.2320679,23.1786214 22.7490377,22.8339749 L30.8459151,17.4360566 C30.969499,17.3536674 31.0755448,17.2476215 31.157934,17.1240377 C31.5025805,16.6070679 31.3628849,15.9085899 30.8459151,15.5639434 L22.7490377,10.1660251 C22.5642368,10.0428245 22.3471031,9.97708173 22.125,9.97708173 C21.5036797,9.97708173 21,10.4807614 21,11.1020817 L21,15 L18,15 C13.4303038,15 9.46539087,11.8458618 8.43785123,7.39318998 L8.21158679,6.41271074 Z" id="Shape"></path>
        </g>
    </g>
</svg>