<?xml version="1.0" encoding="UTF-8"?>
<svg width="48px" height="48px" viewBox="0 0 48 48" version="1.1" xmlns="http://www.w3.org/2000/svg" xmlns:xlink="http://www.w3.org/1999/xlink">
    <title>arrow-right-join-dark</title>
    <g id="arrow-right-join-dark" stroke="none" stroke-width="1" fill="none" fill-rule="evenodd">
        <rect id="frame" stroke-opacity="0.01" stroke="#979797" stroke-width="0.1" x="0.05" y="0.05" width="47.9" height="47.9"></rect>
        <g id="outline" transform="translate(13.4998, 13.4998)" fill="#FFFFFF" fill-rule="nonzero">
            <path d="M1.48095961,0.581521586 L1.70722405,1.56200083 C2.81329407,6.35497092 7.081228,9.75016622 12.0001662,9.75016622 L16.5001662,9.75016622 L16.5001662,6.51342619 C16.5001662,5.89210585 17.0038459,5.38842619 17.6251662,5.38842619 C17.8333585,5.38842619 18.0374672,5.44619757 18.2147758,5.55531059 L24.6932284,9.54205061 C25.222381,9.867683 25.3873668,10.5606232 25.0617344,11.0897758 C24.9694356,11.2397613 24.8432139,11.3659831 24.6932284,11.4582818 L18.2147758,15.4450218 C17.6856232,15.7706542 16.992683,15.6056685 16.6670506,15.0765158 C16.5579376,14.8992072 16.5001662,14.6950985 16.5001662,14.4869062 L16.5001662,11.2501662 L12.0001662,11.2501662 C7.081228,11.2501662 2.81329407,14.6453615 1.70722405,19.4383316 L1.48095961,20.4188108 C1.38781976,20.8224169 0.985127635,21.0740995 0.581521586,20.9809596 C0.177915538,20.8878198 -0.0737670378,20.4851276 0.0193728195,20.0815216 L0.245637259,19.1010423 C1.16772273,15.1053386 4.01402761,11.9602805 7.66908494,10.5532358 L7.80954122,10.5001662 L7.66908494,10.4470966 C4.06409689,9.05932656 1.24585545,5.98083363 0.284611569,2.06301593 L0.245637259,1.89929009 L0.0193728195,0.918810846 C-0.0737670378,0.515204798 0.177915538,0.112512677 0.581521586,0.0193728195 C0.985127635,-0.0737670378 1.38781976,0.177915538 1.48095961,0.581521586 Z M17.9999787,7.18441622 L18.0001662,13.8157287 L23.3879787,10.5001662 L17.9999787,7.18441622 Z" id="Combined-Shape"></path>
        </g>
    </g>
</svg>