<?xml version="1.0" encoding="UTF-8"?>
<svg width="48px" height="48px" viewBox="0 0 48 48" version="1.1" xmlns="http://www.w3.org/2000/svg" xmlns:xlink="http://www.w3.org/1999/xlink">
    <title>arrow-up-dark-thick</title>
    <g id="arrow-up-dark-thick" stroke="none" stroke-width="1" fill="none" fill-rule="evenodd">
        <rect id="frame" stroke-opacity="0.01" stroke="#979797" stroke-width="0.1" x="0.05" y="0.05" width="47.9" height="47.9"></rect>
        <g id="thick" transform="translate(13.5919, 13.2173)" fill="#FFFFFF" fill-rule="nonzero">
            <path d="M10.4080657,8.24491595 C11.2364928,8.24491595 11.9080657,8.91648882 11.9080657,9.74491595 L11.9080657,21.7449159 C11.9080657,22.5733431 11.2364928,23.2449159 10.4080657,23.2449159 C9.5796386,23.2449159 8.90806572,22.5733431 8.90806572,21.7449159 L8.90806572,9.74491595 C8.90806572,8.91648882 9.5796386,8.24491595 10.4080657,8.24491595 Z M12.5014164,0.830542114 L12.5537428,0.8817776 L20.4939952,8.84523865 C21.079176,9.43212989 21.0784829,10.3820691 20.4924462,10.9681057 C19.9201559,11.540396 18.9998554,11.5525724 18.4127562,11.0046349 L18.3730396,10.9661954 L10.4324269,2.99690205 L2.56066017,10.8686688 C1.97487373,11.4544553 1.02512627,11.4544553 0.439339828,10.8686688 C-0.146446609,10.2828824 -0.146446609,9.33313491 0.439339828,8.74734847 L8.30800864,0.878679656 C9.46330967,-0.276621373 11.3264531,-0.292667221 12.5014164,0.830542114 L12.5014164,0.830542114 Z" id="Shape"></path>
        </g>
    </g>
</svg>