<?xml version="1.0" encoding="UTF-8"?>
<svg width="48px" height="48px" viewBox="0 0 48 48" version="1.1" xmlns="http://www.w3.org/2000/svg" xmlns:xlink="http://www.w3.org/1999/xlink">
    <title>arrow-right-join-dark-thick</title>
    <g id="arrow-right-join-dark-thick" stroke="none" stroke-width="1" fill="none" fill-rule="evenodd">
        <rect id="frame" stroke-opacity="0.01" stroke="#979797" stroke-width="0.1" x="0.05" y="0.05" width="47.9" height="47.9"></rect>
        <g id="thick" transform="translate(12.7497, 12.7497)" fill="#FFFFFF" fill-rule="nonzero">
            <path d="M2.96191923,1.16304317 L3.18818367,2.14352241 C4.21572331,6.59619419 8.1806362,9.75033243 12.7503324,9.75033243 L15.7503324,9.75033243 L15.7503324,5.85241416 C15.7503324,5.23109382 16.2540121,4.72741416 16.8753324,4.72741416 C17.0974355,4.72741416 17.3145692,4.79315694 17.4993702,4.91635758 L25.5962476,10.3142759 C26.1132173,10.6589224 26.2529129,11.3574004 25.9082664,11.8743702 C25.8258772,11.997954 25.7198314,12.1039998 25.5962476,12.186389 L17.4993702,17.5843073 C16.9824004,17.9289538 16.2839224,17.7892582 15.9392759,17.2722884 C15.8160752,17.0874875 15.7503324,16.8703538 15.7503324,16.6482507 L15.7503324,12.7503324 L12.7503324,12.7503324 C8.1806362,12.7503324 4.21572331,15.9044707 3.18818367,20.3571425 L2.96191923,21.3376217 C2.77563951,22.1448338 1.97025527,22.6481989 1.16304317,22.4619192 C0.355831076,22.2756395 -0.147534076,21.4702553 0.0387456391,20.6630432 L0.265010079,19.6825639 C1.11025661,16.019829 3.47774794,13.0300374 6.60592375,11.31902 L6.73326993,11.2503324 L6.60592375,11.1816449 C3.52740153,9.4977865 1.18560672,6.57542774 0.306407469,2.99200581 L0.0387456391,1.83762169 C-0.147534076,1.0304096 0.355831076,0.225025354 1.16304317,0.0387456391 C1.97025527,-0.147534076 2.77563951,0.355831076 2.96191923,1.16304317 Z" id="Path"></path>
        </g>
    </g>
</svg>