<?xml version="1.0" encoding="UTF-8"?>
<svg width="48px" height="48px" viewBox="0 0 48 48" version="1.1" xmlns="http://www.w3.org/2000/svg" xmlns:xlink="http://www.w3.org/1999/xlink">
    <title>arrow-down-dark-thick</title>
    <g id="arrow-down-dark-thick" stroke="none" stroke-width="1" fill="none" fill-rule="evenodd">
        <rect id="frame" stroke-opacity="0.01" stroke="#979797" stroke-width="0.1" x="0.05" y="0.05" width="47.9" height="47.9"></rect>
        <g id="thick" transform="translate(13.5919, 11.9716)" fill="#FFFFFF" fill-rule="nonzero">
            <path d="M18.3749465,12.2768102 C18.9596779,11.6920788 19.9077148,11.6920788 20.4924462,12.2768102 C21.0784829,12.8628469 21.079176,13.8127861 20.4939952,14.3996773 L12.5506493,22.3662363 C11.3790765,23.5378092 9.47958152,23.5378092 8.30800864,22.3662363 L0.439339828,14.4975675 C-0.146446609,13.911781 -0.146446609,12.9620336 0.439339828,12.3762471 C1.02512627,11.7904607 1.97487373,11.7904607 2.56066017,12.3762471 L10.4324269,20.2480139 L18.3749465,12.2768102 Z M10.4080657,0 C11.2364928,0 11.9080657,0.671572875 11.9080657,1.5 L11.9080657,13.5 C11.9080657,14.3284271 11.2364928,15 10.4080657,15 C9.5796386,15 8.90806572,14.3284271 8.90806572,13.5 L8.90806572,1.5 C8.90806572,0.671572875 9.5796386,0 10.4080657,0 Z" id="Shape"></path>
        </g>
    </g>
</svg>