<?xml version="1.0" encoding="UTF-8"?>
<svg width="48px" height="48px" viewBox="0 0 48 48" version="1.1" xmlns="http://www.w3.org/2000/svg" xmlns:xlink="http://www.w3.org/1999/xlink">
    <title>arrow-down-light-fill</title>
    <g id="arrow-down-light-fill" stroke="none" stroke-width="1" fill="none" fill-rule="evenodd">
        <rect id="frame" stroke-opacity="0.01" stroke="#979797" stroke-width="0.1" x="0.05" y="0.05" width="47.9" height="47.9"></rect>
        <g id="fill" transform="translate(7.5, 7.5)" fill="#000000">
            <path d="M16.5,0 C25.6126984,0 33,7.38730163 33,16.5 C33,25.6126984 25.6126984,33 16.5,33 C7.38730163,33 -1.01033361e-15,25.6126984 -1.01033361e-15,16.5 C-1.01033361e-15,7.38730163 7.38730163,0 16.5,0 Z M26.6013054,16.7774057 C26.0290151,16.2051154 25.1087147,16.192939 24.5216154,16.7408765 L24.4818989,16.779316 L16.5412862,24.7486093 L8.66951941,16.8768426 C8.08373297,16.2910561 7.13398551,16.2910561 6.54819907,16.8768426 C5.96241263,17.462629 5.96241263,18.4123765 6.54819907,18.9981629 L14.4168679,26.8668317 C15.5721689,28.0221327 17.4353124,28.0381786 18.6102757,26.9149693 L18.662602,26.8637338 L26.6028544,18.9002727 C27.1880352,18.3133815 27.1873421,17.3634423 26.6013054,16.7774057 Z M16.5,4.5 C15.6715729,4.5 15,5.17157288 15,6 L15,18 C15,18.8284271 15.6715729,19.5 16.5,19.5 C17.3284271,19.5 18,18.8284271 18,18 L18,6 C18,5.17157288 17.3284271,4.5 16.5,4.5 Z" id="Shape"></path>
        </g>
    </g>
</svg>