<?xml version="1.0" encoding="UTF-8"?>
<svg width="48px" height="48px" viewBox="0 0 48 48" version="1.1" xmlns="http://www.w3.org/2000/svg" xmlns:xlink="http://www.w3.org/1999/xlink">
    <title>arrow-down-dark</title>
    <g id="arrow-down-dark" stroke="none" stroke-width="1" fill="none" fill-rule="evenodd">
        <rect id="frame" stroke-opacity="0.01" stroke="#979797" stroke-width="0.1" x="0.05" y="0.05" width="47.9" height="47.9"></rect>
        <g id="outline" transform="translate(13.2858, 11.2289)" fill="#FFFFFF" fill-rule="nonzero">
            <path d="M17.6295725,12.2840097 C18.5082521,11.4053301 19.9328733,11.4053301 20.811553,12.2840097 C21.6902327,13.1626894 21.6902327,14.5873106 20.811553,15.4659903 L12.8566017,23.4209415 C11.6850288,24.5925144 9.78553391,24.5925144 8.61396103,23.4209415 L0.659009742,15.4659903 C-0.219669914,14.5873106 -0.219669914,13.1626894 0.659009742,12.2840097 C1.5376894,11.4053301 2.9623106,11.4053301 3.84099026,12.2840097 L10.7352814,19.1783009 L17.6295725,12.2840097 Z M19.7508928,13.3446699 C19.4579996,13.0517767 18.9831259,13.0517767 18.6902327,13.3446699 L10.7352814,21.2996212 L2.78033009,13.3446699 C2.48743687,13.0517767 2.01256313,13.0517767 1.71966991,13.3446699 C1.4267767,13.6375631 1.4267767,14.1124369 1.71966991,14.4053301 L9.6746212,22.3602814 C10.2604076,22.9460678 11.2101551,22.9460678 11.7959415,22.3602814 L19.7508928,14.4053301 C20.0437861,14.1124369 20.0437861,13.6375631 19.7508928,13.3446699 Z M10.7352814,0 C11.9779221,0 12.9852814,1.00735931 12.9852814,2.25 L12.9852814,12.75 C12.9852814,13.9926407 11.9779221,15 10.7352814,15 C9.49264069,15 8.48528137,13.9926407 8.48528137,12.75 L8.48528137,2.25 C8.48528137,1.00735931 9.49264069,0 10.7352814,0 Z M10.7352814,1.5 C10.3210678,1.5 9.98528137,1.83578644 9.98528137,2.25 L9.98528137,12.75 C9.98528137,13.1642136 10.3210678,13.5 10.7352814,13.5 C11.1494949,13.5 11.4852814,13.1642136 11.4852814,12.75 L11.4852814,2.25 C11.4852814,1.83578644 11.1494949,1.5 10.7352814,1.5 Z" id="Shape"></path>
        </g>
    </g>
</svg>