<?xml version="1.0" encoding="UTF-8"?>
<svg width="48px" height="48px" viewBox="0 0 48 48" version="1.1" xmlns="http://www.w3.org/2000/svg" xmlns:xlink="http://www.w3.org/1999/xlink">
    <title>arrow-right-light-fill</title>
    <g id="arrow-right-light-fill" stroke="none" stroke-width="1" fill="none" fill-rule="evenodd">
        <rect id="frame" stroke-opacity="0.01" stroke="#979797" stroke-width="0.1" x="0.05" y="0.05" width="47.9" height="47.9"></rect>
        <g id="fill" transform="translate(7.5, 7.5)" fill="#000000">
            <path d="M16.5,0 C25.6126984,0 33,7.38730163 33,16.5 C33,25.6126984 25.6126984,33 16.5,33 C7.38730163,33 0,25.6126984 0,16.5 C0,7.38730163 7.38730163,0 16.5,0 Z M19.9975675,7.69035699 C19.411781,7.10457055 18.4620336,7.10457055 17.8762471,7.69035699 C17.2904607,8.27614342 17.2904607,9.22589089 17.8762471,9.81167733 L24.7480139,16.6834441 L17.7768102,23.6259637 C17.1920788,24.2106951 17.1920788,25.158732 17.7768102,25.7434634 C18.3628469,26.3295 19.3127861,26.3301931 19.8996773,25.7450123 L26.8662363,18.8016665 C28.0378092,17.6300936 28.0378092,15.7305987 26.8662363,14.5590258 L19.9975675,7.69035699 Z M18,15 L7,15 C6.17157288,15 5.5,15.6715729 5.5,16.5 C5.5,17.3284271 6.17157288,18 7,18 L18,18 C18.8284271,18 19.5,17.3284271 19.5,16.5 C19.5,15.6715729 18.8284271,15 18,15 Z" id="Shape"></path>
        </g>
    </g>
</svg>