<?xml version="1.0" encoding="UTF-8"?>
<svg width="48px" height="48px" viewBox="0 0 48 48" version="1.1" xmlns="http://www.w3.org/2000/svg" xmlns:xlink="http://www.w3.org/1999/xlink">
    <title>arrow-left-dark</title>
    <g id="arrow-left-dark" stroke="none" stroke-width="1" fill="none" fill-rule="evenodd">
        <rect id="frame" stroke-opacity="0.01" stroke="#979797" stroke-width="0.1" x="0.05" y="0.05" width="47.9" height="47.9"></rect>
        <g id="outline" transform="translate(13.2426, 13.2647)" fill="#FFFFFF" fill-rule="nonzero">
            <path d="M8.83363094,0.659009742 C9.7123106,-0.219669914 11.1369318,-0.219669914 12.0156115,0.659009742 C12.8942911,1.5376894 12.8942911,2.9623106 12.0156115,3.84099026 L5.12132034,10.7352814 L12.0156115,17.6295725 C12.8942911,18.5082521 12.8942911,19.9328733 12.0156115,20.811553 C11.1369318,21.6902327 9.7123106,21.6902327 8.83363094,20.811553 L0.878679656,12.8566017 C-0.292893219,11.6850288 -0.292893219,9.78553391 0.878679656,8.61396103 L8.83363094,0.659009742 Z M10.9549513,1.71966991 C10.6620581,1.4267767 10.1871843,1.4267767 9.89429112,1.71966991 L1.93933983,9.6746212 C1.35355339,10.2604076 1.35355339,11.2101551 1.93933983,11.7959415 L9.89429112,19.7508928 C10.1871843,20.0437861 10.6620581,20.0437861 10.9549513,19.7508928 C11.2478445,19.4579996 11.2478445,18.9831259 10.9549513,18.6902327 L3,10.7352814 L10.9549513,2.78033009 C11.2478445,2.48743687 11.2478445,2.01256313 10.9549513,1.71966991 Z M22.0496212,8.48528137 C23.2922619,8.48528137 24.2996212,9.49264069 24.2996212,10.7352814 C24.2996212,11.9779221 23.2922619,12.9852814 22.0496212,12.9852814 L11.5496212,12.9852814 C10.3069805,12.9852814 9.2996212,11.9779221 9.2996212,10.7352814 C9.2996212,9.49264069 10.3069805,8.48528137 11.5496212,8.48528137 L22.0496212,8.48528137 Z M22.0496212,9.98528137 L11.5496212,9.98528137 C11.1354076,9.98528137 10.7996212,10.3210678 10.7996212,10.7352814 C10.7996212,11.1494949 11.1354076,11.4852814 11.5496212,11.4852814 L22.0496212,11.4852814 C22.4638348,11.4852814 22.7996212,11.1494949 22.7996212,10.7352814 C22.7996212,10.3210678 22.4638348,9.98528137 22.0496212,9.98528137 Z" id="Shape"></path>
        </g>
    </g>
</svg>