<?xml version="1.0" encoding="UTF-8"?>
<svg width="48px" height="48px" viewBox="0 0 48 48" version="1.1" xmlns="http://www.w3.org/2000/svg" xmlns:xlink="http://www.w3.org/1999/xlink">
    <title>arrow-right-fork-dark</title>
    <g id="arrow-right-fork-dark" stroke="none" stroke-width="1" fill="none" fill-rule="evenodd">
        <rect id="frame" stroke-opacity="0.01" stroke="#979797" stroke-width="0.1" x="0.05" y="0.05" width="47.9" height="47.9"></rect>
        <g id="outline" transform="translate(9.75, 10.6826)" fill="#FFFFFF" fill-rule="nonzero">
            <path d="M21.9686905,0.636621411 C22.0529814,0.811424716 22.0906204,1.00506015 22.0779497,1.19871088 L21.6514625,7.71686806 C21.6108959,8.33686267 21.0754052,8.80658185 20.4554106,8.76601521 C20.2566491,8.75301012 20.064904,8.68746659 19.899771,8.57608293 L17.7427074,7.1212328 C15.5226724,10.0468908 12.4635953,12.1741042 9.02505456,13.256914 L8.82847146,13.3174151 L8.88156366,13.3334212 C12.3784561,14.4018068 15.4918333,16.5473186 17.7427017,19.5136069 L19.899771,18.0587642 C20.4148689,17.7113263 21.1140923,17.8472416 21.4615303,18.3623395 C21.5729139,18.5274726 21.6384574,18.7192177 21.6514625,18.9179791 L22.0779497,25.4361363 C22.1185163,26.0561309 21.6487971,26.5916216 21.0288025,26.6321882 C20.8351518,26.6448589 20.6415164,26.60722 20.4667131,26.5229291 L14.5829478,23.6857525 C14.0232954,23.4158857 13.7883777,22.7434274 14.0582445,22.183775 C14.14476,22.0043584 14.2773598,21.8511284 14.4424929,21.7397448 L16.4970786,20.353894 C13.4694883,16.4068837 8.76460012,14.0674236 3.75,14.0674236 L0.75,14.0674236 C-0.235294118,14.0674236 -0.249783737,12.6112168 0.706531142,12.5683872 L0.75,12.5674236 L3.75,12.5674236 C8.76454839,12.5674236 13.4693913,10.2280118 16.4969849,6.28107534 L14.4424929,4.8951024 C13.927395,4.54766447 13.7914797,3.84844102 14.1389176,3.33334311 C14.2503013,3.16821005 14.4035312,3.03561016 14.5829478,2.9490947 L20.4667131,0.111918056 C21.0263655,-0.157948745 21.6988237,0.0769689484 21.9686905,0.636621411 Z M20.1973369,19.6673804 L15.8226611,22.6181365 L20.5391857,24.8925996 L20.1973369,19.6673804 Z M20.5391857,1.74224755 L15.8225057,4.01660583 L20.1971815,6.96736193 L20.5391857,1.74224755 Z" id="Shape"></path>
        </g>
    </g>
</svg>