<?xml version="1.0" encoding="UTF-8"?>
<svg width="48px" height="48px" viewBox="0 0 48 48" version="1.1" xmlns="http://www.w3.org/2000/svg" xmlns:xlink="http://www.w3.org/1999/xlink">
    <title>arrow-uturn-left-dark</title>
    <g id="arrow-uturn-left-dark" stroke="none" stroke-width="1" fill="none" fill-rule="evenodd">
        <rect id="frame" stroke-opacity="0.01" stroke="#979797" stroke-width="0.1" x="0.05" y="0.05" width="47.9" height="47.9"></rect>
        <g id="outline" transform="translate(9.8714, 10.9385)" fill="#FFFFFF" fill-rule="nonzero">
            <path d="M17.8786337,7.06148284 C22.8491964,7.06148284 26.8786337,11.0909201 26.8786337,16.0614828 C26.8786337,21.0320456 22.8491964,25.0614828 17.8786337,25.0614828 L15.6286337,25.0614828 C14.385993,25.0614828 13.3786337,24.0541235 13.3786337,22.8114828 C13.3786337,21.5688422 14.385993,20.5614828 15.6286337,20.5614828 L17.8786337,20.5614828 C20.363915,20.5614828 22.3786337,18.5467642 22.3786337,16.0614828 C22.3786337,13.5762015 20.363915,11.5614828 17.8786337,11.5614828 L9.62863366,11.5614828 C8.38599298,11.5614828 7.37863366,10.5541235 7.37863366,9.31148284 C7.37863366,8.06884216 8.38599298,7.06148284 9.62863366,7.06148284 L17.8786337,7.06148284 Z M17.8786337,8.56148284 L9.62863366,8.56148284 C9.2144201,8.56148284 8.87863366,8.89726928 8.87863366,9.31148284 C8.87863366,9.72569641 9.2144201,10.0614828 9.62863366,10.0614828 L17.8786337,10.0614828 C21.1923422,10.0614828 23.8786337,12.7477743 23.8786337,16.0614828 C23.8786337,19.3751913 21.1923422,22.0614828 17.8786337,22.0614828 L15.6286337,22.0614828 C15.2144201,22.0614828 14.8786337,22.3972693 14.8786337,22.8114828 C14.8786337,23.2256964 15.2144201,23.5614828 15.6286337,23.5614828 L17.8786337,23.5614828 C22.0207693,23.5614828 25.3786337,20.2036185 25.3786337,16.0614828 C25.3786337,11.9193472 22.0207693,8.56148284 17.8786337,8.56148284 Z M7.09139068,0.659009742 C7.97007034,-0.219669914 9.39469154,-0.219669914 10.2733712,0.659009742 L10.3165729,0.703393621 C11.1518068,1.58502512 11.1374062,2.97695526 10.2733712,3.84099026 L4.80826317,9.30605466 L10.3728081,14.8456185 C11.250156,15.7229664 11.250156,17.1454284 10.3728081,18.0227763 C9.49419096,18.9013934 8.07005695,18.9026429 7.18989943,18.0255689 L1.09834957,11.9553517 C-0.366116524,10.4908856 -0.366116524,8.11651695 1.09834957,6.65205085 L7.09139068,0.659009742 Z M9.21271102,1.71966991 C8.91981781,1.4267767 8.44494407,1.4267767 8.15205085,1.71966991 L2.15900974,7.71271102 C1.29497475,8.57674602 1.28057416,9.96867616 2.11580799,10.8503077 L2.16180398,10.8974809 L8.24869678,16.9630492 C8.54276884,17.256091 9.01859052,17.2556735 9.31214792,16.9621161 C9.60370937,16.6705547 9.60370937,16.1978401 9.31094498,15.9050785 L2.68440575,9.30863536 L9.21271102,2.78033009 C9.50560424,2.48743687 9.50560424,2.01256313 9.21271102,1.71966991 Z" id="Shape"></path>
        </g>
    </g>
</svg>