<?xml version="1.0" encoding="UTF-8"?>
<svg width="48px" height="48px" viewBox="0 0 48 48" version="1.1" xmlns="http://www.w3.org/2000/svg" xmlns:xlink="http://www.w3.org/1999/xlink">
    <title>arrow-up-dark</title>
    <g id="arrow-up-dark" stroke="none" stroke-width="1" fill="none" fill-rule="evenodd">
        <rect id="frame" stroke-opacity="0.01" stroke="#979797" stroke-width="0.1" x="0.05" y="0.05" width="47.9" height="47.9"></rect>
        <g id="outline" transform="translate(13.2858, 12.4715)" fill="#FFFFFF" fill-rule="nonzero">
            <path d="M10.7352814,9.2996212 C11.9779221,9.2996212 12.9852814,10.3069805 12.9852814,11.5496212 L12.9852814,22.0496212 C12.9852814,23.2922619 11.9779221,24.2996212 10.7352814,24.2996212 C9.49264069,24.2996212 8.48528137,23.2922619 8.48528137,22.0496212 L8.48528137,11.5496212 C8.48528137,10.3069805 9.49264069,9.2996212 10.7352814,9.2996212 Z M10.7352814,10.7996212 C10.3210678,10.7996212 9.98528137,11.1354076 9.98528137,11.5496212 L9.98528137,22.0496212 C9.98528137,22.4638348 10.3210678,22.7996212 10.7352814,22.7996212 C11.1494949,22.7996212 11.4852814,22.4638348 11.4852814,22.0496212 L11.4852814,11.5496212 C11.4852814,11.1354076 11.1494949,10.7996212 10.7352814,10.7996212 Z M12.8566017,0.878679656 L20.811553,8.83363094 C21.6902327,9.7123106 21.6902327,11.1369318 20.811553,12.0156115 C19.9328733,12.8942911 18.5082521,12.8942911 17.6295725,12.0156115 L10.7352814,5.12132034 L3.84099026,12.0156115 C2.9623106,12.8942911 1.5376894,12.8942911 0.659009742,12.0156115 C-0.219669914,11.1369318 -0.219669914,9.7123106 0.659009742,8.83363094 L8.61396103,0.878679656 C9.78553391,-0.292893219 11.6850288,-0.292893219 12.8566017,0.878679656 Z M9.6746212,1.93933983 L1.71966991,9.89429112 C1.4267767,10.1871843 1.4267767,10.6620581 1.71966991,10.9549513 C2.01256313,11.2478445 2.48743687,11.2478445 2.78033009,10.9549513 L10.7352814,3 L18.6902327,10.9549513 C18.9831259,11.2478445 19.4579996,11.2478445 19.7508928,10.9549513 C20.0437861,10.6620581 20.0437861,10.1871843 19.7508928,9.89429112 L11.7959415,1.93933983 C11.2101551,1.35355339 10.2604076,1.35355339 9.6746212,1.93933983 Z" id="Shape"></path>
        </g>
    </g>
</svg>