<?xml version="1.0" encoding="UTF-8"?>
<svg width="48px" height="48px" viewBox="0 0 48 48" version="1.1" xmlns="http://www.w3.org/2000/svg" xmlns:xlink="http://www.w3.org/1999/xlink">
    <title>baldosa-dark-fill</title>
    <g id="baldosa-dark-fill" stroke="none" stroke-width="1" fill="none" fill-rule="evenodd">
        <rect id="frame" stroke-opacity="0.01" stroke="#979797" stroke-width="0.1" x="0.05" y="0.05" width="47.9" height="47.9"></rect>
        <g id="fill" transform="translate(10.5, 7.6875)" fill="#FFFFFF">
            <path d="M9,0 C9.82842712,0 10.5,0.671572875 10.5,1.5 L10.5,4.875 C10.5,5.49632034 9.99632034,6 9.375,6 L7.5,6 C6.67157288,6 6,6.67157288 6,7.5 L6.00071378,7.54672112 C6.02539821,8.35353042 6.68720358,9 7.5,9 L9,9 C9.82842712,9 10.5,9.67157288 10.5,10.5 L10.5,12.75 C10.5,13.1642136 10.8357864,13.5 11.25,13.5 L13.5,13.5 C14.3284271,13.5 15,14.1715729 15,15 L15,16.5 C15,17.3127964 15.6464696,17.9746018 16.4532789,17.9992862 L16.498125,18 L16.5384796,17.9995208 C17.3347158,17.9796584 17.9749526,17.3395059 17.9992827,16.5468021 L18,16.5 L18,15.375 C18,14.3394661 18.8394661,13.5 19.875,13.5 L21.0006241,13.5 C25.1010798,13.5003347 28.4327715,16.7912779 28.4989953,20.8759807 L28.5,20.9726942 L28.5,21.0322874 C28.4824944,25.1608907 25.1300851,28.5 21,28.5 L19.875,28.5 C18.8394661,28.5 18,27.6605339 18,26.625 L18,25.5 C18,24.6872036 17.3535304,24.0253982 16.5467211,24.0007138 L16.49325,24 L16.4615204,24.0004792 C15.6496718,24.0207311 15,24.6858366 15,25.5 L15,27 C15,27.8284271 14.3284271,28.5 13.5,28.5 L10.5,28.5 C9.67157288,28.5 9,27.8284271 9,27 L9,24.75 C9,24.3357864 8.66421356,24 8.25,24 L6.75,24 C6.33578644,24 6,24.3357864 6,24.75 L6,27 C6,27.8284271 5.32842712,28.5 4.5,28.5 L1.5,28.5 C0.671572875,28.5 0,27.8284271 0,27 L0,24 C0,23.1715729 0.671572875,22.5 1.5,22.5 L3.75,22.5 C4.16421356,22.5 4.5,22.1642136 4.5,21.75 L4.5,19.5 C4.5,18.6715729 5.17157288,18 6,18 L8.25,18 C8.66421356,18 9,17.6642136 9,17.25 L9,15.75 C9,15.3357864 8.66421356,15 8.25,15 L6,15 C5.17157288,15 4.5,14.3284271 4.5,13.5 L4.5,1.5 C4.5,0.671572875 5.17157288,0 6,0 L9,0 Z M21,19.5 L12,19.5 C11.1715729,19.5 10.5,20.1715729 10.5,21 C10.5,21.8284271 11.1715729,22.5 12,22.5 L21,22.5 C21.8127964,22.5 22.4746018,21.8535304 22.4992862,21.0467211 L22.5,21 C22.5,20.1715729 21.8284271,19.5 21,19.5 Z" id="Shape"></path>
        </g>
    </g>
</svg>