<?xml version="1.0" encoding="UTF-8"?>
<svg width="48px" height="48px" viewBox="0 0 48 48" version="1.1" xmlns="http://www.w3.org/2000/svg" xmlns:xlink="http://www.w3.org/1999/xlink">
    <title>baldosa-dark-thick</title>
    <g id="baldosa-dark-thick" stroke="none" stroke-width="1" fill="none" fill-rule="evenodd">
        <rect id="frame" stroke-opacity="0.01" stroke="#979797" stroke-width="0.1" x="0.05" y="0.05" width="47.9" height="47.9"></rect>
        <g id="thick" transform="translate(8.25, 5.4375)" fill="#FFFFFF" fill-rule="nonzero">
            <path d="M11.8125,0 C13.5729076,0 15,1.42709236 15,3.1875 L15,7.125 C15,8.13982323 14.5520982,9.05003339 13.8431962,9.66872883 L13.8061875,9.7005 L13.8373305,9.72563153 C14.5328157,10.2983138 14.9814155,11.1599779 14.999436,12.1269301 L15,12.1875 L15,13.5 L16.3125,13.5 C17.4254014,13.5 18.4050911,14.0703467 18.9752195,14.9346904 L18.9849375,14.94975 L18.9929612,14.9404942 C19.735736,14.0746979 20.8313063,13.5204219 22.0567856,13.5005526 L22.1250001,13.5 L23.2508078,13.5 C28.5814044,13.5004351 32.912603,17.7786607 32.9986939,23.0887749 L32.99925,23.1823125 C32.9999118,23.1959447 32.9999118,23.2040481 32.9999118,23.2114786 L32.9999118,23.2917904 C32.9772421,28.6591889 28.6191412,33 23.25,33 L22.125,33 C20.872004,33 19.7494911,32.4413353 18.9929612,31.5595058 L18.9849375,31.5500625 L18.9752195,31.5653096 C18.4154571,32.4139379 17.4608911,32.9791629 16.3730699,32.999436 L16.3125,33 L12.1875,33 C11.196006,33 10.3102447,32.547305 9.72563153,31.8373305 L9.7005,31.8061875 L9.66872883,31.8431962 C9.06265982,32.5376308 8.17685325,32.9816096 7.18699973,32.9994419 L7.125,33 L3.1875,33 C1.42709236,33 0,31.5729076 0,29.8125 L0,25.6875 C0,23.9270924 1.42709236,22.5 3.1875,22.5 L4.5,22.5 L4.5,21.1875 C4.5,20.2162406 4.93440624,19.3464422 5.61952479,18.7617988 L5.6334375,18.75 L5.61952479,18.7382012 C4.94867954,18.1657378 4.51820908,17.3198772 4.50056397,16.3730699 L4.5,16.3125 L4.5,3.1875 C4.5,1.56485533 5.71695704,0.207429271 7.31951507,0.0212946701 L7.4059664,0.0112534843 L7.49285444,0.00624101838 L7.5147209,0.00497956876 L7.60103869,0 L11.8125,0 Z M23.2505629,16.5 L22.125,16.5 C21.5036797,16.5 21,17.0036797 21,17.625 L21.0000247,19.1080579 C20.9885168,19.1331034 20.9769988,19.1583293 20.9654706,19.1837356 L21,19.197 L21,21 L23.25,21 C24.4926407,21 25.5,22.0073593 25.5,23.25 C25.5,24.4926407 24.4926407,25.5 23.25,25.5 L21,25.5 L21,28.875 C21,29.4963203 21.5036797,30 22.125,30 L23.25,30 C26.9682107,30 29.9842499,26.9936468 30,23.2791198 L30,23.25 C30,23.2402218 30,23.2304583 29.9998133,23.2207096 L30,23.25 C30,19.5222656 26.9782263,16.5003042 23.2505629,16.5 Z M11.8125,12 L7.5,12 L7.5,16.3125 C7.5,16.4160534 7.58394661,16.5 7.6875,16.5 L11.8125,16.5 C11.9160534,16.5 12,16.5839466 12,16.6875 L12,20.8125 C12,20.9160534 11.9160534,21 11.8125,21 L7.6875,21 C7.58394661,21 7.5,21.0839466 7.5,21.1875 L7.5,25.3125 C7.5,25.4160534 7.41605339,25.5 7.3125,25.5 L3.1875,25.5 C3.08394661,25.5 3,25.5839466 3,25.6875 L3,29.8125 C3,29.9160534 3.08394661,30 3.1875,30 L7.125,30 C7.33210678,30 7.5,29.8321068 7.5,29.625 L7.5,25.875 C7.5,25.6678932 7.66789322,25.5 7.875,25.5 L11.8125,25.5 C11.9160534,25.5 12,25.5839466 12,25.6875 L12,29.8125 C12,29.9160534 12.0839466,30 12.1875,30 L16.3125,30 C16.4160534,30 16.5,29.9160534 16.5,29.8125 L16.5,25.5 L12.1875,25.5 C12.0839466,25.5 12,25.4160534 12,25.3125 L12,21.1875 C12,21.0839466 12.0839466,21 12.1875,21 L16.5,21 L16.5,16.6875 C16.5,16.5839466 16.4160534,16.5 16.3125,16.5 L12.1875,16.5 C12.0839466,16.5 12,16.4160534 12,16.3125 L12,12.1875 C12,12.0839466 11.9160534,12 11.8125,12 Z M11.8125,3 L7.6875,3 L7.66563354,3.00126145 C7.57238254,3.01209241 7.5,3.09134328 7.5,3.1875 L7.5,7.5 L11.625,7.5 C11.8321068,7.5 12,7.33210678 12,7.125 L12,3.1875 C12,3.08394661 11.9160534,3 11.8125,3 Z" id="Combined-Shape"></path>
        </g>
    </g>
</svg>