<?xml version="1.0" encoding="UTF-8"?>
<svg width="48px" height="48px" viewBox="0 0 48 48" version="1.1" xmlns="http://www.w3.org/2000/svg" xmlns:xlink="http://www.w3.org/1999/xlink">
    <title>bid-light-thick</title>
    <g id="bid-light-thick" stroke="none" stroke-width="1" fill="none" fill-rule="evenodd">
        <rect id="frame" stroke-opacity="0.01" stroke="#979797" stroke-width="0.1" x="0.05" y="0.05" width="47.9" height="47.9"></rect>
        <g id="thick" transform="translate(10.5, 3)" fill="#000000" fill-rule="nonzero">
            <path d="M18.8786797,0 C19.2765044,0 19.6580353,0.158035261 19.9393398,0.439339828 L26.5606602,7.06066017 C26.8419647,7.34196474 27,7.72349561 27,8.12132034 L27,18.8786797 C27,19.2765044 26.8419647,19.6580353 26.5606602,19.9393398 L19.9393398,26.5606602 C19.6580353,26.8419647 19.2765044,27 18.8786797,27 L15,27 L15,40.5 C15,41.3284271 14.3284271,42 13.5,42 C12.6715729,42 12,41.3284271 12,40.5 L12,27 L8.12132034,27 C7.72349561,27 7.34196474,26.8419647 7.06066017,26.5606602 L0.439339828,19.9393398 C0.158035261,19.6580353 0,19.2765044 0,18.8786797 L0,8.12132034 C0,7.72349561 0.158035261,7.34196474 0.439339828,7.06066017 L7.06066017,0.439339828 C7.34196474,0.158035261 7.72349561,0 8.12132034,0 L18.8786797,0 Z M18.2574375,3 L8.742375,3 L3,8.742375 L3,18.2574375 L8.7425625,24 L18.25725,24 L24,18.25725 L24,8.7425625 L18.2574375,3 Z M21.4705627,8.37316017 C22.0563492,8.95894661 22.0563492,9.90869408 21.4705627,10.4944805 L12.9852814,18.9797619 C11.8137085,20.1513348 9.91421356,20.1513348 8.74264069,18.9797619 L5.56066017,15.7977814 C4.97487373,15.2119949 4.97487373,14.2622475 5.56066017,13.676461 C6.14644661,13.0906746 7.09619408,13.0906746 7.68198052,13.676461 L10.3336309,16.3281115 C10.6265242,16.6210047 11.1013979,16.6210047 11.3942911,16.3281115 L19.3492424,8.37316017 C19.9350288,7.78737373 20.8847763,7.78737373 21.4705627,8.37316017 Z" id="Combined-Shape"></path>
        </g>
    </g>
</svg>