<?xml version="1.0" encoding="UTF-8"?>
<svg width="48px" height="48px" viewBox="0 0 48 48" version="1.1" xmlns="http://www.w3.org/2000/svg" xmlns:xlink="http://www.w3.org/1999/xlink">
    <title>bid-dark-thick</title>
    <g id="bid-dark-thick" stroke="none" stroke-width="1" fill="none" fill-rule="evenodd">
        <rect id="frame" stroke-opacity="0.01" stroke="#979797" stroke-width="0.1" x="0.05" y="0.05" width="47.9" height="47.9"></rect>
        <g id="thick" transform="translate(10.5, 3)" fill="#FFFFFF" fill-rule="nonzero">
            <path d="M18.8786797,0 C19.2765044,0 19.6580353,0.158035261 19.9393398,0.439339828 L26.5606602,7.06066017 C26.8419647,7.34196474 27,7.72349561 27,8.12132034 L27,18.8786797 C27,19.2765044 26.8419647,19.6580353 26.5606602,19.9393398 L19.9393398,26.5606602 C19.6580353,26.8419647 19.2765044,27 18.8786797,27 L15,27 L15,40.5 C15,41.3284271 14.3284271,42 13.5,42 C12.6715729,42 12,41.3284271 12,40.5 L12,27 L8.12132034,27 C7.72349561,27 7.34196474,26.8419647 7.06066017,26.5606602 L0.439339828,19.9393398 C0.158035261,19.6580353 0,19.2765044 0,18.8786797 L0,8.12132034 C0,7.72349561 0.158035261,7.34196474 0.439339828,7.06066017 L7.06066017,0.439339828 C7.34196474,0.158035261 7.72349561,0 8.12132034,0 L18.8786797,0 Z M18.2574375,3 L8.742375,3 L3,8.742375 L3,18.2574375 L8.7425625,24 L18.25725,24 L24,18.25725 L24,8.7425625 L18.2574375,3 Z M20.4705627,9.37316017 C21.0563492,9.95894661 21.0563492,10.9086941 20.4705627,11.4944805 L13.9852814,17.9797619 C12.8137085,19.1513348 10.9142136,19.1513348 9.74264069,17.9797619 L6.56066017,14.7977814 C5.97487373,14.2119949 5.97487373,13.2622475 6.56066017,12.676461 C7.14644661,12.0906746 8.09619408,12.0906746 8.68198052,12.676461 L11.3336309,15.3281115 C11.6265242,15.6210047 12.1013979,15.6210047 12.3942911,15.3281115 L18.3492424,9.37316017 C18.9350288,8.78737373 19.8847763,8.78737373 20.4705627,9.37316017 Z" id="Combined-Shape"></path>
        </g>
    </g>
</svg>