<?xml version="1.0" encoding="UTF-8"?>
<svg width="48px" height="48px" viewBox="0 0 48 48" version="1.1" xmlns="http://www.w3.org/2000/svg" xmlns:xlink="http://www.w3.org/1999/xlink">
    <title>bid-dark</title>
    <g id="bid-dark" stroke="none" stroke-width="1" fill="none" fill-rule="evenodd">
        <rect id="frame" stroke-opacity="0.01" stroke="#979797" stroke-width="0.1" x="0.05" y="0.05" width="47.9" height="47.9"></rect>
        <g id="outline" transform="translate(10.5, 3)" fill="#FFFFFF" fill-rule="nonzero">
            <path d="M27,19 L26.99266,19.0269362 C26.9585651,19.3703211 26.8068017,19.6931983 26.5606602,19.9393398 L19.9393398,26.5606602 C19.6580353,26.8419647 19.2765044,27 18.8786797,27 L15.75,27 L15.734,40 L15.7294602,40.0553117 C15.5804729,41.1535384 14.6390873,42 13.5,42 C12.2573593,42 11.25,40.9926407 11.25,39.75 L11.25,27 L8.12132034,27 C7.72349561,27 7.34196474,26.8419647 7.06066017,26.5606602 L0.439339828,19.9393398 C0.158035261,19.6580353 0,19.2765044 0,18.8786797 L0,8.12132034 C0,7.72349561 0.158035261,7.34196474 0.439339828,7.06066017 L7.06066017,0.439339828 C7.34196474,0.158035261 7.72349561,0 8.12132034,0 L18.8786797,0 C19.2765044,0 19.6580353,0.158035261 19.9393398,0.439339828 L26.5606602,7.06066017 C26.8419647,7.34196474 27,7.72349561 27,8.12132034 L27,19 Z M14.25,27 L12.75,27 L12.75,39.75 C12.75,40.1516616 13.0657441,40.4795773 13.4625674,40.4990821 L13.5,40.5 C13.8796958,40.5 14.193491,40.2178461 14.2431534,39.8517706 L14.25,39.75 L14.25,27 Z M25.5,8.12132034 L18.8786797,1.5 L8.12132034,1.5 L1.5,8.12132034 L1.5,18.8786797 L8.12132034,25.5 L18.8786797,25.5 L25.5,18.8786797 L25.5,8.12132034 Z M21.2294462,8.67309704 C21.7176016,9.1612524 21.7176016,9.95270863 21.2294462,10.440864 L13.2744949,18.3958153 C11.9076599,19.7626503 9.69158249,19.7626503 8.32474747,18.3958153 L5.67309704,15.7441649 C5.18494167,15.2560095 5.18494167,14.4645533 5.67309704,13.9763979 C6.1612524,13.4882425 6.95270863,13.4882425 7.44086399,13.9763979 L9.82734938,16.3628833 C10.3643203,16.8998542 11.2349221,16.8998542 11.771893,16.3628833 L19.4616793,8.67309704 C19.9498346,8.18494167 20.7412909,8.18494167 21.2294462,8.67309704 Z" id="Shape"></path>
        </g>
    </g>
</svg>