<?xml version="1.0" encoding="UTF-8"?>
<svg width="48px" height="48px" viewBox="0 0 48 48" version="1.1" xmlns="http://www.w3.org/2000/svg" xmlns:xlink="http://www.w3.org/1999/xlink">
    <title>bid-light</title>
    <g id="bid-light" stroke="none" stroke-width="1" fill="none" fill-rule="evenodd">
        <rect id="frame" stroke-opacity="0.01" stroke="#979797" stroke-width="0.1" x="0.05" y="0.05" width="47.9" height="47.9"></rect>
        <g id="outline" transform="translate(10.5, 3)" fill="#000000" fill-rule="nonzero">
            <path d="M27,19 L26.99266,19.0269362 C26.9585651,19.3703211 26.8068017,19.6931983 26.5606602,19.9393398 L19.9393398,26.5606602 C19.6580353,26.8419647 19.2765044,27 18.8786797,27 L15.75,27 L15.75,40 L15.7362059,40.0005597 C15.6115904,41.1252778 14.6579464,42 13.5,42 C12.2573593,42 11.25,40.9926407 11.25,39.75 L11.25,27 L8.12132034,27 C7.72349561,27 7.34196474,26.8419647 7.06066017,26.5606602 L0.439339828,19.9393398 C0.158035261,19.6580353 0,19.2765044 0,18.8786797 L0,8.12132034 C0,7.72349561 0.158035261,7.34196474 0.439339828,7.06066017 L7.06066017,0.439339828 C7.34196474,0.158035261 7.72349561,0 8.12132034,0 L18.8786797,0 C19.2765044,0 19.6580353,0.158035261 19.9393398,0.439339828 L26.5606602,7.06066017 C26.8419647,7.34196474 27,7.72349561 27,8.12132034 L27,19 Z M14.25,27 L12.75,27 L12.75,39.75 C12.75,40.1516616 13.0657441,40.4795773 13.4625674,40.4990821 L13.5,40.5 C13.9142136,40.5 14.25,40.1642136 14.25,39.75 L14.25,27 Z M25.5,8.12132034 L18.8786797,1.5 L8.12132034,1.5 L1.5,8.12132034 L1.5,18.8786797 L8.12132034,25.5 L18.8786797,25.5 L25.5,18.8786797 L25.5,8.12132034 Z M21.936553,7.96599026 C22.8152327,8.84466991 22.8152327,10.2692911 21.936553,11.1479708 L13.9816017,19.1029221 C12.2242424,20.8602814 9.375,20.8602814 7.61764069,19.1029221 L4.96599026,16.4512716 C4.0873106,15.572592 4.0873106,14.1479708 4.96599026,13.2692911 C5.84466991,12.3906115 7.26929112,12.3906115 8.14797077,13.2692911 L10.5344562,15.6557765 C10.6809028,15.8022231 10.9183396,15.8022231 11.0647862,15.6557765 L18.7545725,7.96599026 C19.6332521,7.0873106 21.0578733,7.0873106 21.936553,7.96599026 Z M19.8152327,9.02665043 L12.1254464,16.7164367 C11.3932134,17.4486697 10.206029,17.4486697 9.47379599,16.7164367 L7.0873106,14.3299513 C6.79441738,14.0370581 6.31954365,14.0370581 6.02665043,14.3299513 C5.73375721,14.6228445 5.73375721,15.0977182 6.02665043,15.3906115 L8.67830086,18.0422619 C9.84987373,19.2138348 11.7493687,19.2138348 12.9209415,18.0422619 L20.8758928,10.0873106 C21.1687861,9.79441738 21.1687861,9.31954365 20.8758928,9.02665043 C20.5829996,8.73375721 20.1081259,8.73375721 19.8152327,9.02665043 Z" id="Shape"></path>
        </g>
    </g>
</svg>