<?xml version="1.0" encoding="UTF-8"?>
<svg width="48px" height="48px" viewBox="0 0 48 48" version="1.1" xmlns="http://www.w3.org/2000/svg" xmlns:xlink="http://www.w3.org/1999/xlink">
    <title>bolt-light</title>
    <g id="bolt-light" stroke="none" stroke-width="1" fill="none" fill-rule="evenodd">
        <rect id="frame" stroke-opacity="0.01" stroke="#979797" stroke-width="0.1" x="0.05" y="0.05" width="47.9" height="47.9"></rect>
        <g id="outline" transform="translate(11.25, 3.75)" fill="#000000" fill-rule="nonzero">
            <path d="M18.1661902,-0.470814338 C18.6838673,-1.11273396 19.7076123,-0.570551506 19.4675054,0.218371212 L14.512,16.499 L25.5,16.5 C26.0952348,16.5 26.4397823,17.1513387 26.1429326,17.6369962 L26.0838098,17.7208143 L7.33380978,40.9708143 C6.81613267,41.612734 5.79238768,41.0705515 6.03249459,40.2816288 L10.987,24 L-1.44328993e-15,24 C-0.595234809,24 -0.939782324,23.3486613 -0.642932645,22.8630038 L-0.58380978,22.7791857 L18.1661902,-0.470814338 Z M16.907,3.478 L1.568,22.499 L12,22.5 C12.4700686,22.5 12.8154443,22.9238367 12.7401797,23.372089 L12.7175054,23.4683712 L8.592,37.02 L23.932,17.999 L13.5,18 C13.0299314,18 12.6845557,17.5761633 12.7598203,17.127911 L12.7824946,17.0316288 L16.907,3.478 Z" id="Path-37"></path>
        </g>
    </g>
</svg>