<?xml version="1.0" encoding="UTF-8"?>
<svg width="48px" height="48px" viewBox="0 0 48 48" version="1.1" xmlns="http://www.w3.org/2000/svg" xmlns:xlink="http://www.w3.org/1999/xlink">
    <title>bolt-light-thick</title>
    <g id="bolt-light-thick" stroke="none" stroke-width="1" fill="none" fill-rule="evenodd">
        <rect id="frame" stroke-opacity="0.01" stroke="#979797" stroke-width="0.1" x="0.05" y="0.05" width="47.9" height="47.9"></rect>
        <g id="thick" transform="translate(10.4973, 2.992)" fill="#000000" fill-rule="nonzero">
            <path d="M16.7930804,0.620998076 C17.7767556,-0.720377085 19.8875035,0.297930235 19.4498337,1.90271968 L15.4665629,16.5080436 L25.5026879,16.5080436 C26.716355,16.5080436 27.4215403,17.8704517 26.7382394,18.858663 L26.7122954,18.8950891 L10.2122954,41.3950891 C9.22862031,42.7364642 7.11787235,41.7181569 7.5555422,40.1133675 L11.5386254,25.5080436 L1.50268793,25.5080436 C0.28902083,25.5080436 -0.416164429,24.1456355 0.267136458,23.1574241 L0.293080436,23.1209981 L16.7930804,0.620998076 Z M14.4257504,8.92198107 L4.46256293,22.5080436 L13.5026879,22.5080436 C14.4760487,22.5080436 15.1872004,23.4188911 14.9614892,24.3572952 L14.9498337,24.4027197 L12.5794379,33.0939186 L22.5424379,19.5080436 L13.5026879,19.5080436 C12.5293272,19.5080436 11.8181754,18.597196 12.0438867,17.6587919 L12.0555422,17.6133675 L14.4257504,8.92198107 Z" id="Path-37"></path>
        </g>
    </g>
</svg>