<?xml version="1.0" encoding="UTF-8"?>
<svg width="48px" height="48px" viewBox="0 0 48 48" version="1.1" xmlns="http://www.w3.org/2000/svg" xmlns:xlink="http://www.w3.org/1999/xlink">
    <title>bookmark-dark</title>
    <g id="bookmark-dark" stroke="none" stroke-width="1" fill="none" fill-rule="evenodd">
        <rect id="frame" stroke-opacity="0.01" stroke="#979797" stroke-width="0.1" x="0.05" y="0.05" width="47.9" height="47.9"></rect>
        <g id="outline" transform="translate(10.5, 7.5)" fill="#FFFFFF" fill-rule="nonzero">
            <path d="M21,33.5078259 C21,34.336253 20.3284271,35.0078464 19.5,35.0078464 C19.0674561,35.0078464 18.6559671,34.8211052 18.371135,34.4955828 L11.0644325,26.1450657 C10.791671,25.8333383 10.317849,25.8017501 10.0061215,26.0745117 L9.96966991,26.1086141 L2.62886504,34.4955828 C2.08334196,35.1190378 1.13569804,35.182214 0.512243088,34.6366909 C0.186720648,34.3518588 0,33.9403698 0,33.5078259 L0,4.5 C0,2.01471863 2.01471863,0 4.5,0 L24,0 C26.4852814,0 28.5,2.01471863 28.5,4.5 L28.5,15 C28.5,15.8284271 27.8284271,16.5 27,16.5 L24.75,16.5 C24.3357864,16.5 24,16.1642136 24,15.75 C24,15.3357864 24.3357864,15 24.75,15 L27,15 L27,4.5 C27,2.84314575 25.6568542,1.5 24,1.5 C22.3431458,1.5 21,2.84314575 21,4.5 L21,33.5078259 Z M19.5,4.5 C19.5,3.34746206 19.9332851,2.29612327 20.6458519,1.49998697 L4.5,1.49998697 C2.84314575,1.49998697 1.5,2.84314575 1.5,4.5 L1.5,33.5078259 L8.80670244,25.1573088 C8.85603553,25.1009282 8.90814346,25.0470583 8.96282824,24.9958973 L9.01836463,24.9456466 C9.95354705,24.127362 11.3750129,24.2221264 12.1932976,25.1573088 L19.5,33.5078259 L19.5,4.5 Z" id="Shape"></path>
        </g>
    </g>
</svg>