<?xml version="1.0" encoding="UTF-8"?>
<svg width="48px" height="48px" viewBox="0 0 48 48" version="1.1" xmlns="http://www.w3.org/2000/svg" xmlns:xlink="http://www.w3.org/1999/xlink">
    <title>bookmark-dark-thick</title>
    <g id="bookmark-dark-thick" stroke="none" stroke-width="1" fill="none" fill-rule="evenodd">
        <rect id="frame" stroke-opacity="0.01" stroke="#979797" stroke-width="0.1" x="0.05" y="0.05" width="47.9" height="47.9"></rect>
        <g id="thick" transform="translate(10.5, 7.5)" fill="#FFFFFF" fill-rule="nonzero">
            <path d="M21,33.5078259 C21,34.336253 20.3284271,35.0078464 19.5,35.0078464 C19.0674561,35.0078464 18.6559671,34.8211052 18.371135,34.4955828 L11.0644325,26.1450657 C10.791671,25.8333383 10.317849,25.8017501 10.0061215,26.0745117 C9.98106347,26.0964375 9.9574933,26.1200077 9.93556748,26.1450657 L2.62886504,34.4955828 C2.08334196,35.1190378 1.13569804,35.182214 0.512243088,34.6366909 C0.186720648,34.3518588 0,33.9403698 0,33.5078259 L0,4.5 C0,2.01471863 2.01471863,0 4.5,0 L22.5,0 C24.9852814,0 27,2.01471863 27,4.5 L27,15 C27,15.8284271 26.3284271,16.5 25.5,16.5 L24,16.5 L24,4.5 C24,3.68720358 23.3535304,3.02539821 22.5467211,3.00071378 L22.5,3 C21.6715729,3 21,3.67157288 21,4.5 L21,33.5078259 Z M18,4.5 C18,3.97408919 18.0902168,3.46924964 18.2560185,3 L4.5,3 C3.67157288,3 3,3.67157288 3,4.5 L3,29.5156875 L7.67783739,24.1695519 C7.76554067,24.0693196 7.85850586,23.9738486 7.95633249,23.8835394 L8.03060772,23.8167816 C9.58924509,22.4529739 11.9583549,22.6109145 13.3221626,24.1695519 L18,29.5156875 L18,4.5 Z" id="Shape"></path>
        </g>
    </g>
</svg>