<?xml version="1.0" encoding="UTF-8"?>
<svg width="48px" height="48px" viewBox="0 0 48 48" version="1.1" xmlns="http://www.w3.org/2000/svg" xmlns:xlink="http://www.w3.org/1999/xlink">
    <title>check-light</title>
    <g id="check-light" stroke="none" stroke-width="1" fill="none" fill-rule="evenodd">
        <rect id="frame" stroke-opacity="0.01" stroke="#979797" stroke-width="0.1" x="0.05" y="0.05" width="47.9" height="47.9"></rect>
        <path d="M36.837757,16.3368642 C37.7170288,17.2161359 37.7186698,18.6412102 36.8414254,19.5225047 L24.6402503,31.7800306 C22.5947151,33.8349896 19.2706078,33.8426453 17.2156388,31.7971201 L11.9029434,26.4223813 C11.0279126,25.5370909 11.0320674,24.1113309 11.912243,23.2311553 C12.7909226,22.3524756 14.2155438,22.3524756 15.0942235,23.2311553 L20.3975244,28.5344562 C20.6904176,28.8273494 21.1652913,28.8273494 21.4581845,28.5344562 L33.6557765,16.3368642 C34.5344562,15.4581845 35.9590774,15.4581845 36.837757,16.3368642 Z M35.7770968,17.3975244 C35.4842036,17.1046311 35.0093299,17.1046311 34.7164367,17.3975244 L22.5188447,29.5951163 C21.640165,30.473796 20.2155438,30.473796 19.3368642,29.5951163 L14.0335633,24.2918155 C13.7406701,23.9989223 13.2657964,23.9989223 12.9729032,24.2918155 C12.6761013,24.5886173 12.6747003,25.0693943 12.9697673,25.3679208 L18.2738533,30.73402 C19.7416883,32.1951094 22.1160507,32.189641 23.5771473,30.7218132 L35.7783253,18.4642901 C36.0720854,18.1691737 36.0715359,17.6919634 35.7770968,17.3975244 Z" id="Shape" fill="#000000" fill-rule="nonzero"></path>
    </g>
</svg>