<?xml version="1.0" encoding="UTF-8"?>
<svg width="48px" height="48px" viewBox="0 0 48 48" version="1.1" xmlns="http://www.w3.org/2000/svg" xmlns:xlink="http://www.w3.org/1999/xlink">
    <title>check-light-fill</title>
    <g id="check-light-fill" stroke="none" stroke-width="1" fill="none" fill-rule="evenodd">
        <rect id="frame" stroke-opacity="0.01" stroke="#979797" stroke-width="0.1" x="0.05" y="0.05" width="47.9" height="47.9"></rect>
        <g id="fill" transform="translate(7.5, 7.5)" fill="#000000">
            <path d="M16.5,0 C25.6126984,0 33,7.38730163 33,16.5 C33,25.6126984 25.6126984,33 16.5,33 C7.38730163,33 0,25.6126984 0,16.5 C0,7.38730163 7.38730163,0 16.5,0 Z M29.260092,8.91452923 C28.7475288,8.40196609 27.9164998,8.40196609 27.4039367,8.91452923 L14.5434321,21.7750338 C13.9576457,22.3608202 13.0078982,22.3608202 12.4221117,21.7750338 L7.11881089,16.471733 C6.53302445,15.8859465 5.58327698,15.8859465 4.99749055,16.471733 C4.41170411,17.0575194 4.41170411,18.0072669 4.99749055,18.5930533 L10.0356264,23.6311891 C11.7929857,25.3885484 14.6422281,25.3885484 16.3995874,23.6311891 L29.260092,10.7706845 C29.7726551,10.2581214 29.7726551,9.42709236 29.260092,8.91452923 Z" id="Shape"></path>
        </g>
    </g>
</svg>