<?xml version="1.0" encoding="UTF-8"?>
<svg width="48px" height="48px" viewBox="0 0 48 48" version="1.1" xmlns="http://www.w3.org/2000/svg" xmlns:xlink="http://www.w3.org/1999/xlink">
    <title>circle-arrow-dark-thick</title>
    <g id="circle-arrow-dark-thick" stroke="none" stroke-width="1" fill="none" fill-rule="evenodd">
        <rect id="frame" stroke-opacity="0.01" stroke="#979797" stroke-width="0.1" x="0.05" y="0.05" width="47.9" height="47.9"></rect>
        <path d="M24,9 C24.4307937,9 24.8573458,9.01816031 25.2789325,9.05375712 L25.4893088,9.07300522 C26.3467857,9.15752306 27.0003376,9.87865845 27.0003376,10.7402906 L27.0003376,10.8391163 C27.0003376,11.5419723 26.4305544,12.1117497 25.7276984,12.1117497 C25.6707989,12.1117497 25.6139634,12.1079337 25.5575745,12.1003275 L25.4980412,12.092595 C25.0072699,12.0314806 24.5073113,12 24,12 C17.372583,12 12,17.372583 12,24 C12,30.627417 17.372583,36 24,36 C24.5056744,36 25.0040435,35.9687222 25.4932903,35.9079956 L25.5571867,35.8997016 C26.2537183,35.8055418 26.8947004,36.2938607 26.9888601,36.9903923 C26.9964992,37.0469016 27.0003376,37.1038604 27.0003376,37.1608837 L27.0003376,37.2461858 C27.0003376,38.0997283 26.3646888,38.8165033 25.5229461,38.9230158 L25.4741585,38.9284803 C24.9891699,38.9757887 24.4974124,39 24,39 C15.7157288,39 9,32.2842712 9,24 C9,15.7157288 15.7157288,9 24,9 Z M36.1231602,16.5753788 L40.8961309,21.3483496 C42.360597,22.8128157 42.360597,25.1871843 40.8961309,26.6516504 L36.1231602,31.4246212 C35.5373737,32.0104076 34.5876263,32.0104076 34.0018398,31.4246212 C33.4160534,30.8388348 33.4160534,29.8890873 34.0018398,29.3033009 L38.7748106,24.5303301 C39.0677038,24.2374369 39.0677038,23.7625631 38.7748106,23.4696699 L34.0018398,18.6966991 C33.4160534,18.1109127 33.4160534,17.1611652 34.0018398,16.5753788 C34.5876263,15.9895924 35.5373737,15.9895924 36.1231602,16.5753788 Z M33,22.5 C33.8284271,22.5 34.5,23.1715729 34.5,24 C34.5,24.8284271 33.8284271,25.5 33,25.5 L21,25.5 C20.1715729,25.5 19.5,24.8284271 19.5,24 C19.5,23.1715729 20.1715729,22.5 21,22.5 L33,22.5 Z" id="Shape" fill="#FFFFFF" fill-rule="nonzero"></path>
    </g>
</svg>