<?xml version="1.0" encoding="UTF-8"?>
<svg width="48px" height="48px" viewBox="0 0 48 48" version="1.1" xmlns="http://www.w3.org/2000/svg" xmlns:xlink="http://www.w3.org/1999/xlink">
    <title>circle-question-mark-dark-thick</title>
    <g id="circle-question-mark-dark-thick" stroke="none" stroke-width="1" fill="none" fill-rule="evenodd">
        <rect id="frame" stroke-opacity="0.01" stroke="#979797" stroke-width="0.1" x="0.05" y="0.05" width="47.9" height="47.9"></rect>
        <g id="thick" transform="translate(6, 6)" fill="#FFFFFF" fill-rule="nonzero">
            <path d="M18,0 C27.9411255,0 36,8.0588745 36,18 C36,27.9411255 27.9411255,36 18,36 C8.0588745,36 0,27.9411255 0,18 C0,8.0588745 8.0588745,0 18,0 Z M18,3 C9.71572875,3 3,9.71572875 3,18 C3,26.2842712 9.71572875,33 18,33 C26.2842712,33 33,26.2842712 33,18 C33,9.71572875 26.2842712,3 18,3 Z M18,26.25 C19.2426407,26.25 20.25,27.2573593 20.25,28.5 C20.25,29.7426407 19.2426407,30.75 18,30.75 C16.7573593,30.75 15.75,29.7426407 15.75,28.5 C15.75,27.2573593 16.7573593,26.25 18,26.25 Z M18,5.25 C22.1421356,5.25 25.5,8.60786438 25.5,12.75 C25.5,14.9048528 24.5842755,16.9156463 23.013445,18.328186 C22.65413,18.6512933 22.2159402,18.9324569 21.6994974,19.1811482 L21.5876335,19.2339456 C20.3367271,19.8126685 19.5282321,21.0537766 19.5007248,22.4275751 L19.5,22.5 C19.5,23.3284271 18.8284271,24 18,24 C17.1715729,24 16.5,23.3284271 16.5,22.5 C16.5,19.9572579 17.9606356,17.6435571 20.2496234,16.5480865 L20.327977,16.5112143 C20.63865,16.3674827 20.8649004,16.2256797 21.0074985,16.097451 C21.9520894,15.2480455 22.5,14.044916 22.5,12.75 C22.5,10.2647186 20.4852814,8.25 18,8.25 C15.5395714,8.25 13.5403414,10.2246257 13.5006029,12.6755843 L13.5,12.75 C13.5,13.5784271 12.8284271,14.25 12,14.25 C11.1715729,14.25 10.5,13.5784271 10.5,12.75 C10.5,8.60786438 13.8578644,5.25 18,5.25 Z" id="Shape"></path>
        </g>
    </g>
</svg>