<?xml version="1.0" encoding="UTF-8"?>
<svg width="48px" height="48px" viewBox="0 0 48 48" version="1.1" xmlns="http://www.w3.org/2000/svg" xmlns:xlink="http://www.w3.org/1999/xlink">
    <title>circle-question-mark-dark-fill</title>
    <g id="circle-question-mark-dark-fill" stroke="none" stroke-width="1" fill="none" fill-rule="evenodd">
        <rect id="frame" stroke-opacity="0.01" stroke="#979797" stroke-width="0.1" x="0.05" y="0.05" width="47.9" height="47.9"></rect>
        <g id="fill" transform="translate(7.5, 7.5)" fill="#FFFFFF">
            <path d="M16.5,0 C25.6126984,0 33,7.38730163 33,16.5 C33,25.6126984 25.6126984,33 16.5,33 C7.38730163,33 0,25.6126984 0,16.5 C0,7.38730163 7.38730163,0 16.5,0 Z M16.5,24.75 C14.8431458,24.75 13.5,26.0931458 13.5,27.75 C13.5,29.4068542 14.8431458,30.75 16.5,30.75 C18.1568542,30.75 19.5,29.4068542 19.5,27.75 C19.5,26.0931458 18.1568542,24.75 16.5,24.75 Z M16.5,3.75 C12.3578644,3.75 9,7.10786438 9,11.25 C9,12.0784271 9.67157288,12.75 10.5,12.75 C11.3127964,12.75 11.9746018,12.1035304 11.9992862,11.2967211 L12.0006029,11.1755843 C12.0403414,8.72462573 14.0395714,6.75 16.5,6.75 C18.9852814,6.75 21,8.76471863 21,11.25 C21,12.544916 20.4520894,13.7480455 19.5074985,14.597451 C19.375086,14.7165205 19.1705447,14.8472944 18.8932579,14.9804485 L18.7496234,15.0480865 C16.4606356,16.1435571 15,18.4572579 15,21 C15,21.8284271 15.6715729,22.5 16.5,22.5 C17.3127964,22.5 17.9746018,21.8535304 17.9992862,21.0467211 L18.0007248,20.9275751 C18.0277495,19.5778783 18.8085992,18.356257 20.0222067,17.7650135 L20.1994974,17.6811482 C20.7159402,17.4324569 21.15413,17.1512933 21.513445,16.828186 C23.0842755,15.4156463 24,13.4048528 24,11.25 C24,7.10786438 20.6421356,3.75 16.5,3.75 Z" id="Shape"></path>
        </g>
    </g>
</svg>