<?xml version="1.0" encoding="UTF-8"?>
<svg width="48px" height="48px" viewBox="0 0 48 48" version="1.1" xmlns="http://www.w3.org/2000/svg" xmlns:xlink="http://www.w3.org/1999/xlink">
    <title>circle-question-mark-dark</title>
    <g id="circle-question-mark-dark" stroke="none" stroke-width="1" fill="none" fill-rule="evenodd">
        <rect id="frame" stroke-opacity="0.01" stroke="#979797" stroke-width="0.1" x="0.05" y="0.05" width="47.9" height="47.9"></rect>
        <g id="outline" transform="translate(7.5, 7.5)" fill="#FFFFFF" fill-rule="nonzero">
            <path d="M16.5,0 C25.6126984,0 33,7.38730163 33,16.5 C33,25.6126984 25.6126984,33 16.5,33 C7.38730163,33 0,25.6126984 0,16.5 C0,7.38730163 7.38730163,0 16.5,0 Z M16.5,1.5 C8.21572875,1.5 1.5,8.21572875 1.5,16.5 C1.5,24.7842712 8.21572875,31.5 16.5,31.5 C24.7842712,31.5 31.5,24.7842712 31.5,16.5 C31.5,8.21572875 24.7842712,1.5 16.5,1.5 Z M16.5,24.75 C18.1568542,24.75 19.5,26.0931458 19.5,27.75 C19.5,29.4068542 18.1568542,30.75 16.5,30.75 C14.8431458,30.75 13.5,29.4068542 13.5,27.75 C13.5,26.0931458 14.8431458,24.75 16.5,24.75 Z M16.5,26.25 C15.6715729,26.25 15,26.9215729 15,27.75 C15,28.5784271 15.6715729,29.25 16.5,29.25 C17.3284271,29.25 18,28.5784271 18,27.75 C18,26.9215729 17.3284271,26.25 16.5,26.25 Z M16.5,3 C21.0563492,3 24.75,6.69365081 24.75,11.25 C24.75,13.6023044 23.7554228,15.8207658 22.0149316,17.3858698 C21.6035356,17.7558099 21.1075959,18.076647 20.521063,18.3587266 L20.4025467,18.4146288 C19.414348,18.8718119 18.7749407,19.8512108 18.7507136,20.9360665 L18.75,21 C18.75,22.2426407 17.7426407,23.25 16.5,23.25 C15.2573593,23.25 14.25,22.2426407 14.25,21 C14.25,18.1662191 15.8789861,15.5878775 18.4312928,14.3689703 L18.513062,14.3305319 C18.7511226,14.2203941 18.9210521,14.1161658 19.0060119,14.0397673 C19.7999652,13.3258197 20.25,12.3221403 20.25,11.25 C20.25,9.17893219 18.5710678,7.5 16.5,7.5 C14.4505058,7.5 12.7850203,9.14413661 12.7505451,11.1854082 L12.75,11.25 C12.75,12.4926407 11.7426407,13.5 10.5,13.5 C9.25735931,13.5 8.25,12.4926407 8.25,11.25 C8.25,6.69365081 11.9436508,3 16.5,3 Z M16.5,4.5 C12.7720779,4.5 9.75,7.52207794 9.75,11.25 C9.75,11.6642136 10.0857864,12 10.5,12 C10.9142136,12 11.25,11.6642136 11.25,11.25 C11.25,8.35050506 13.6005051,6 16.5,6 C19.3994949,6 21.75,8.35050506 21.75,11.25 C21.75,12.7488566 21.1183648,14.157546 20.0089851,15.1551348 C19.8143691,15.3301396 19.5505303,15.496248 19.2254355,15.6529251 L19.1428902,15.6918976 C17.0742102,16.6489575 15.75,18.7206548 15.75,21 C15.75,21.4142136 16.0857864,21.75 16.5,21.75 C16.9142136,21.75 17.25,21.4142136 17.25,21 C17.25,19.3313101 18.204529,17.8122993 19.7021226,17.0866925 L19.7727185,17.0532632 C20.2825762,16.8173795 20.6922196,16.5580214 21.0119584,16.2705023 C22.437001,14.9890595 23.25,13.1756186 23.25,11.25 C23.25,7.52207794 20.2279221,4.5 16.5,4.5 Z" id="Shape"></path>
        </g>
    </g>
</svg>