<?xml version="1.0" encoding="UTF-8"?>
<svg width="48px" height="48px" viewBox="0 0 48 48" version="1.1" xmlns="http://www.w3.org/2000/svg" xmlns:xlink="http://www.w3.org/1999/xlink">
    <title>coin-dark-thick</title>
    <g id="coin-dark-thick" stroke="none" stroke-width="1" fill="none" fill-rule="evenodd">
        <rect id="frame" stroke-opacity="0.01" stroke="#979797" stroke-width="0.1" x="0.05" y="0.05" width="47.9" height="47.9"></rect>
        <g id="thick" transform="translate(7.5, 4.5)" fill="#FFFFFF" fill-rule="nonzero">
            <path d="M21,0 L21.000181,0.0963050877 C28.5800783,1.07477672 34.5,9.38865169 34.5,19.5 C34.5,29.6113483 28.5800783,37.9252233 21.000181,38.9036949 L21,39 L15,39 C6.71572875,39 0,30.2695526 0,19.5 C0,8.73044738 6.71572875,0 15,0 L15.1875,0.001875 L15.1875,0 L21,0 Z M15,3 C8.56995013,3 3,10.2409352 3,19.5 C3,28.7590648 8.56995013,36 15,36 C21.4300499,36 27,28.7590648 27,19.5 C27,10.2409352 21.4300499,3 15,3 Z M24.7741292,4.70757593 L24.935577,4.89077952 C28.0416935,8.46348626 30,13.6844416 30,19.5 C30,25.4157665 27.9736247,30.7162622 24.7739939,34.2924313 C28.6978348,31.6193516 31.5,26.0673224 31.5,19.5 C31.5,12.9326776 28.6978348,7.38064841 24.7741292,4.70757593 Z M15,12 C15.8284271,12 16.5,12.6715729 16.5,13.5 L16.5,25.5 C16.5,26.3284271 15.8284271,27 15,27 C14.1715729,27 13.5,26.3284271 13.5,25.5 L13.5,13.5 C13.5,12.6715729 14.1715729,12 15,12 Z" id="Shape"></path>
        </g>
    </g>
</svg>