<?xml version="1.0" encoding="UTF-8"?>
<svg width="48px" height="48px" viewBox="0 0 48 48" version="1.1" xmlns="http://www.w3.org/2000/svg" xmlns:xlink="http://www.w3.org/1999/xlink">
    <title>coin-dark-thick</title>
    <g id="coin-dark-thick" stroke="none" stroke-width="1" fill="none" fill-rule="evenodd">
        <rect id="frame" stroke-opacity="0.01" stroke="#979797" stroke-width="0.1" x="0.05" y="0.05" width="47.9" height="47.9"></rect>
        <g id="thick" transform="translate(9, 7.5)" fill="#FFFFFF" fill-rule="nonzero">
            <path d="M18,0 C25.4558441,0 31.5,7.38730163 31.5,16.5 C31.5,25.6126984 25.4558441,33 18,33 L13.5,33 C6.04415588,33 0,25.6126984 0,16.5 C0,7.38730163 6.04415588,0 13.5,0 L18,0 Z M13.5,3 C7.8487633,3 3,8.92626625 3,16.5 C3,24.0737337 7.8487633,30 13.5,30 C19.1512367,30 24,24.0737337 24,16.5 C24,8.92626625 19.1512367,3 13.5,3 Z M22.7418846,4.47251195 L22.7483428,4.4799415 C25.3656603,7.48934097 27,11.7613968 27,16.5 C27,21.2424703 25.3629916,25.5176316 22.7418846,28.5274239 C26.1154809,26.3122663 28.5,21.8112279 28.5,16.5 C28.5,11.1887721 26.1154809,6.68773371 22.7418846,4.47251195 Z M13.5,9 C14.3284271,9 15,9.67157288 15,10.5 L15,22.5 C15,23.3284271 14.3284271,24 13.5,24 C12.6715729,24 12,23.3284271 12,22.5 L12,10.5 C12,9.67157288 12.6715729,9 13.5,9 Z" id="Shape"></path>
        </g>
    </g>
</svg>