<?xml version="1.0" encoding="UTF-8"?>
<svg width="48px" height="48px" viewBox="0 0 48 48" version="1.1" xmlns="http://www.w3.org/2000/svg" xmlns:xlink="http://www.w3.org/1999/xlink">
    <title>coin-dark-fill</title>
    <g id="coin-dark-fill" stroke="none" stroke-width="1" fill="none" fill-rule="evenodd">
        <rect id="frame" stroke-opacity="0.01" stroke="#979797" stroke-width="0.1" x="0.05" y="0.05" width="47.9" height="47.9"></rect>
        <g id="fill" transform="translate(9, 7.5)" fill="#FFFFFF" fill-rule="nonzero">
            <path d="M13.5,33 C6.04415588,33 0,25.6126984 0,16.5 C0,7.38730163 6.04415588,0 13.5,0 L18,0 C25.4558441,0 31.5,7.38730163 31.5,16.5 C31.5,25.6126984 25.4558441,33 18,33 L13.5,33 Z M22.7422159,4.47275747 L22.7435302,4.47441065 C25.3636567,7.48410551 27,11.7584931 27,16.5 C27,21.2422996 25.3631095,25.5173237 22.7422159,28.5270988 C26.1156571,26.3119337 28.5,21.8110317 28.5,16.5 C28.5,11.1889683 26.1156571,6.68806627 22.7422159,4.47275747 Z M13.5,9 C12.6715729,9 12,9.67157288 12,10.5 L12,22.5 C12,23.3284271 12.6715729,24 13.5,24 C14.3284271,24 15,23.3284271 15,22.5 L15,10.5 C15,9.67157288 14.3284271,9 13.5,9 Z" id="Shape"></path>
        </g>
    </g>
</svg>