<?xml version="1.0" encoding="UTF-8"?>
<svg width="48px" height="48px" viewBox="0 0 48 48" version="1.1" xmlns="http://www.w3.org/2000/svg" xmlns:xlink="http://www.w3.org/1999/xlink">
    <title>coin-dark</title>
    <g id="coin-dark" stroke="none" stroke-width="1" fill="none" fill-rule="evenodd">
        <rect id="frame" stroke-opacity="0.01" stroke="#979797" stroke-width="0.1" x="0.05" y="0.05" width="47.9" height="47.9"></rect>
        <g id="outline" transform="translate(10.5, 9)" fill="#FFFFFF" fill-rule="nonzero">
            <path d="M12,30 L12.0000642,29.9744836 C5.30749934,29.5177994 0,22.9880955 0,15 C0,7.0119045 5.30749934,0.482200635 12.0000642,0.0255164225 L12,0 L16.5,0 L16.5002313,0.0255365892 C23.1926569,0.482392827 28.5,7.01202206 28.5,15 C28.5,22.9879779 23.1926569,29.5176072 16.5002313,29.9744634 L16.500446,29.3405478 L16.5,30 L12,30 Z M12.75,1.5 C6.59575039,1.5 1.5,7.49500046 1.5,15 C1.5,22.5049995 6.59575039,28.5 12.75,28.5 C18.9042496,28.5 24,22.5049995 24,15 C24,7.49500046 18.9042496,1.5 12.75,1.5 Z M19.5015126,2.27348515 L19.632464,2.37092822 C23.1618519,5.03860781 25.5,9.6980664 25.5,15 C25.5,20.3672178 23.1039169,25.0760412 19.5015126,27.7267069 C23.8448336,25.8760735 27,20.9055144 27,15 C27,9.09448565 23.8448336,4.1239265 19.5015126,2.27348515 Z M12,8.25 C12.4142136,8.25 12.75,8.58578644 12.75,9 L12.75,21 C12.75,21.4142136 12.4142136,21.75 12,21.75 C11.5857864,21.75 11.25,21.4142136 11.25,21 L11.25,9 C11.25,8.58578644 11.5857864,8.25 12,8.25 Z" id="Shape"></path>
        </g>
    </g>
</svg>