<?xml version="1.0" encoding="UTF-8"?>
<svg width="48px" height="48px" viewBox="0 0 48 48" version="1.1" xmlns="http://www.w3.org/2000/svg" xmlns:xlink="http://www.w3.org/1999/xlink">
    <title>coin-dark-fill</title>
    <g id="coin-dark-fill" stroke="none" stroke-width="1" fill="none" fill-rule="evenodd">
        <rect id="frame" stroke-opacity="0.01" stroke="#979797" stroke-width="0.1" x="0.05" y="0.05" width="47.9" height="47.9"></rect>
        <g id="fill" transform="translate(7.5, 4.5)" fill="#FFFFFF">
            <path d="M21,0 L21.000181,0.0963050877 C28.5800783,1.07477672 34.5,9.38865169 34.5,19.5 C34.5,29.6113483 28.5800783,37.9252233 21.000181,38.9036949 L21,39 L15,39 C6.71572875,39 0,30.2695526 0,19.5 C0,8.73044738 6.71572875,0 15,0 C15.0626536,0 15.1252174,0.000499366348 15.1876893,0.00149520445 L21,0 Z M15,12 C14.1715729,12 13.5,12.6715729 13.5,13.5 L13.5,25.5 C13.5,26.3284271 14.1715729,27 15,27 C15.8284271,27 16.5,26.3284271 16.5,25.5 L16.5,13.5 C16.5,12.6715729 15.8284271,12 15,12 Z" id="Shape"></path>
        </g>
    </g>
</svg>