<?xml version="1.0" encoding="UTF-8"?>
<svg width="48px" height="48px" viewBox="0 0 48 48" version="1.1" xmlns="http://www.w3.org/2000/svg" xmlns:xlink="http://www.w3.org/1999/xlink">
    <title>coin-dark</title>
    <g id="coin-dark" stroke="none" stroke-width="1" fill="none" fill-rule="evenodd">
        <rect id="frame" stroke-opacity="0.01" stroke="#979797" stroke-width="0.1" x="0.05" y="0.05" width="47.9" height="47.9"></rect>
        <g id="outline" transform="translate(7.5, 4.5)" fill="#FFFFFF" fill-rule="nonzero">
            <path d="M18.1875,0 L18.1875,0.001875 L18.2480524,0.00261244287 C26.4179142,0.174812858 33,8.83814291 33,19.5 C33,30.2695526 26.2842712,39 18,39 L15,39 C6.71572875,39 0,30.2695526 0,19.5 C0,8.73044738 6.71572875,0 15,0 L15.1875,0.001875 L15.1875,0 L18.1875,0 Z M15,1.5 C7.64283944,1.5 1.5,9.48569127 1.5,19.5 C1.5,29.5143087 7.64283944,37.5 15,37.5 C22.3571606,37.5 28.5,29.5143087 28.5,19.5 C28.5,9.48569127 22.3571606,1.5 15,1.5 Z M22.2297142,2.41087642 L22.3023811,2.46273154 C26.894647,5.7962907 30,12.1767042 30,19.5 C30,26.8617726 26.86193,33.2707291 22.2298745,36.5895597 C27.5688599,34.2241056 31.5,27.5111646 31.5,19.5 C31.5,11.4888354 27.5688599,4.77589441 22.2297142,2.41087642 Z M15,12.75 C15.4142136,12.75 15.75,13.0857864 15.75,13.5 L15.75,25.5 C15.75,25.9142136 15.4142136,26.25 15,26.25 C14.5857864,26.25 14.25,25.9142136 14.25,25.5 L14.25,13.5 C14.25,13.0857864 14.5857864,12.75 15,12.75 Z" id="Shape"></path>
        </g>
    </g>
</svg>