<?xml version="1.0" encoding="UTF-8"?>
<svg width="48px" height="48px" viewBox="0 0 48 48" version="1.1" xmlns="http://www.w3.org/2000/svg" xmlns:xlink="http://www.w3.org/1999/xlink">
    <title>ellipsis-dark-fill</title>
    <g id="ellipsis-dark-fill" stroke="none" stroke-width="1" fill="none" fill-rule="evenodd">
        <rect id="frame" stroke-opacity="0.01" stroke="#979797" stroke-width="0.1" x="0.05" y="0.05" width="47.9" height="47.9"></rect>
        <g id="fill" transform="translate(7.5, 7.5)" fill="#FFFFFF">
            <path d="M16.5,0 C25.6126984,0 33,7.38730163 33,16.5 C33,25.6126984 25.6126984,33 16.5,33 C7.38730163,33 0,25.6126984 0,16.5 C0,7.38730163 7.38730163,0 16.5,0 Z M7.5,13.5 C5.84314575,13.5 4.5,14.8431458 4.5,16.5 C4.5,18.1568542 5.84314575,19.5 7.5,19.5 C9.15685425,19.5 10.5,18.1568542 10.5,16.5 C10.5,14.8431458 9.15685425,13.5 7.5,13.5 Z M16.5,13.5 C14.8431458,13.5 13.5,14.8431458 13.5,16.5 C13.5,18.1568542 14.8431458,19.5 16.5,19.5 C18.1568542,19.5 19.5,18.1568542 19.5,16.5 C19.5,14.8431458 18.1568542,13.5 16.5,13.5 Z M25.5,13.5 C23.8431458,13.5 22.5,14.8431458 22.5,16.5 C22.5,18.1568542 23.8431458,19.5 25.5,19.5 C27.1568542,19.5 28.5,18.1568542 28.5,16.5 C28.5,14.8431458 27.1568542,13.5 25.5,13.5 Z" id="Combined-Shape"></path>
        </g>
    </g>
</svg>