<?xml version="1.0" encoding="UTF-8"?>
<svg width="48px" height="48px" viewBox="0 0 48 48" version="1.1" xmlns="http://www.w3.org/2000/svg" xmlns:xlink="http://www.w3.org/1999/xlink">
    <title>envelop-dark</title>
    <g id="envelop-dark" stroke="none" stroke-width="1" fill="none" fill-rule="evenodd">
        <rect id="frame" stroke-opacity="0.01" stroke="#979797" stroke-width="0.1" x="0.05" y="0.05" width="47.9" height="47.9"></rect>
        <g id="outline" transform="translate(6, 12)" fill="#FFFFFF" fill-rule="nonzero">
            <path d="M31.5,0 C33.9852814,0 36,2.01471863 36,4.5 L36,19.5 C36,21.9852814 33.9852814,24 31.5,24 L4.5,24 C2.01471863,24 0,21.9852814 0,19.5 L0,4.5 C0,2.01471863 2.01471863,0 4.5,0 L31.5,0 Z M34.0779306,2.96473385 L20.515925,15.2351014 C19.0875701,16.5274225 16.9124299,16.5274225 15.484075,15.2351014 L1.92206937,2.96473385 C1.65401375,3.41386949 1.5,3.93894883 1.5,4.5 L1.5,19.5 C1.5,20.0563549 1.65144618,20.5773376 1.91536206,21.0239717 L9.96966991,12.9696699 L11.0303301,14.0303301 L2.97602831,22.0846379 C3.4226624,22.3485538 3.94364512,22.5 4.5,22.5 L31.5,22.5 C32.0563549,22.5 32.5773376,22.3485538 33.0239717,22.0846379 L24.9696699,14.0303301 L26.0303301,12.9696699 L34.0846379,21.0239717 C34.3485538,20.5773376 34.5,20.0563549 34.5,19.5 L34.5,4.5 C34.5,3.96700138 34.3610026,3.46646735 34.1172787,3.03266878 L34.0779306,2.96473385 Z M31.5,1.5 L4.5,1.5 C3.94918492,1.5 3.43304107,1.64844521 2.98939219,1.90751189 L16.490445,14.1227977 C17.347458,14.8981904 18.652542,14.8981904 19.509555,14.1227977 L33.0106078,1.90751189 C32.5669589,1.64844521 32.0508151,1.5 31.5,1.5 Z" id="Shape"></path>
        </g>
    </g>
</svg>