<?xml version="1.0" encoding="UTF-8"?>
<svg width="48px" height="48px" viewBox="0 0 48 48" version="1.1" xmlns="http://www.w3.org/2000/svg" xmlns:xlink="http://www.w3.org/1999/xlink">
    <title>envelop-check-dark-fill</title>
    <g id="envelop-check-dark-fill" stroke="none" stroke-width="1" fill="none" fill-rule="evenodd">
        <rect id="frame" stroke-opacity="0.01" stroke="#979797" stroke-width="0.1" x="0.05" y="0.05" width="47.9" height="47.9"></rect>
        <g id="fill" transform="translate(4.5, 10.5)" fill="#FFFFFF">
            <path d="M30.75,15 C36.1347763,15 40.5,19.3652237 40.5,24.75 C40.5,30.1347763 36.1347763,34.5 30.75,34.5 C25.3652237,34.5 21,30.1347763 21,24.75 C21,19.3652237 25.3652237,15 30.75,15 Z M35.4841383,21.2706845 L29.584216,27.1706067 C29.2913228,27.4635 28.8164491,27.4635 28.5235559,27.1706067 L26.4022355,25.0492864 C25.8164491,24.4635 24.8667016,24.4635 24.2809152,25.0492864 C23.6951287,25.6350728 23.6951287,26.5848203 24.2809152,27.1706067 L26.0707792,28.9604708 C27.6450803,30.5347718 30.1975266,30.5347718 31.7718277,28.9604708 L37.4728761,23.2594223 C38.0220509,22.7102476 38.0220509,21.8198593 37.4728761,21.2706845 C36.9237013,20.7215097 36.033313,20.7215097 35.4841383,21.2706845 Z M0.842534279,2.93215764 L16.4592392,17.2474885 C17.3658444,18.0785432 18.5279723,18.4716658 19.6763227,18.4268561 C18.6095818,20.2901999 18,22.4489122 18,24.75 C18,25.517767 18.0678617,26.269684 18.197914,27.0000802 L6,27.0000802 C2.6862915,27.0000802 0,24.3137085 0,21 L0,6 C0,4.87901753 0.307412963,3.82983521 0.842534279,2.93215764 Z M33,0 C34.1032471,0 35.1369481,0.297762598 36.0251218,0.817306728 L20.5135869,15.0360261 C19.9401051,15.5617178 19.0598949,15.5617178 18.4864131,15.0360261 L2.97487823,0.817306728 C3.86305193,0.297762598 4.89675287,0 6,0 L33,0 Z M38.1574657,2.93215764 C38.692587,3.82983521 39,4.87901753 39,6 L39.0003286,15.0288277 C36.7766231,13.139714 33.8964088,12 30.75,12 C29.7778952,12 28.8311999,12.1087907 27.9214249,12.3148612 L38.1574657,2.93215764 Z" id="Shape"></path>
        </g>
    </g>
</svg>