<?xml version="1.0" encoding="UTF-8"?>
<svg width="48px" height="48px" viewBox="0 0 48 48" version="1.1" xmlns="http://www.w3.org/2000/svg" xmlns:xlink="http://www.w3.org/1999/xlink">
    <title>envelop-light-fill</title>
    <g id="envelop-light-fill" stroke="none" stroke-width="1" fill="none" fill-rule="evenodd">
        <rect id="frame" stroke-opacity="0.01" stroke="#979797" stroke-width="0.1" x="0.05" y="0.05" width="47.9" height="47.9"></rect>
        <g id="fill" transform="translate(4.5, 10.5)" fill="#000000">
            <path d="M39,6 L39,21 C39,22.1127371 38.6970928,23.1547264 38.169237,24.0480092 L32.1213203,18 C31.5355339,17.4142136 30.5857864,17.4142136 30,18 C29.4142136,18.5857864 29.4142136,19.5355339 30,20.1213203 L36.0480092,26.169237 C35.1547264,26.6970928 34.1127371,27 33,27 L6,27 C4.88726291,27 3.8452736,26.6970928 2.95199078,26.169237 L9,20.1213203 C9.58578644,19.5355339 9.58578644,18.5857864 9,18 C8.41421356,17.4142136 7.46446609,17.4142136 6.87867966,18 L0.830763028,24.0480092 C0.302907247,23.1547264 0,22.1127371 0,21 L0,6 C0,4.87901753 0.307412963,3.82983521 0.842534279,2.93215764 L16.4592392,17.2474885 C18.1796848,18.8245636 20.8203152,18.8245636 22.5407608,17.2474885 L38.1574657,2.93215764 C38.692587,3.82983521 39,4.87901753 39,6 Z M33,0 C34.1032471,0 35.1369481,0.297762598 36.0251218,0.817306728 L20.5135869,15.0360261 C19.9401051,15.5617178 19.0598949,15.5617178 18.4864131,15.0360261 L2.97487823,0.817306728 C3.86305193,0.297762598 4.89675287,0 6,0 L33,0 Z" id="Shape"></path>
        </g>
    </g>
</svg>