<?xml version="1.0" encoding="UTF-8"?>
<svg width="48px" height="48px" viewBox="0 0 48 48" version="1.1" xmlns="http://www.w3.org/2000/svg" xmlns:xlink="http://www.w3.org/1999/xlink">
    <title>evelop-dark-thick</title>
    <g id="evelop-dark-thick" stroke="none" stroke-width="1" fill="none" fill-rule="evenodd">
        <rect id="frame" stroke-opacity="0.01" stroke="#979797" stroke-width="0.1" x="0.05" y="0.05" width="47.9" height="47.9"></rect>
        <g id="thick" transform="translate(4.5, 10.5)" fill="#FFFFFF" fill-rule="nonzero">
            <path d="M33,0 C36.3137085,0 39,2.6862915 39,6 L39,21 C39,24.3137085 36.3137085,27 33,27 L6,27 C2.6862915,27 0,24.3137085 0,21 L0,6 C0,2.6862915 2.6862915,0 6,0 L33,0 Z M35.8751383,5.14074979 L22.5270276,17.2753479 C20.8106321,18.8357075 18.1893679,18.8357075 16.4729724,17.2753479 L3.12486175,5.14074979 C3.04362951,5.41295845 3,5.70138412 3,6 L3,21 C3,21.2687542 3.03533987,21.5292543 3.1016261,21.7771068 L9.43933983,15.4393398 L11.5606602,17.5606602 L5.2228932,23.8983739 C5.47074572,23.9646601 5.73124582,24 6,24 L33,24 C33.2687542,24 33.5292543,23.9646601 33.7771068,23.8983739 L27.4393398,17.5606602 L29.5606602,15.4393398 L35.8983739,21.7771068 C35.9646601,21.5292543 36,21.2687542 36,21 L36,6 C36,5.73456366 35.9655273,5.47717885 35.9008147,5.23207837 L35.8751383,5.14074979 Z M33,3 L6,3 C5.76471065,3 5.53574778,3.02708689 5.31605957,3.07831248 L18.4909908,15.0555277 C19.0631226,15.5756476 19.9368774,15.5756476 20.5090092,15.0555277 L33.6839404,3.07831248 C33.4642522,3.02708689 33.2352894,3 33,3 Z" id="Shape"></path>
        </g>
    </g>
</svg>