<?xml version="1.0" encoding="UTF-8"?>
<svg width="48px" height="48px" viewBox="0 0 48 48" version="1.1" xmlns="http://www.w3.org/2000/svg" xmlns:xlink="http://www.w3.org/1999/xlink">
    <title>envelop-check-dark-thick</title>
    <g id="envelop-check-dark-thick" stroke="none" stroke-width="1" fill="none" fill-rule="evenodd">
        <rect id="frame" stroke-opacity="0.01" stroke="#979797" stroke-width="0.1" x="0.05" y="0.05" width="47.9" height="47.9"></rect>
        <g id="thick" transform="translate(4.5, 10.5)" fill="#FFFFFF" fill-rule="nonzero">
            <path d="M30.75,15 C36.1347763,15 40.5,19.3652237 40.5,24.75 C40.5,30.1347763 36.1347763,34.5 30.75,34.5 C25.3652237,34.5 21,30.1347763 21,24.75 C21,19.3652237 25.3652237,15 30.75,15 Z M35.4841383,21.2706845 L29.584216,27.1706067 C29.2913228,27.4635 28.8164491,27.4635 28.5235559,27.1706067 L26.4022355,25.0492864 C25.8164491,24.4635 24.8667016,24.4635 24.2809152,25.0492864 C23.6951287,25.6350728 23.6951287,26.5848203 24.2809152,27.1706067 L26.0707792,28.9604708 C27.6450803,30.5347718 30.1975266,30.5347718 31.7718277,28.9604708 L37.4728761,23.2594223 C38.0220509,22.7102476 38.0220509,21.8198593 37.4728761,21.2706845 C36.9237013,20.7215097 36.033313,20.7215097 35.4841383,21.2706845 Z M33,0 C36.3137085,0 39.0002183,2.6862915 39.0002183,6 L39.0002183,13.1298115 C38.075943,12.4723996 37.0698694,11.9225022 36.0002404,11.4983622 L36,6 C36,5.70138412 35.9563705,5.41295845 35.8751383,5.14074979 L22.5270276,17.2753479 C20.8106321,18.8357075 18.1893679,18.8357075 16.4729724,17.2753479 L3.12486175,5.14074979 C3.04362951,5.41295845 3,5.70138412 3,6 L3,21 C3,21.2687542 3.03533987,21.5292543 3.1016261,21.7771068 L9.43933983,15.4393398 L11.5606602,17.5606602 L5.2228932,23.8983739 C5.47074572,23.9646601 5.73124582,24 6,24 L16.5193961,24.0000381 C16.5065186,24.2483964 16.5,24.498437 16.5,24.75 C16.5,25.5156842 16.5603893,26.2672638 16.676665,27.0002356 L6,27.0002356 C2.6862915,27.0002356 0,24.3137085 0,21 L0,6 C0,2.6862915 2.6862915,0 6,0 L33,0 Z M33,3 L6,3 C5.76471065,3 5.53574778,3.02708689 5.31605957,3.07831248 L18.4909908,15.0555277 C19.0631226,15.5756476 19.9368774,15.5756476 20.5090092,15.0555277 L33.6839404,3.07831248 C33.4642522,3.02708689 33.2352894,3 33,3 Z" id="Shape"></path>
        </g>
    </g>
</svg>