<?xml version="1.0" encoding="UTF-8"?>
<svg width="48px" height="48px" viewBox="0 0 48 48" version="1.1" xmlns="http://www.w3.org/2000/svg" xmlns:xlink="http://www.w3.org/1999/xlink">
    <title>envelop-check-dark</title>
    <g id="envelop-check-dark" stroke="none" stroke-width="1" fill="none" fill-rule="evenodd">
        <rect id="frame" stroke-opacity="0.01" stroke="#979797" stroke-width="0.1" x="0.05" y="0.05" width="47.9" height="47.9"></rect>
        <g id="outline" transform="translate(6, 12)" fill="#FFFFFF" fill-rule="nonzero">
            <path d="M29.25,13.5 C34.6347763,13.5 39,17.8652237 39,23.25 C39,28.6347763 34.6347763,33 29.25,33 C23.8652237,33 19.5,28.6347763 19.5,23.25 C19.5,17.8652237 23.8652237,13.5 29.25,13.5 Z M29.25,15 C24.6936508,15 21,18.6936508 21,23.25 C21,27.8063492 24.6936508,31.5 29.25,31.5 C33.8063492,31.5 37.5,27.8063492 37.5,23.25 C37.5,18.6936508 33.8063492,15 29.25,15 Z M35.817546,19.9260146 C36.0738276,20.1822962 36.0738276,20.5978107 35.817546,20.8540923 L30.1164976,26.5551407 C28.8350897,27.8365485 26.7575171,27.8365485 25.4761093,26.5551407 L23.6862453,24.7652766 C23.3933521,24.4723834 23.3933521,23.9975097 23.6862453,23.7046165 C23.9791385,23.4117233 24.4540122,23.4117233 24.7469054,23.7046165 L26.8682258,25.8259368 C27.4540122,26.4117233 28.4037597,26.4117233 28.9895461,25.8259368 L34.8894683,19.9260146 C35.1457499,19.669733 35.5612644,19.669733 35.817546,19.9260146 Z M31.5,0 C33.9852814,0 36.0002329,2.01471863 36.0002329,4.5 L36.0002329,12.4314759 C35.520669,12.1316184 35.0197331,11.8627623 34.5002317,11.6277138 L34.5,4.5 C34.5,3.93894883 34.3459863,3.41386949 34.0779306,2.96473385 L20.515925,15.2351014 C19.0875701,16.5274225 16.9124299,16.5274225 15.484075,15.2351014 L1.92206937,2.96473385 C1.65401375,3.41386949 1.5,3.93894883 1.5,4.5 L1.5,19.5 C1.5,20.0563549 1.65144618,20.5773376 1.91536206,21.0239717 L9.96966991,12.9696699 L11.0303301,14.0303301 L2.97602831,22.0846379 C3.4226624,22.3485538 3.94364512,22.5 4.5,22.5 L16.521689,22.5000642 C16.5072963,22.7482054 16.5,22.9982506 16.5,23.25 C16.5,23.5018128 16.5073,23.7519205 16.5216998,24.0001232 L4.5,24.0001232 C2.01471863,24.0001232 0,21.9852814 0,19.5 L0,4.5 C0,2.01471863 2.01471863,0 4.5,0 L31.5,0 Z M31.5,1.5 L4.5,1.5 C3.94918492,1.5 3.43304107,1.64844521 2.98939219,1.90751189 L16.490445,14.1227977 C17.347458,14.8981904 18.652542,14.8981904 19.509555,14.1227977 L33.0106078,1.90751189 C32.5669589,1.64844521 32.0508151,1.5 31.5,1.5 Z" id="Shape"></path>
        </g>
    </g>
</svg>