<?xml version="1.0" encoding="UTF-8"?>
<svg width="48px" height="48px" viewBox="0 0 48 48" version="1.1" xmlns="http://www.w3.org/2000/svg" xmlns:xlink="http://www.w3.org/1999/xlink">
    <title>eye-slash-dark</title>
    <g id="eye-slash-dark" stroke="none" stroke-width="1" fill="none" fill-rule="evenodd">
        <rect id="frame" stroke-opacity="0.01" stroke="#979797" stroke-width="0.1" x="0.05" y="0.05" width="47.9" height="47.9"></rect>
        <g id="outline" transform="translate(3.8286, 6.75)" fill="#FFFFFF" fill-rule="nonzero">
            <path d="M4.20170371,0.219669914 L37.2017037,33.2196699 C37.4945969,33.5125631 37.4945969,33.9874369 37.2017037,34.2803301 C36.9088105,34.5732233 36.4339368,34.5732233 36.1410435,34.2803301 L29.2216267,27.3608718 C26.3622974,28.620288 23.3455495,29.25 20.1713736,29.25 C12.8434928,29.25 6.35464062,25.8938851 0.704817198,19.1816554 C-0.234919727,18.0653075 -0.234919727,16.4346925 0.704701167,15.318247 C3.49515128,12.0031902 6.49023534,9.50675874 9.68996734,7.82896422 L3.14104354,1.28033009 C2.84815032,0.987436867 2.84815032,0.512563133 3.14104354,0.219669914 C3.43393676,-0.0732233047 3.90881049,-0.0732233047 4.20170371,0.219669914 Z M9.62477883,9.57564725 C6.93696435,11.1179433 4.39546065,13.295722 1.99353043,16.1175569 L1.84774862,16.289625 L1.81880541,16.3254204 C1.39371219,16.8680508 1.39371219,17.6319492 1.81880541,18.1745796 L1.85240135,18.2157099 C7.17673764,24.5412472 13.1893814,27.6867784 19.9657939,27.7490564 L20.1713736,27.75 C22.9312046,27.75 25.5648061,27.2410672 28.0772416,26.2167154 L25.3503441,23.4896523 C23.8001953,24.2949393 22.038927,24.75 20.1713736,24.75 C13.9581702,24.75 8.92137362,19.7132034 8.92137362,13.5 C8.92137362,12.1197162 9.16995012,10.7974905 9.62477883,9.57564725 Z M20.1713736,5.25 C27.4992545,5.25 33.9881066,8.60611487 39.6379301,15.3183446 C40.577667,16.4346925 40.577667,18.0653075 39.6380461,19.181753 C37.5966812,21.6068959 35.4458022,23.5939342 33.1854035,25.1428632 L32.1055644,24.0631183 C34.3363836,22.5714092 36.4632752,20.6241069 38.4904039,18.2158765 C38.9487556,17.6712689 38.9599349,16.8819644 38.5239418,16.3254204 L38.4903459,16.2842901 C36.0468997,13.3813724 33.4584905,11.148189 30.7178249,9.5753886 L30.7210906,9.58404489 C31.1739346,10.803548 31.4213736,12.1228778 31.4213736,13.5 C31.4213736,16.257462 30.4293035,18.7832137 28.7826162,20.7398022 L27.7173543,19.674655 C29.094811,17.9932697 29.9213736,15.8431619 29.9213736,13.5 C29.9213736,11.6608378 29.4121469,9.94061194 28.5269965,8.47262545 C25.9416348,7.34866274 23.2268381,6.77713519 20.3769533,6.75094356 L20.1713736,6.75 C18.5168412,6.75 16.9076788,6.93291357 15.3427955,7.30013942 L14.1102956,6.06785139 C16.0625023,5.52261788 18.0828607,5.25 20.1713736,5.25 Z M10.4213736,13.5 C10.4213736,18.8847763 14.7865973,23.25 20.1713736,23.25 C21.6193101,23.25 22.9935286,22.9343759 24.2289819,22.3681749 L11.303151,9.44241266 C10.7369829,10.6779098 10.4213736,12.0520976 10.4213736,13.5 Z M20.1713736,9.75 C21.8282279,9.75 23.1713736,11.0931458 23.1713736,12.75 C23.1713736,13.4199657 22.9517598,14.0386378 22.5805942,14.5379544 L21.4964373,13.4536335 C21.6080996,13.2437912 21.6713736,13.0042848 21.6713736,12.75 C21.6713736,11.9215729 20.9998007,11.25 20.1713736,11.25 C19.9170333,11.25 19.6774779,11.3133016 19.4676027,11.4250095 L18.3834192,10.3407794 C18.8827358,9.96961381 19.5014079,9.75 20.1713736,9.75 Z" id="Shape"></path>
        </g>
    </g>
</svg>