<?xml version="1.0" encoding="UTF-8"?>
<svg width="48px" height="48px" viewBox="0 0 48 48" version="1.1" xmlns="http://www.w3.org/2000/svg" xmlns:xlink="http://www.w3.org/1999/xlink">
    <title>eye-slash-dark-fill</title>
    <g id="eye-slash-dark-fill" stroke="none" stroke-width="1" fill="none" fill-rule="evenodd">
        <rect id="frame" stroke-opacity="0.01" stroke="#979797" stroke-width="0.1" x="0.05" y="0.05" width="47.9" height="47.9"></rect>
        <g id="fill" transform="translate(3.7099, 6)" fill="#FFFFFF">
            <path d="M4.85074459,0.439339828 L37.8507446,33.4393398 C38.436531,34.0251263 38.436531,34.9748737 37.8507446,35.5606602 C37.2649582,36.1464466 36.3152107,36.1464466 35.7294242,35.5606602 L29.56791,29.3991623 C26.8167687,30.770094 23.9002157,31.4700599 20.8182509,31.4990599 L20.6182094,31.5 C13.9496373,31.5 7.89990843,28.3732134 2.46902271,22.1196403 L2.30463983,21.929181 C1.86791021,21.4200425 1.30094955,20.70283 0.603757852,19.7775435 C-0.191662725,18.721436 -0.20210942,17.2691111 0.578176405,16.2017729 L0.805672873,15.8921111 C1.42465511,15.0535142 1.93570729,14.39471 2.33899513,13.9158196 C4.27914094,11.6119637 6.31323773,9.73088705 8.44128548,8.27258981 L2.72942425,2.56066017 C2.14363781,1.97487373 2.14363781,1.02512627 2.72942425,0.439339828 C3.31521069,-0.146446609 4.26495815,-0.146446609 4.85074459,0.439339828 Z M20.2900844,4.5 C26.9457558,4.5 32.9092715,7.61470043 38.1806316,13.8441013 L38.340158,14.0338244 C38.7776464,14.5574351 39.3466466,15.2998816 40.0471587,16.261164 C40.804768,17.3005047 40.8153386,18.7071356 40.0736125,19.7578703 L39.8480211,20.0758656 C39.2342339,20.9368128 38.7275733,21.6113178 38.3280172,22.0993649 C37.1142669,23.5819284 35.8572855,24.8891318 34.557073,26.0209751 L29.1592212,20.6228539 C30.1919565,18.9972832 30.7900844,17.0684917 30.7900844,15 C30.7900844,13.2800921 30.3765641,11.656767 29.6435231,10.2240245 C26.6948156,8.39470635 23.5858662,7.5 20.2900844,7.5 C18.984511,7.5 17.7083166,7.64037751 16.4598246,7.92361393 L14.022552,5.48618124 C15.9763818,4.84904205 17.9988174,4.52062883 20.0898587,4.50094158 L20.2900844,4.5 Z M9.79008442,15 C9.79008442,20.7989899 14.4910945,25.5 20.2900844,25.5 C21.8652523,25.5 23.3594093,25.1531512 24.7003464,24.5316626 L10.7584852,10.5897335 C10.1369175,11.9307426 9.79008442,13.4248677 9.79008442,15 Z M20.5473035,12.0108727 C21.9989884,12.1341427 23.1559829,13.2911597 23.2792179,14.7428546 L20.5473035,12.0108727 Z" id="Shape"></path>
        </g>
    </g>
</svg>