<?xml version="1.0" encoding="UTF-8"?>
<svg width="48px" height="48px" viewBox="0 0 48 48" version="1.1" xmlns="http://www.w3.org/2000/svg" xmlns:xlink="http://www.w3.org/1999/xlink">
    <title>eye-slash-dark-thick</title>
    <g id="eye-slash-dark-thick" stroke="none" stroke-width="1" fill="none" fill-rule="evenodd">
        <rect id="frame" stroke-opacity="0.01" stroke="#979797" stroke-width="0.1" x="0.05" y="0.05" width="47.9" height="47.9"></rect>
        <g id="thick" transform="translate(3.7099, 6)" fill="#FFFFFF" fill-rule="nonzero">
            <path d="M4.85074459,0.439339828 L37.8507446,33.4393398 C38.436531,34.0251263 38.436531,34.9748737 37.8507446,35.5606602 C37.2649582,36.1464466 36.3152107,36.1464466 35.7294242,35.5606602 L29.5677211,29.3992564 C26.7571811,30.7997521 23.7740105,31.5 20.6182094,31.5 C13.9496373,31.5 7.89990843,28.3732134 2.46902271,22.1196403 L2.30463983,21.929181 C1.86791021,21.4200425 1.30094955,20.70283 0.603757852,19.7775435 C-0.191662725,18.721436 -0.20210942,17.2691111 0.578176405,16.2017729 L0.805672873,15.8921111 C1.42465511,15.0535142 1.93570729,14.39471 2.33899513,13.9158196 C4.27913948,11.6119654 6.31323466,9.73088988 8.44128067,8.2725931 L2.72942425,2.56066017 C2.14363781,1.97487373 2.14363781,1.02512627 2.72942425,0.439339828 C3.31521069,-0.146446609 4.26495815,-0.146446609 4.85074459,0.439339828 Z M9.44798504,11.2374341 C7.84744705,12.4249294 6.294482,13.9003362 4.78455081,15.6702831 L4.63370097,15.8482598 C4.37396454,16.1566879 4.05182257,16.5648693 3.67040111,17.0696054 L3.47225728,17.3333613 L3.28926998,17.579464 C3.19583665,17.7056916 3.09950152,17.8366756 3.0002993,17.9723804 L3.21352469,18.2547328 C3.707473,18.9046526 4.12065298,19.4275277 4.44822433,19.8184601 L4.58169082,19.9759685 C9.51652603,25.7289891 14.8187996,28.5 20.6182094,28.5 C22.951994,28.5 25.1786282,28.0515772 27.3086889,27.140119 L24.7499573,24.5813406 C23.3825211,25.1724391 21.8745557,25.5 20.2900844,25.5 C14.076881,25.5 9.04008442,20.4632034 9.04008442,14.25 C9.04008442,13.2065356 9.18214661,12.1962517 9.44798504,11.2374341 Z M20.2900844,4.5 C26.9457558,4.5 32.9092715,7.61470043 38.1806316,13.8441013 L38.340158,14.0338244 C38.7776464,14.5574351 39.3466466,15.2998816 40.0471587,16.261164 C40.804768,17.3005047 40.8153386,18.7071356 40.0736125,19.7578703 L39.8480211,20.0758656 C39.2342339,20.9368128 38.7275733,21.6113178 38.3280172,22.0993649 C37.1142619,23.5819345 35.857275,24.8891427 34.5570567,26.0209893 L32.4310077,23.8950051 C33.6025184,22.8921623 34.7431986,21.7224065 35.85525,20.3826956 L36.0067162,20.198954 C36.3742485,19.7500231 36.8700276,19.0880331 37.4842932,18.2232744 L37.6225844,18.0279375 L37.5519092,17.9310761 C36.9434267,17.0984562 36.4499059,16.4544034 36.0800954,16.0079826 L36.0379744,15.9573501 C34.4520624,14.0592415 32.8185218,12.4884972 31.1321094,11.2372229 L31.1574598,11.3301467 C31.4070172,12.2613002 31.5400844,13.2401104 31.5400844,14.25 C31.5400844,16.7196032 30.7443326,19.0033486 29.3952477,20.8588176 L27.2373916,18.7013074 C28.0618968,17.4171384 28.5400844,15.8894125 28.5400844,14.25 C28.5400844,12.0446728 27.674782,10.0414477 26.2651739,8.5613217 C24.3421333,7.85042812 22.352697,7.5 20.2900844,7.5 C18.9845061,7.5 17.708307,7.64037857 16.4598105,7.92361713 L14.0226622,5.4861453 C16.0387552,4.8287151 18.1278959,4.5 20.2900844,4.5 Z M12.0400844,14.25 C12.0400844,18.8063492 15.7337352,22.5 20.2900844,22.5 C21.0183686,22.5 21.724612,22.4056322 22.397254,22.2284574 L12.3116198,12.1428778 C12.1344474,12.8155082 12.0400844,13.5217343 12.0400844,14.25 Z M20.2900844,10.5 C21.9469387,10.5 23.2900844,11.8431458 23.2900844,13.5 C23.2900844,13.8734921 23.2218321,14.231043 23.0971196,14.5608607 L19.2292117,10.6929694 C19.5590327,10.568254 19.9165878,10.5 20.2900844,10.5 Z" id="Shape"></path>
        </g>
    </g>
</svg>