<?xml version="1.0" encoding="UTF-8"?>
<svg width="48px" height="48px" viewBox="0 0 48 48" version="1.1" xmlns="http://www.w3.org/2000/svg" xmlns:xlink="http://www.w3.org/1999/xlink">
    <title>flag-dark-thick</title>
    <g id="flag-dark-thick" stroke="none" stroke-width="1" fill="none" fill-rule="evenodd">
        <rect id="frame" stroke-opacity="0.01" stroke="#979797" stroke-width="0.1" x="0.05" y="0.05" width="47.9" height="47.9"></rect>
        <g id="thick" transform="translate(10.5, 3)" fill="#FFFFFF" fill-rule="nonzero">
            <path d="M1.5,0 C2.32842712,0 3,0.671572875 3,1.5 L3,5.299875 L6.02428557,6.10647615 C9.30783761,6.98209003 12.8068229,6.42062209 15.6499288,4.56599417 L15.75,4.5 C18.5976836,2.60154425 22.1480214,2.0840066 25.4191653,3.09051241 L28.9411288,4.17419347 C29.5705162,4.36785114 30,4.9493547 30,5.60786198 L30,24.4845305 C30,24.8987441 29.6642136,25.2345305 29.25,25.2345305 C29.1752364,25.2345305 29.1008931,25.2233517 29.0294356,25.2013648 L25.4191653,24.0905124 L25.4191653,24.0905124 C22.1851935,23.0954442 18.6783371,23.5899788 15.8473509,25.4358151 L15.75,25.5 C13.6267132,26.9155245 11.2712122,27.6175382 8.765625,27.515625 C8.64368971,27.5106654 8.49996887,27.5003283 8.33446246,27.4846137 L8.33446229,27.4846155 C7.43934403,27.3996256 6.75986867,26.6409458 6.77368945,25.741908 C6.78482982,25.0172301 7.38132838,24.4387937 8.10600627,24.449934 C8.15285809,24.4506543 8.19963772,24.4538834 8.24614415,24.4596074 C8.43693065,24.4830879 8.60429576,24.497724 8.74823967,24.5035139 C10.5868601,24.57747 12.4204946,24.0844014 13.9895624,23.0671851 L14.0858994,23.0038491 C17.6835156,20.6054383 22.1688289,19.951608 26.3014229,21.2231754 L27,21.438 L27,6.7156875 L24.5369078,5.95784944 C22.1626507,5.2273088 19.5887296,5.58667991 17.5069819,6.93511264 L17.4141006,6.99615088 C13.8364129,9.38127602 9.40595856,10.1130906 5.25129762,9.00518097 L3,8.4046875 L3,40.5 C3,41.3284271 2.32842712,42 1.5,42 C0.671572875,42 0,41.3284271 0,40.5 L0,1.5 C0,0.671572875 0.671572875,0 1.5,0 Z M21.6842436,9.20257596 C21.727562,9.30428734 21.749891,9.41370018 21.7498913,9.52425192 C21.749893,10.2299125 21.3685084,10.8804719 20.7527544,11.2251512 C20.5886176,11.3170293 20.4499894,11.4012354 20.3368694,11.4777693 C19.6211779,11.9619867 18.9815896,12.5664259 18.4501505,13.2750634 L17.8382746,14.0907245 C18.6810177,14.268408 19.4944071,14.5523895 20.2595461,14.9332287 L20.4024396,15.0057688 C21.2302692,15.4342902 21.7500611,16.2886617 21.7500611,17.2208271 L21.7500611,17.3718119 C21.7500611,17.7327985 21.4574236,18.025436 21.0964369,18.025436 C20.9406398,18.025436 20.7899664,17.969786 20.6715726,17.8685158 C20.5051465,17.7261656 20.3555248,17.609125 20.2227051,17.517397 C19.0715885,16.7224126 17.7185496,16.2413908 16.2996816,16.1423203 L14.8520087,18.0729375 C13.8917958,19.3533153 12.657106,20.3692587 11.2621714,21.0636352 C11.1755035,21.1067772 11.0759721,21.1528363 10.9635772,21.2018126 L10.8945956,21.231546 C10.477017,21.409687 9.99409089,21.2155844 9.81594995,20.7980057 C9.77244853,20.6960344 9.75002318,20.5863174 9.75002295,20.4754547 C9.75002149,19.7695929 10.1315342,19.118854 10.7474819,18.7741084 C10.9156884,18.6799586 11.0574883,18.5937367 11.1728795,18.5154391 C11.8854582,18.0319257 12.5223761,17.4291661 13.0519612,16.7230008 L13.6639977,15.907211 C12.8251291,15.7309663 12.0152948,15.4493803 11.2531143,15.0717669 L11.1107684,14.9998414 C10.2749654,14.5692231 9.74973838,13.7077794 9.74973838,12.7675673 L9.74973838,12.628321 C9.74973838,12.2671394 10.0425358,11.9743439 10.4037174,11.9743439 C10.5594836,11.9743439 10.7101349,12.029942 10.828557,12.1311317 C10.9969229,12.2749966 11.1482045,12.3931365 11.2824023,12.4855509 C12.4333382,13.2781351 13.7855326,13.7571152 15.2032068,13.8546358 L16.650103,11.9251267 C17.4401966,10.8715913 18.4162092,9.99718291 19.5144396,9.33375351 C19.7302989,9.20335521 19.9508797,9.0811076 20.1756984,8.96725252 C20.2785509,8.91516487 20.3989343,8.85916085 20.5368486,8.79924045 L20.6072675,8.76895596 C21.0244071,8.5912981 21.5065857,8.78543639 21.6842436,9.20257596 Z" id="Shape"></path>
        </g>
    </g>
</svg>