<?xml version="1.0" encoding="UTF-8"?>
<svg width="48px" height="48px" viewBox="0 0 48 48" version="1.1" xmlns="http://www.w3.org/2000/svg" xmlns:xlink="http://www.w3.org/1999/xlink">
    <title>flag-dark-fill</title>
    <g id="flag-dark-fill" stroke="none" stroke-width="1" fill="none" fill-rule="evenodd">
        <rect id="frame" stroke-opacity="0.01" stroke="#979797" stroke-width="0.1" x="0.05" y="0.05" width="47.9" height="47.9"></rect>
        <g id="fill" transform="translate(9.75, 3)" fill="#FFFFFF">
            <path d="M1.125,42 C1.74632034,42 2.25,41.4963203 2.25,40.875 L2.25,1.125 C2.25,0.503679656 1.74632034,0 1.125,0 C0.503679656,0 0,0.503679656 0,1.125 L0,40.875 C0,41.4963203 0.503679656,42 1.125,42 Z M26.1307894,3.21026314 L28.9743416,4.15811388 C29.5868549,4.36228495 30,4.93549322 30,5.58113883 L30,24.4594306 C30,24.8736441 29.6642136,25.2094306 29.25,25.2094306 C29.1693884,25.2094306 29.089304,25.1964347 29.0128292,25.1709431 L26.1307894,24.2102631 L26.1307894,24.2102631 C22.9302738,23.1434246 19.4200386,23.5965149 16.5970698,25.4360195 L16.5,25.5 C13.6606973,27.3928684 10.1065137,27.8688379 6.86921059,26.7897369 L4.77560437,26.0917799 C4.16311877,25.8875922 3.75,25.3143976 3.75,24.6687729 L3.75,5.79047954 C3.75,5.37626598 4.08578644,5.04047954 4.5,5.04047954 C4.58062112,5.04047954 4.66071488,5.05347853 4.73719782,5.07897607 L6.86921059,5.78973686 L6.86921059,5.78973686 C10.0697262,6.85657539 13.5799614,6.40348512 16.4029302,4.5639805 L16.5,4.5 C19.3393027,2.60713156 22.8934863,2.1311621 26.1307894,3.21026314 Z M22.4342436,9.20257596 C22.2565857,8.78543639 21.7744071,8.5912981 21.3572675,8.76895596 L21.2868486,8.79924045 C21.1489343,8.85916085 21.0285509,8.91516487 20.9256984,8.96725252 C20.7008797,9.0811076 20.4802989,9.20335521 20.2644396,9.33375351 C19.1662092,9.99718291 18.1901966,10.8715913 17.400103,11.9251267 L15.9532068,13.8546358 C14.5355326,13.7571152 13.1833382,13.2781351 12.0324023,12.4855509 C11.8982045,12.3931365 11.7469229,12.2749966 11.578557,12.1311317 C11.4601349,12.029942 11.3094836,11.9743439 11.1537174,11.9743439 C10.7925358,11.9743439 10.4997384,12.2671394 10.4997384,12.628321 L10.4997384,12.7675673 C10.4997384,13.7077794 11.0249654,14.5692231 11.8607684,14.9998414 L12.0031143,15.0717669 C12.7652948,15.4493803 13.5751291,15.7309663 14.4139977,15.907211 L13.8019612,16.7230008 C13.2723761,17.4291661 12.6354582,18.0319257 11.9228795,18.5154391 C11.8074883,18.5937367 11.6656884,18.6799586 11.4974819,18.7741084 C10.8815342,19.118854 10.5000215,19.7695929 10.500023,20.4754547 C10.5000232,20.5863174 10.5224485,20.6960344 10.5659499,20.7980057 C10.7440909,21.2155844 11.227017,21.409687 11.6445956,21.231546 L11.7135772,21.2018126 C11.8259721,21.1528363 11.9255035,21.1067772 12.0121714,21.0636352 C13.407106,20.3692587 14.6417958,19.3533153 15.6020087,18.0729375 L17.0496816,16.1423203 C18.4685496,16.2413908 19.8215885,16.7224126 20.9727051,17.517397 C21.1055248,17.609125 21.2551465,17.7261656 21.4215726,17.8685158 C21.5399664,17.969786 21.6906398,18.025436 21.8464369,18.025436 C22.2074236,18.025436 22.5000611,17.7327985 22.5000611,17.3718119 L22.5000611,17.2208271 C22.5000611,16.2886617 21.9802692,15.4342902 21.1524396,15.0057688 L21.0095461,14.9332287 C20.2444071,14.5523895 19.4310177,14.268408 18.5882746,14.0907245 L19.2001505,13.2750634 C19.7315896,12.5664259 20.3711779,11.9619867 21.0868694,11.4777693 C21.1999894,11.4012354 21.3386176,11.3170293 21.5027544,11.2251512 C22.1185084,10.8804719 22.499893,10.2299125 22.4998913,9.52425192 C22.499891,9.41370018 22.477562,9.30428734 22.4342436,9.20257596 Z" id="Shape"></path>
        </g>
    </g>
</svg>