<?xml version="1.0" encoding="UTF-8"?>
<svg width="48px" height="48px" viewBox="0 0 48 48" version="1.1" xmlns="http://www.w3.org/2000/svg" xmlns:xlink="http://www.w3.org/1999/xlink">
    <title>flag-dark</title>
    <g id="flag-dark" stroke="none" stroke-width="1" fill="none" fill-rule="evenodd">
        <rect id="frame" stroke-opacity="0.01" stroke="#979797" stroke-width="0.1" x="0.05" y="0.05" width="47.9" height="47.9"></rect>
        <g id="outline" transform="translate(9.75, 3)" fill="#FFFFFF" fill-rule="nonzero">
            <path d="M4.5,40 L4.48620587,40.0005597 C4.3615904,41.1252778 3.40794636,42 2.25,42 C1.00735931,42 0,40.9926407 0,39.75 L0,2.25 C0,1.00735931 1.00735931,0 2.25,0 C3.49264069,0 4.5,1.00735931 4.5,2.25 L4.5,5.0000625 L6.86921059,5.78973686 C9.95936356,6.81978785 13.3382445,6.43292543 16.1084882,4.74932302 L16.5,4.5 C19.3393027,2.60713156 22.8934863,2.1311621 26.1307894,3.21026314 L28.6324555,4.04415184 C29.4491398,4.31637994 30,5.08065762 30,5.94151844 L30,24.1125741 C30,24.6648589 29.5522847,25.1125741 29,25.1125741 C28.8925179,25.1125741 28.7857387,25.0952462 28.6837722,25.0612574 L26.1307894,24.2102631 C22.9302738,23.1434246 19.4200386,23.5965149 16.5970698,25.4360195 L16.5,25.5 C14.2386709,27.0075528 11.5238828,27.6163469 8.8768733,27.2565793 L8.60819185,27.2140585 C8.50856938,27.1965164 8.39888491,27.1756057 8.27913844,27.1513264 C7.82583794,27.059417 7.50002593,26.6609022 7.50004059,26.198378 C7.50005115,25.8650441 7.77028022,25.5948321 8.1036141,25.5948427 C8.15107468,25.5948442 8.19836944,25.6004437 8.24451818,25.6115252 L8.54080483,25.6787895 C8.63073713,25.6977783 8.71183913,25.713336 8.7841097,25.7254674 C11.128496,26.1189981 13.5551539,25.6262728 15.5756309,24.3127042 L15.6679497,24.2519246 C18.8923965,22.1022934 22.9286961,21.5617599 26.6051311,22.7872382 L28.5,23.41875 L28.5,5.581125 L25.6564478,4.63328808 C22.8932537,3.71222339 19.8629677,4.10189465 17.4243691,5.68729579 L17.3320503,5.74807544 C14.1076035,7.89770664 10.0713039,8.43824014 6.39486894,7.21276181 L4.5,6.5810625 L4.5,40 Z M3,2.25 C3,1.83578644 2.66421356,1.5 2.25,1.5 C1.83578644,1.5 1.5,1.83578644 1.5,2.25 L1.5,39.75 C1.5,40.1642136 1.83578644,40.5 2.25,40.5 C2.66421356,40.5 3,40.1642136 3,39.75 L3,2.25 Z M22.4342436,9.20257596 C22.477562,9.30428734 22.499891,9.41370018 22.4998913,9.52425192 C22.499893,10.2299125 22.1185084,10.8804719 21.5027544,11.2251512 C21.3386176,11.3170293 21.1999894,11.4012354 21.0868694,11.4777693 C20.3711779,11.9619867 19.7315896,12.5664259 19.2001505,13.2750634 L18.5882746,14.0907245 C19.4310177,14.268408 20.2444071,14.5523895 21.0095461,14.9332287 L21.1524396,15.0057688 C21.9802692,15.4342902 22.5000611,16.2886617 22.5000611,17.2208271 L22.5000611,17.3718119 C22.5000611,17.7327985 22.2074236,18.025436 21.8464369,18.025436 C21.6906398,18.025436 21.5399664,17.969786 21.4215726,17.8685158 C21.2551465,17.7261656 21.1055248,17.609125 20.9727051,17.517397 C19.8215885,16.7224126 18.4685496,16.2413908 17.0496816,16.1423203 L15.6020087,18.0729375 C14.6417958,19.3533153 13.407106,20.3692587 12.0121714,21.0636352 L11.8216842,21.1538087 L11.6445956,21.231546 C11.227017,21.409687 10.7440909,21.2155844 10.5659499,20.7980057 C10.5224485,20.6960344 10.5000232,20.5863174 10.500023,20.4754547 C10.5000215,19.7695929 10.8815342,19.118854 11.4974819,18.7741084 C11.6656884,18.6799586 11.8074883,18.5937367 11.9228795,18.5154391 C12.6354582,18.0319257 13.2723761,17.4291661 13.8019612,16.7230008 L14.4139977,15.907211 C13.5751291,15.7309663 12.7652948,15.4493803 12.0031143,15.0717669 L11.8607684,14.9998414 C11.0249654,14.5692231 10.4997384,13.7077794 10.4997384,12.7675673 L10.4997384,12.628321 C10.4997384,12.2671394 10.7925358,11.9743439 11.1537174,11.9743439 C11.3094836,11.9743439 11.4601349,12.029942 11.578557,12.1311317 C11.7469229,12.2749966 11.8982045,12.3931365 12.0324023,12.4855509 C13.1833382,13.2781351 14.5355326,13.7571152 15.9532068,13.8546358 L17.400103,11.9251267 C18.1901966,10.8715913 19.1662092,9.99718291 20.2644396,9.33375351 C20.4802989,9.20335521 20.7008797,9.0811076 20.9256984,8.96725252 C20.9942668,8.93252742 21.0706266,8.89606171 21.1547779,8.85785539 L21.3572675,8.76895596 C21.7744071,8.5912981 22.2565857,8.78543639 22.4342436,9.20257596 Z" id="Shape"></path>
        </g>
    </g>
</svg>