<?xml version="1.0" encoding="UTF-8"?>
<svg width="48px" height="48px" viewBox="0 0 48 48" version="1.1" xmlns="http://www.w3.org/2000/svg" xmlns:xlink="http://www.w3.org/1999/xlink">
    <title>four-squares-dark-thick</title>
    <g id="four-squares-dark-thick" stroke="none" stroke-width="1" fill="none" fill-rule="evenodd">
        <rect id="frame" stroke-opacity="0.01" stroke="#979797" stroke-width="0.1" x="0.05" y="0.05" width="47.9" height="47.9"></rect>
        <g id="thick" transform="translate(7.5, 7.5)" fill="#FFFFFF" fill-rule="nonzero">
            <path d="M12.75,0 C14.4068542,0 15.75,1.34314575 15.75,3 L15.75,12.75 C15.75,14.4068542 14.4068542,15.75 12.75,15.75 L3,15.75 C1.34314575,15.75 0,14.4068542 0,12.75 L0,3 C0,1.34314575 1.34314575,0 3,0 L12.75,0 Z M12.75,3 L3,3 L3,12.75 L12.75,12.75 L12.75,3 Z M30,0 C31.6568542,0 33,1.34314575 33,3 L33,12.75 C33,14.4068542 31.6568542,15.75 30,15.75 L20.25,15.75 C18.5931458,15.75 17.25,14.4068542 17.25,12.75 L17.25,3 C17.25,1.34314575 18.5931458,0 20.25,0 L30,0 Z M30,3 L20.25,3 L20.25,12.75 L30,12.75 L30,3 Z M30,17.25 C31.6568542,17.25 33,18.5931458 33,20.25 L33,30 C33,31.6568542 31.6568542,33 30,33 L20.25,33 C18.5931458,33 17.25,31.6568542 17.25,30 L17.25,20.25 C17.25,18.5931458 18.5931458,17.25 20.25,17.25 L30,17.25 Z M30,20.25 L20.25,20.25 L20.25,30 L30,30 L30,20.25 Z M12.75,17.25 C14.4068542,17.25 15.75,18.5931458 15.75,20.25 L15.75,30 C15.75,31.6568542 14.4068542,33 12.75,33 L3,33 C1.34314575,33 0,31.6568542 0,30 L0,20.25 C0,18.5931458 1.34314575,17.25 3,17.25 L12.75,17.25 Z M12.75,20.25 L3,20.25 L3,30 L12.75,30 L12.75,20.25 Z" id="Shape"></path>
        </g>
    </g>
</svg>