<?xml version="1.0" encoding="UTF-8"?>
<svg width="48px" height="48px" viewBox="0 0 48 48" version="1.1" xmlns="http://www.w3.org/2000/svg" xmlns:xlink="http://www.w3.org/1999/xlink">
    <title>gear-dark-thick</title>
    <g id="gear-dark-thick" stroke="none" stroke-width="1" fill="none" fill-rule="evenodd">
        <rect id="frame" stroke-opacity="0.01" stroke="#979797" stroke-width="0.1" x="0.05" y="0.05" width="47.9" height="47.9"></rect>
        <g id="thick" transform="translate(6, 6.5004)" fill="#FFFFFF" fill-rule="nonzero">
            <path d="M22.3891008,0.0414040264 C22.5690258,0.0854574705 22.7241364,0.125460844 22.8542915,0.162003334 C24.2729078,0.56029562 25.6652951,1.14052959 27.0000133,1.91112953 C28.087161,2.53879457 29.0840636,3.26274103 29.9861687,4.06597956 C30.2346802,4.28725527 30.5427908,4.58905252 30.9105006,4.97137131 C31.3754913,5.4493894 31.4646284,6.17753348 31.1322013,6.75562811 L30.5048267,7.84106333 C30.2371262,8.30478573 30.2369124,8.87604282 30.5042657,9.33996547 L31.3159005,10.7483483 C31.5836851,11.2130196 32.0791819,11.4993678 32.6154915,11.4993836 L33.8695872,11.4994206 C34.536934,11.4993073 35.1241023,11.9400896 35.3102838,12.5809392 C35.41652,12.946936 35.49767,13.2517272 35.5530473,13.4955124 C35.8455534,14.7831984 36,16.1233446 36,17.4995638 C36,18.8858348 35.843289,20.2355041 35.5466159,21.5318225 C35.4924253,21.7686093 35.413603,22.0638393 35.3101492,22.4175124 C35.1249479,23.0590012 34.5374231,23.5000351 33.8697358,23.4997057 L32.5896441,23.4996712 C32.0741485,23.4996573 31.6024797,23.7896302 31.3697841,24.2496177 L31.0278513,24.9255427 C31.0028991,24.9748677 30.9752394,25.0227758 30.9449988,25.0690475 L30.5305969,25.7031325 C30.2485839,26.1346465 30.2332944,26.6881102 30.4910543,27.1345355 L31.1308453,28.2432743 C31.4641254,28.8212741 31.3755689,29.549932 30.913543,30.0312753 C30.5927545,30.3624482 30.324074,30.6277835 30.1058185,30.8256654 C29.1724411,31.6719145 28.135435,32.4324927 26.9999867,33.0880441 C25.7400659,33.8154597 24.3987646,34.307457 23.0625156,34.7027033 C22.8847659,34.7552795 22.6684291,34.8175712 22.4135053,34.8895784 C21.753206,35.0754737 21.0511612,34.7891963 20.7086623,34.194851 L20.111424,33.1570638 C19.8432555,32.692614 19.3475223,32.4066753 18.8112129,32.4071026 L17.1857001,32.4083977 C16.6502547,32.4088243 16.1556385,32.694638 15.8878933,33.1583346 L15.2589218,34.2501185 C14.9266551,34.8247102 14.2562661,35.1126146 13.6108004,34.9579187 C13.4373673,34.9154414 13.287485,34.8768375 13.1612916,34.8415303 C11.7372981,34.443117 10.33961,33.8614606 9.0000133,33.0880441 C7.92236188,32.4658617 6.89588207,31.794426 6.00001559,30.9995783 C5.73976667,30.7686752 5.42027608,30.4448238 5.0415438,30.0280239 C4.60284358,29.5459284 4.52669055,28.8355883 4.85244101,28.2710001 L5.49517325,27.1581235 C5.76288918,26.6943947 5.76310678,26.1231218 5.49574419,25.6591891 L4.68417469,24.2509383 C4.41640083,23.7862921 3.92093748,23.4999504 3.38465491,23.4999106 L2.12415705,23.4998171 C1.45990148,23.499542 0.874933329,23.0624194 0.68643879,22.4254694 C0.636784307,22.258737 0.596251867,22.1132095 0.564369919,21.9890262 C0.195928137,20.5539098 0,19.0496175 0,17.4995638 C0,15.9732376 0.189975662,14.4912827 0.547571376,13.0760545 C0.571179495,12.9826225 0.599493098,12.8776461 0.632512184,12.7611253 L0.685013242,12.5775225 C0.872286201,11.9386726 1.45822424,11.4996927 2.12395714,11.4994777 L3.41038247,11.4995063 C3.92587846,11.4995178 4.39754672,11.2095437 4.6302425,10.7495559 L4.97217527,10.0736309 C4.99712751,10.0243059 5.02478723,9.97639784 5.05502784,9.93012605 L5.4694297,9.29604107 C5.75144294,8.86452671 5.76673374,8.31106297 5.50897579,7.86463609 L4.8652799,6.75083771 C4.53337611,6.17518046 4.61976345,5.44976262 5.07757368,4.9681495 C5.27687188,4.7631022 5.44632953,4.59227417 5.58802667,4.45764267 C6.59916779,3.49692142 7.73885657,2.63924335 8.9999867,1.91112953 C10.3150811,1.15185941 11.6861612,0.577398654 13.0831536,0.179689133 C13.1799126,0.152142838 13.2899494,0.122780902 13.4132639,0.0916033253 L13.6081429,0.0432631463 C14.2541199,-0.112358087 14.9254999,0.175548744 15.2580604,0.750794584 L15.888767,1.84215323 C16.1569427,2.30656769 16.6526535,2.59248068 17.1889359,2.59205651 L18.8143016,2.59077093 C19.3497604,2.59034741 19.8443885,2.30452249 20.1121314,1.84080928 L20.7411415,0.74909277 C21.073422,0.174611881 21.7437126,-0.113233277 22.3891008,0.0414040264 Z M22.7518095,3.268447 L21.2959957,5.79013126 L19.3452315,5.57140509 C18.453238,5.47139182 17.5525208,5.47248802 16.6601042,5.57365074 L14.7071073,5.79503893 L13.2480811,3.268447 L13.1365387,3.30631241 C12.282901,3.6000789 11.4513913,3.97295291 10.6499105,4.42376535 L10.4999867,4.50920574 C9.68166911,4.98166162 8.91825579,5.5229069 8.21510459,6.12618577 L8.05149266,6.268447 L9.50802565,8.79106871 L8.3453682,10.3707705 C8.08036396,10.7308315 7.8341528,11.1073737 7.60770845,11.4995868 C7.3812641,11.8917999 7.17827462,12.2932961 6.99895472,12.702827 L6.21222158,14.4995688 L3.29939891,14.4993201 L3.29580402,14.5175092 C3.11142539,15.4326562 3.01208533,16.3699146 3.00103625,17.3210627 L3,17.4995638 C3,18.4782329 3.09335462,19.4427916 3.27653983,20.3843315 L3.29961238,20.4997003 L6.21712452,20.5001205 L7.00189517,22.3021595 C7.36049396,23.1255963 7.80990324,23.9061884 8.34251403,24.6286708 L9.50731854,26.2087191 L8.05152821,28.7301407 L8.1400011,28.8080935 C8.8212292,29.4004822 9.55990243,29.9341537 10.3510578,30.4028502 L10.5000133,30.4899679 C11.3475565,30.9792972 12.2295563,31.3807257 13.1365361,31.6928511 L13.2481678,31.7304219 L14.7040714,29.2090469 L16.6547951,29.4277685 C17.5468348,29.527787 18.447599,29.5266855 19.3400606,29.4255072 L21.2931746,29.2040829 L22.7517337,31.7304219 L22.8634639,31.6928511 C23.7170919,31.399086 24.5485924,31.026215 25.3500645,30.5754073 L25.4999867,30.4899679 C26.376765,29.9837597 27.190514,29.3985824 27.9346437,28.7427456 L27.948416,28.7302202 L26.4919949,26.2081131 L27.6546584,24.6284031 C27.9196626,24.2683421 28.1658738,23.8917999 28.3923181,23.4995868 C28.6187625,23.1073737 28.821752,22.7058775 29.0010719,22.2963466 L29.7878091,20.4995955 L32.7003222,20.4996771 L32.7041897,20.4816497 C32.8885722,19.5664934 32.9879144,18.629225 32.9989637,17.6780667 L33,17.4995638 C33,16.5209052 32.9066474,15.5563567 32.7234661,14.6148264 L32.7002025,14.4991345 L29.7829849,14.4993001 L28.998187,12.6971416 C28.6395791,11.873658 28.1901509,11.0930226 27.6575126,10.3705028 L26.4927323,8.79048736 L27.948449,6.26878792 L27.8600022,6.19105985 C27.1787801,5.59867883 26.4401142,5.06501381 25.6489672,4.59632244 L25.5000133,4.50920574 C24.652461,4.01987118 23.7704513,3.6184393 22.8634613,3.30631241 L22.7518095,3.268447 Z M18.0000156,8.49957826 C22.9705783,8.49957826 27.0000156,12.5290155 27.0000156,17.4995783 C27.0000156,22.470141 22.9705783,26.4995783 18.0000156,26.4995783 C13.0294528,26.4995783 9.00001559,22.470141 9.00001559,17.4995783 C9.00001559,12.5290155 13.0294528,8.49957826 18.0000156,8.49957826 Z M18.0000156,11.4995783 C14.6863071,11.4995783 12.0000156,14.1858698 12.0000156,17.4995783 C12.0000156,20.8132868 14.6863071,23.4995783 18.0000156,23.4995783 C21.3137241,23.4995783 24.0000156,20.8132868 24.0000156,17.4995783 C24.0000156,14.1858698 21.3137241,11.4995783 18.0000156,11.4995783 Z" id="Combined-Shape"></path>
        </g>
    </g>
</svg>