<?xml version="1.0" encoding="UTF-8"?>
<svg width="48px" height="48px" viewBox="0 0 48 48" version="1.1" xmlns="http://www.w3.org/2000/svg" xmlns:xlink="http://www.w3.org/1999/xlink">
    <title>gear-dark</title>
    <g id="gear-dark" stroke="none" stroke-width="1" fill="none" fill-rule="evenodd">
        <rect id="frame" stroke-opacity="0.01" stroke="#979797" stroke-width="0.1" x="0.05" y="0.05" width="47.9" height="47.9"></rect>
        <g id="outline" transform="translate(6, 6.6526)" fill="#FFFFFF" fill-rule="nonzero">
            <path d="M22.8191102,0 C23.4854444,0.185612412 24.1460526,0.411325931 24.7976798,0.678012761 C25.5452452,0.983963575 26.2809902,1.34384076 27,1.75896125 C28.3457459,2.53592803 29.5532076,3.46042862 30.61375,4.50023744 L29.0539153,7.20190631 C30.5588514,8.84065925 31.6581054,10.7753864 32.3090698,12.847075 L35.4328602,12.8471811 C35.8030898,14.2855422 36,15.7934849 36,17.3474185 C36,18.9013521 35.8030898,20.4092948 35.4328602,21.847656 L32.3123186,21.8478469 C31.9890171,22.8726354 31.5499193,23.8782699 30.9903811,24.8474185 C30.4308428,25.8165671 29.7794867,26.6996542 29.0536446,27.4920358 L30.61375,30.1945996 C29.5532076,31.2344084 28.3457459,32.158909 27,32.9358758 C25.6542541,33.7128426 24.2498823,34.2962847 22.8191102,34.694837 L21.257123,31.9896082 C19.1375059,32.4617008 16.9123561,32.4770825 14.7406863,31.9931461 L13.1808898,34.694837 C11.7501177,34.2962847 10.3457459,33.7128426 9,32.9358758 C7.65425405,32.158909 6.44679243,31.2344084 5.38624995,30.1945996 L6.94607494,27.4929201 C5.44114378,25.8541694 4.34189318,23.9194461 3.69093021,21.8477621 L0.567139797,21.847656 C0.196910183,20.4092948 0,18.9013521 0,17.3474185 C0,15.7934849 0.196910183,14.2855422 0.567139797,12.8471811 L3.68762363,12.8471733 C4.0109306,11.8223214 4.45004741,10.8166248 5.00961894,9.84741852 C5.56915715,8.87826991 6.22051326,7.99518278 6.94635543,7.20280118 L5.38624995,4.50023744 C6.44679243,3.46042862 7.65425405,2.53592803 9,1.75896125 C9.64865361,1.38446091 10.3109276,1.05492155 10.9832132,0.769376235 C11.7057023,0.462507593 12.4397542,0.206448897 13.1808898,0 L14.742877,2.70522879 C16.8624895,2.23313724 19.0876343,2.21775455 21.2592995,2.70168783 L22.8191102,0 Z M23.5157321,1.79327875 L22.0077885,4.40527283 L20.9330424,4.16577672 C19.0007921,3.7351946 16.9988162,3.73952845 15.0689747,4.1693532 L13.9943664,4.40869576 L12.4843147,1.79327875 L12.3286559,1.84955581 C11.5019979,2.15327376 10.6960057,2.52481552 9.91660521,2.96306754 L9.75,3.05799935 C8.91903061,3.53775975 8.1387969,4.08262208 7.41412925,4.68695907 L7.28753868,4.79360876 L8.79517298,7.40518167 L8.05243953,8.21600301 C7.391434,8.93760428 6.80712214,9.73405164 6.30865705,10.5974185 C5.81016259,11.4608362 5.41255742,12.3651445 5.11813002,13.2984509 L4.78729355,14.3471705 L1.77185118,14.3470598 L1.74278512,14.5100152 C1.59248358,15.3777811 1.5112521,16.2615616 1.50108924,17.1556683 L1.5,17.3474185 C1.5,18.3069393 1.58174776,19.2550727 1.74278512,20.1848218 L1.7719709,20.3476024 L4.79192062,20.3477995 L5.121948,21.3981088 C5.71462963,23.284313 6.71186431,25.0202418 8.05088453,26.4783286 L8.79566729,27.289338 L7.28770085,29.9010779 L7.41412925,30.007878 C8.09048572,30.5719258 8.81524641,31.0841646 9.58448403,31.5400192 L9.75,31.6368377 C10.5809694,32.1165981 11.4429509,32.5198691 12.3286559,32.8452812 L12.484178,32.9013836 L13.992193,30.289559 L15.0669449,30.5290575 C16.9991991,30.9596424 19.0011795,30.9553095 20.9310253,30.5254838 L22.0056336,30.2861413 L23.5157579,32.9013836 L23.6713441,32.8452812 C24.4980021,32.5415633 25.3039943,32.1700215 26.0833948,31.7317695 L26.25,31.6368377 C27.0809694,31.1570773 27.8612031,30.612215 28.5858707,30.007878 L28.7123714,29.9009599 L27.204827,27.2896554 L27.9475605,26.478834 C28.608566,25.7572328 29.1928779,24.9607854 29.691343,24.0974185 C30.189808,23.2340516 30.5873958,22.3297991 30.881818,21.3965508 L31.2126432,20.3479141 L34.2279652,20.3476713 L34.2572149,20.1848218 C34.4075164,19.317056 34.4887479,18.4332754 34.4989108,17.5391688 L34.5,17.3474185 C34.5,16.3878977 34.4182522,15.4397643 34.2572149,14.5100152 L34.2281016,14.34706 L31.2080794,14.3470376 L30.878052,13.2967283 C30.2853691,11.4105199 29.2881313,9.67458758 27.9491067,8.21649881 L27.2043189,7.40548559 L28.7122093,4.79349075 L28.5858707,4.68695907 C27.9095143,4.12291121 27.1847536,3.61067239 26.415516,3.15481779 L26.25,3.05799935 C25.4190306,2.57823895 24.5570491,2.1749679 23.6713441,1.84955581 L23.5157321,1.79327875 Z M18.0000023,9.84740997 C22.1421379,9.84740997 25.5000023,13.2052743 25.5000023,17.34741 C25.5000023,21.4895456 22.1421379,24.84741 18.0000023,24.84741 C13.8578667,24.84741 10.5000023,21.4895456 10.5000023,17.34741 C10.5000023,13.2052743 13.8578667,9.84740997 18.0000023,9.84740997 Z M18.0000023,11.34741 C14.6862938,11.34741 12.0000023,14.0337015 12.0000023,17.34741 C12.0000023,20.6611185 14.6862938,23.34741 18.0000023,23.34741 C21.3137108,23.34741 24.0000023,20.6611185 24.0000023,17.34741 C24.0000023,14.0337015 21.3137108,11.34741 18.0000023,11.34741 Z" id="Shape"></path>
        </g>
    </g>
</svg>