<?xml version="1.0" encoding="UTF-8"?>
<svg width="48px" height="48px" viewBox="0 0 48 48" version="1.1" xmlns="http://www.w3.org/2000/svg" xmlns:xlink="http://www.w3.org/1999/xlink">
    <title>gear-dark-fill</title>
    <g id="gear-dark-fill" stroke="none" stroke-width="1" fill="none" fill-rule="evenodd">
        <rect id="frame" stroke-opacity="0.01" stroke="#979797" stroke-width="0.1" x="0.05" y="0.05" width="47.9" height="47.9"></rect>
        <g id="fill" transform="translate(6, 6.892)" fill="#FFFFFF">
            <path d="M23.9950478,0.141790208 C24.3158241,0.251963642 24.5825685,0.350560159 24.7952811,0.437579759 C25.5436713,0.743742327 26.2802212,1.10394526 27,1.51950975 C27.7521514,1.95376454 28.4611054,2.43410606 29.1253544,2.95490795 C29.2843959,3.07960378 29.473808,3.23770068 29.6935908,3.42919865 L29.6946151,3.42802215 C30.2355427,3.89897379 30.367399,4.68695742 30.009258,5.30835355 L29.5759229,6.05722679 C29.2661806,6.59449514 29.3190023,7.26698078 29.70883,7.74930008 C29.9854154,8.08854112 30.2005921,8.3712099 30.355489,8.59639388 C30.8465252,9.31024591 31.2723426,10.0623498 31.6303258,10.842945 C31.7252877,11.0500129 31.8350961,11.3172264 31.9597509,11.6445855 L31.9607952,11.6441855 C32.1830613,12.2244783 32.7401155,12.6076425 33.3615187,12.6076592 L34.2156801,12.6076885 C34.933797,12.6081406 35.5508537,13.1174957 35.6873786,13.8225155 C35.7738894,14.2698405 35.8347483,14.6406006 35.8701475,14.9347588 C35.9558819,15.6471893 36,16.372426 36,17.107967 C36,18.1001278 35.9197274,19.07354 35.7653225,20.0220632 C35.7477918,20.1297558 35.7255081,20.2528889 35.6984714,20.3914625 L35.6995795,20.3916757 C35.5638895,21.0969374 34.9473309,21.6070591 34.2291357,21.6082759 L33.363673,21.6083312 C32.7425065,21.6080386 32.1854226,21.9906377 31.9627019,22.5705026 C31.8387706,22.8923756 31.7296619,23.1566017 31.634717,23.3629279 C31.4411511,23.7835694 31.2264887,24.1990165 30.9903811,24.607967 C30.7308535,25.0574818 30.451573,25.488482 30.1542688,25.9005041 C30.0410512,26.0574078 29.8941974,26.246827 29.7137074,26.4687618 L29.7136809,26.4687403 C29.3220745,26.9511627 29.2684429,27.6250862 29.57882,28.1633733 L30.0072237,28.9013097 C30.3655275,29.5220759 30.2345968,30.3095944 29.6947065,30.7810292 C29.4216437,31.0202318 29.1881957,31.2136313 28.9951619,31.3621433 C28.3686896,31.8441241 27.7032249,32.2904172 27,32.6964243 C26.3398307,33.0775732 25.6655531,33.4121506 24.9809715,33.7011758 C24.7245559,33.8094325 24.3959411,33.9327059 23.995127,34.0709958 L23.9953697,34.0717039 C23.316483,34.3044087 22.5678757,34.0236409 22.2094554,33.4018905 L21.7799821,32.6565025 C21.4690791,32.1186172 20.8587662,31.828059 20.2452352,31.9258392 C19.7872158,31.9979915 19.4136732,32.0452045 19.124563,32.0671997 C18.2332642,32.1350089 17.333053,32.1235399 16.434917,32.0298486 C16.2512509,32.010689 16.0233365,31.9790757 15.7511736,31.9350088 L15.7512337,31.9346339 C15.1376642,31.836276 14.526976,32.1264208 14.2156465,32.6642087 L13.7877562,33.4021511 C13.4279356,34.0232901 12.6784825,34.3024387 11.9999988,34.0680366 C11.5057425,33.8936939 11.1049788,33.7405634 10.798505,33.6063374 C10.1895694,33.3396425 9.58916633,33.0365796 9,32.6964243 C8.39675217,32.348139 7.82129113,31.9702083 7.27439465,31.565535 C7.01407919,31.3729158 6.69298604,31.1114041 6.31111519,30.7809999 L6.30976023,30.7825608 C5.76785182,30.3121414 5.63503519,29.5237972 5.99289632,28.9017887 L6.41866889,28.1696538 C6.73033041,27.6303832 6.67630437,26.954619 6.28292198,26.4717153 C6.12440209,26.2750073 5.99392356,26.1079268 5.89270675,25.9694797 C5.27023421,25.1180452 4.7433472,24.2078006 4.31673262,23.2562378 C4.23676667,23.0778739 4.14488394,22.8520871 4.04108443,22.5788774 L4.04219035,22.5784599 C3.82172122,21.9945053 3.26266844,21.6081114 2.63848129,21.6082749 L1.78431985,21.6082455 C1.06466862,21.6077706 0.446763399,21.0962702 0.311888816,20.3893706 C0.222923521,19.9246411 0.160307689,19.5402312 0.124480661,19.2360572 C0.0422758231,18.5381324 0,17.8279867 0,17.107967 C0,16.3359725 0.048599495,15.5753289 0.142905893,14.828929 C0.176860697,14.5601894 0.232914714,14.2242428 0.311067945,13.8210892 L0.311287767,13.821132 C0.448412339,13.1166606 1.06533861,12.6080247 1.78303145,12.6077267 L2.63628875,12.6077236 C3.25842329,12.6083723 3.81638473,12.2249149 4.03875878,11.6438799 C4.16228552,11.3210692 4.27167116,11.0562994 4.36687213,10.8495538 C4.56002363,10.4300915 4.77415721,10.0157987 5.00961894,9.60796702 C5.29365912,9.115995 5.60135999,8.64620029 5.93045432,8.19919039 C6.02396913,8.07216891 6.14178519,7.92141263 6.28390249,7.74692153 L6.28501939,7.74783031 C6.67741378,7.26557212 6.73163056,6.59123237 6.42132543,6.05247728 L5.99517457,5.31324059 C5.63546447,4.68945671 5.7697564,3.89807441 6.31510799,3.42787304 C6.6877557,3.10856289 7.00026966,2.85380701 7.25417924,2.66537919 C7.80710538,2.2550494 8.38931459,1.87208913 9,1.51950975 C9.70310072,1.11357436 10.3788666,0.675098927 11.1093773,0.373583473 C11.348462,0.274902187 11.6583332,0.170272778 12.0389908,0.059695245 L12.0387677,0.0589215713 C12.7015191,-0.132269974 13.4092281,0.153169296 13.753876,0.75067373 L14.2166894,1.55430849 C14.5283309,2.09393238 15.1411483,2.38467676 15.756229,2.28472585 C16.0698141,2.2342862 16.3309398,2.19866145 16.5396417,2.17807007 C17.5597388,2.07742313 18.5933933,2.08069972 19.6239983,2.19234966 C19.7927329,2.21062941 20.0001593,2.23972364 20.2462774,2.27963234 L20.2461886,2.28018086 C20.8602385,2.37953786 21.471898,2.08959577 21.7837111,1.55135631 L22.2102396,0.812627694 C22.5682138,0.190968355 23.3162407,-0.0902156649 23.9950766,0.141705789 Z M18.0000023,9.60795847 C13.8578667,9.60795847 10.5000023,12.9658228 10.5000023,17.1079585 C10.5000023,21.2500941 13.8578667,24.6079585 18.0000023,24.6079585 C22.1421379,24.6079585 25.5000023,21.2500941 25.5000023,17.1079585 C25.5000023,12.9658228 22.1421379,9.60795847 18.0000023,9.60795847 Z" id="Shape"></path>
        </g>
    </g>
</svg>