<?xml version="1.0" encoding="UTF-8"?>
<svg width="48px" height="48px" viewBox="0 0 48 48" version="1.1" xmlns="http://www.w3.org/2000/svg" xmlns:xlink="http://www.w3.org/1999/xlink">
    <title>house-dark-thick</title>
    <g id="house-dark-thick" stroke="none" stroke-width="1" fill="none" fill-rule="evenodd">
        <rect id="frame" stroke-opacity="0.01" stroke="#979797" stroke-width="0.1" x="0.05" y="0.05" width="47.9" height="47.9"></rect>
        <g id="thick" transform="translate(3.6243, 4.6305)" fill="#FFFFFF" fill-rule="nonzero">
            <path d="M21.294534,5.45661721 L34.2133915,15.4687318 C34.9465785,16.0369517 35.3756766,16.9123795 35.3756766,17.8399769 L35.3756766,31.3695027 C35.3756766,34.6832111 32.689385,37.3695027 29.3756766,37.3695027 L24.1256766,37.3695027 C23.2972494,37.3695027 22.6256766,36.6979298 22.6256766,35.8695027 L22.6256766,31.3695027 C22.6256766,30.126862 21.6183172,29.1195027 20.3756766,29.1195027 C19.1330359,29.1195027 18.1256766,30.126862 18.1256766,31.3695027 L18.1256766,35.8695027 C18.1256766,36.6979298 17.4541037,37.3695027 16.6256766,37.3695027 L11.3756766,37.3695027 C8.06196805,37.3695027 5.37567655,34.6832111 5.37567655,31.3695027 L5.37567655,17.8399769 C5.37567655,16.9123795 5.80477459,16.0369517 6.53796155,15.4687318 L19.4568191,5.45661721 C19.9976834,5.03744732 20.7536697,5.03744732 21.294534,5.45661721 Z M20.3754891,8.53987765 L8.37567655,17.8399769 L8.37567655,31.3695027 C8.37567655,33.0263569 9.7188223,34.3695027 11.3756766,34.3695027 L15.1256766,34.3695027 L15.1256766,31.3695027 C15.1256766,28.4990027 17.4294066,26.1665677 20.2888582,26.120206 L20.3756766,26.1195027 C23.2751715,26.1195027 25.6256766,28.4700077 25.6256766,31.3695027 L25.6256766,34.3695027 L29.3756766,34.3695027 C31.0128063,34.3695027 32.3436524,33.0581462 32.3751072,31.4285409 L32.3756766,31.3695027 L32.3756766,17.8399769 L20.3754891,8.53987765 Z M24.0826059,1.28208997 L40.196199,13.9427703 C40.8269854,14.4383882 40.9365612,15.3515193 40.4409433,15.9823057 L40.4114951,16.0185693 L40.3800497,16.0560445 C39.8599872,16.6758308 38.9421007,16.7714902 38.3054174,16.2722563 L22.2268079,3.66475509 C21.1398714,2.81247037 19.6114817,2.81247037 18.5245452,3.66475509 L2.44593574,16.2722563 C1.80925241,16.7714902 0.891365874,16.6758308 0.371303391,16.0560445 L0.339857965,16.0185693 C-0.175787756,15.4040467 -0.0956321754,14.4878642 0.518890465,13.9722185 L0.555154059,13.9427703 L16.6687472,1.28208997 C18.8444151,-0.427363322 21.906938,-0.427363322 24.0826059,1.28208997 Z" id="Shape"></path>
        </g>
    </g>
</svg>