<?xml version="1.0" encoding="UTF-8"?>
<svg width="48px" height="48px" viewBox="0 0 48 48" version="1.1" xmlns="http://www.w3.org/2000/svg" xmlns:xlink="http://www.w3.org/1999/xlink">
    <title>image-dark</title>
    <g id="image-dark" stroke="none" stroke-width="1" fill="none" fill-rule="evenodd">
        <rect id="frame" stroke-opacity="0.01" stroke="#979797" stroke-width="0.1" x="0.05" y="0.05" width="47.9" height="47.9"></rect>
        <g id="outline" transform="translate(7.5, 7.5)" fill="#FFFFFF" fill-rule="nonzero">
            <path d="M28.5,0 C30.9852814,0 33,2.01471863 33,4.5 L33,28.5 C33,30.9604286 31.0253743,32.9596586 28.5744157,32.9993971 L28.5,33 L4.5,33 C2.01471863,33 0,30.9852814 0,28.5 L0,4.5 C0,2.01471863 2.01471863,0 4.5,0 L28.5,0 Z M9.51726513,15.401014 L1.5,24.5634375 L1.5,28.5 C1.5,28.7479646 1.53008388,28.9889027 1.58680087,29.2193636 L1.59785266,29.2628558 L1.60952464,29.3060551 C1.61564141,29.3280384 1.62202267,29.3499874 1.62864636,29.371831 L1.65198491,29.445353 L1.68573494,29.5415383 L1.70601903,29.5947578 L1.74353434,29.6859592 L1.76031068,29.7241619 C1.77273483,29.7519281 1.78562318,29.7795834 1.79891684,29.8070056 C1.81100239,29.8319336 1.82337712,29.8565811 1.83607859,29.8810316 L1.86968508,29.9438829 C1.89876896,29.9967523 1.92940047,30.0486503 1.96151859,30.0995159 L2.00274998,30.1630262 L2.02612269,30.1975325 L2.06419763,30.2516308 C2.08741454,30.2838592 2.1112553,30.3156083 2.13570222,30.3468603 L2.17454577,30.3954743 L2.2144169,30.4433137 L2.27158592,30.5085617 L2.32671801,30.5680619 L2.34609877,30.5882344 L2.41098602,30.653145 L2.4506322,30.6909254 L2.49096184,30.7279843 C2.53221392,30.7652062 2.57450486,30.8012986 2.61778592,30.8362129 L2.65038368,30.8621395 L2.72196129,30.9165599 L2.74759952,30.9352477 C2.77708433,30.9565022 2.80697067,30.9772345 2.83724498,30.9974309 L2.87311647,31.0209926 L2.95422116,31.0716272 L3.02468112,31.1127748 L3.07387376,31.140005 L3.12362492,31.1663352 L3.17314006,31.1913674 L3.25093344,31.2284071 L3.27425528,31.2389805 C3.3103901,31.2551762 3.34690375,31.270678 3.38377926,31.2854686 L3.44502576,31.3092539 L3.51459255,31.3344094 C3.5484185,31.3461679 3.58251982,31.3573379 3.61688424,31.3679073 C3.64309536,31.3759686 3.669421,31.3836697 3.69589384,31.391017 L3.77534916,31.4118928 L3.83068058,31.425058 L3.90485521,31.4409705 L3.99759358,31.458116 L4.09103509,31.4723575 L4.10706815,31.4744989 C4.16553888,31.482148 4.22453922,31.4881133 4.28401891,31.4923447 C4.31665757,31.4946658 4.34936143,31.4964616 4.38220068,31.4977296 L4.44096175,31.4994307 L4.5,31.5 L28.5,31.5 C30.1568542,31.5 31.5,30.1568542 31.5,28.5 L31.5,26.1211875 L25.0606602,19.6819805 C24.4873373,19.1086576 23.5653763,19.0964593 22.9772177,19.6453854 L22.9393398,19.6819805 L19.5,23.1213203 L11.7067903,15.3281107 C11.6832528,15.3045731 11.6589382,15.2818256 11.6338871,15.2599058 C11.0104321,14.7143827 10.0627882,14.777559 9.51726513,15.401014 Z M28.5,1.5 L4.5,1.5 C2.84314575,1.5 1.5,2.84314575 1.5,4.5 L1.5,22.2856875 L8.38840009,14.413257 C9.47944625,13.1663471 11.3747341,13.0399946 12.621644,14.1310408 C12.6717463,14.1748803 12.7203754,14.2203754 12.7674505,14.2674505 L19.5,21 L21.8786797,18.6213203 C23.0502525,17.4497475 24.9497475,17.4497475 26.1213203,18.6213203 L31.5,24 L31.5,4.5 C31.5,2.84314575 30.1568542,1.5 28.5,1.5 Z M24,5.25 C26.0710678,5.25 27.75,6.92893219 27.75,9 C27.75,11.0710678 26.0710678,12.75 24,12.75 C21.9289322,12.75 20.25,11.0710678 20.25,9 C20.25,6.92893219 21.9289322,5.25 24,5.25 Z M24,6.75 C22.7573593,6.75 21.75,7.75735931 21.75,9 C21.75,10.2426407 22.7573593,11.25 24,11.25 C25.2426407,11.25 26.25,10.2426407 26.25,9 C26.25,7.75735931 25.2426407,6.75 24,6.75 Z" id="Shape"></path>
        </g>
    </g>
</svg>