<?xml version="1.0" encoding="UTF-8"?>
<svg width="48px" height="48px" viewBox="0 0 48 48" version="1.1" xmlns="http://www.w3.org/2000/svg" xmlns:xlink="http://www.w3.org/1999/xlink">
    <title>image-dark-fill</title>
    <g id="image-dark-fill" stroke="none" stroke-width="1" fill="none" fill-rule="evenodd">
        <rect id="frame" stroke-opacity="0.01" stroke="#979797" stroke-width="0.1" x="0.05" y="0.05" width="47.9" height="47.9"></rect>
        <g id="fill" transform="translate(7.5, 7.5)" fill="#FFFFFF">
            <path d="M28.5,0 C30.9852814,0 33,2.01471863 33,4.5 L33,28.5 C33,30.9852814 30.9852814,33 28.5,33 L4.5,33 C2.01471863,33 0,30.9852814 0,28.5 L0,4.5 C0,2.01471863 2.01471863,0 4.5,0 L28.5,0 Z M9.59033022,16.0953994 L3,23.6270625 L3,28.5 C3,29.3127964 3.64646958,29.9746018 4.45327888,29.9992862 L4.5,30 L28.5,30 C29.3284271,30 30,29.3284271 30,28.5 L30,25.2425625 L25.0606602,20.3033009 C24.4873373,19.729978 23.5653763,19.7177796 22.9772177,20.2667058 L22.9393398,20.3033009 L19.5,23.7426407 L11.7798554,16.0224961 C11.7563179,15.9989585 11.7320033,15.976211 11.7069522,15.9542913 C11.0834972,15.4087682 10.1358533,15.4719444 9.59033022,16.0953994 Z M24,6 C22.3431458,6 21,7.34314575 21,9 C21,10.6568542 22.3431458,12 24,12 C25.6568542,12 27,10.6568542 27,9 C27,7.34314575 25.6568542,6 24,6 Z" id="Shape"></path>
        </g>
    </g>
</svg>