<?xml version="1.0" encoding="UTF-8"?>
<svg width="48px" height="48px" viewBox="0 0 48 48" version="1.1" xmlns="http://www.w3.org/2000/svg" xmlns:xlink="http://www.w3.org/1999/xlink">
    <title>key-light</title>
    <g id="key-light" stroke="none" stroke-width="1" fill="none" fill-rule="evenodd">
        <rect id="frame" stroke-opacity="0.01" stroke="#979797" stroke-width="0.1" x="0.05" y="0.05" width="47.9" height="47.9"></rect>
        <g id="outline" transform="translate(3, 12.75)" fill="#000000" fill-rule="nonzero">
            <path d="M11.25,0 C15.8632207,0 19.8279042,2.77671765 21.5639049,6.75000732 L37.8604686,6.75 L40.7108346,10.3129574 C41.149097,10.8607854 41.149097,11.6392146 40.7108346,12.1870426 L37.8604686,15.75 L34.0364745,15.75 L32.853375,13.38375 L30.7332209,16.0340597 C30.4192876,16.4264763 29.8542859,16.49977 29.4516493,16.2080037 L29.4155048,16.1804726 C29.3595669,16.1357223 29.3089424,16.084708 29.2646223,16.0284286 L27.1888125,13.39275 L26.0104005,15.75 L21.5638237,15.7501784 C19.8277806,19.7233689 15.8631488,22.5 11.25,22.5 C5.03679656,22.5 0,17.4632034 0,11.25 C0,5.03679656 5.03679656,0 11.25,0 Z M11.25,1.5 C5.86522369,1.5 1.5,5.86522369 1.5,11.25 C1.5,16.6347763 5.86522369,21 11.25,21 C15.5879979,21 19.2643083,18.1669786 20.5296956,14.2501713 L25.0831875,14.25 L26.2438871,11.9289248 C26.29792,11.820859 26.3722568,11.7244044 26.4626711,11.6447482 L26.5023921,11.6116535 C26.9091686,11.291317 27.4986102,11.3613904 27.8189467,11.768167 L30.0045,14.5434375 L32.2312843,11.7603088 C32.3054351,11.6676203 32.396414,11.5899785 32.4992849,11.531374 L32.5440861,11.5074349 C33.0071909,11.2758825 33.5703219,11.4635928 33.8018743,11.9266977 L34.9633125,14.25 L37.1394375,14.25 L39.5395314,11.25 L37.139625,8.25 L20.5297562,8.25001621 C19.2644256,4.33311179 15.5880672,1.5 11.25,1.5 Z M9,6.75 C11.4852814,6.75 13.5,8.76471863 13.5,11.25 C13.5,13.7352814 11.4852814,15.75 9,15.75 C6.51471863,15.75 4.5,13.7352814 4.5,11.25 C4.5,8.76471863 6.51471863,6.75 9,6.75 Z M9,8.25 C7.34314575,8.25 6,9.59314575 6,11.25 C6,12.9068542 7.34314575,14.25 9,14.25 C10.6568542,14.25 12,12.9068542 12,11.25 C12,9.59314575 10.6568542,8.25 9,8.25 Z" id="Shape"></path>
        </g>
    </g>
</svg>