<?xml version="1.0" encoding="UTF-8"?>
<svg width="48px" height="48px" viewBox="0 0 48 48" version="1.1" xmlns="http://www.w3.org/2000/svg" xmlns:xlink="http://www.w3.org/1999/xlink">
    <title>key-light-fill</title>
    <g id="key-light-fill" stroke="none" stroke-width="1" fill="none" fill-rule="evenodd">
        <rect id="frame" stroke-opacity="0.01" stroke="#979797" stroke-width="0.1" x="0.05" y="0.05" width="47.9" height="47.9"></rect>
        <g id="fill" transform="translate(3, 12)" fill="#000000">
            <path d="M12,0 C17.0361181,0 21.347651,3.10231829 23.1277793,7.50013565 L38.1213203,7.5 L41.0303301,10.4090097 C41.9090097,11.2876894 41.9090097,12.7123106 41.0303301,13.5909903 L38.1213203,16.5 L33.4188612,16.5 L32.63775,14.157 L31.4651603,16.2093161 C31.0113313,17.0035169 30.0099347,17.2890404 29.2079433,16.8621668 L29.1627655,16.837242 C28.9011503,16.6877475 28.6843341,16.4709314 28.5348397,16.2093161 L27.38325,14.194125 L26.6387675,16.5 L23.1277031,16.5000527 C21.3475279,20.8977703 17.0360462,24 12,24 C5.372583,24 0,18.627417 0,12 C0,5.372583 5.372583,0 12,0 Z M7.5,9 C5.84314575,9 4.5,10.3431458 4.5,12 C4.5,13.6568542 5.84314575,15 7.5,15 C9.15685425,15 10.5,13.6568542 10.5,12 C10.5,10.3431458 9.15685425,9 7.5,9 Z" id="Shape"></path>
        </g>
    </g>
</svg>