<?xml version="1.0" encoding="UTF-8"?>
<svg width="48px" height="48px" viewBox="0 0 48 48" version="1.1" xmlns="http://www.w3.org/2000/svg" xmlns:xlink="http://www.w3.org/1999/xlink">
    <title>key-light-thick</title>
    <g id="key-light-thick" stroke="none" stroke-width="1" fill="none" fill-rule="evenodd">
        <rect id="frame" stroke-opacity="0.01" stroke="#979797" stroke-width="0.1" x="0.05" y="0.05" width="47.9" height="47.9"></rect>
        <g id="thick" transform="translate(3, 12)" fill="#000000" fill-rule="nonzero">
            <path d="M12,0 C16.4416494,0 20.319679,2.41314313 22.3945509,5.99989154 L38.3027756,6 L41.4707253,10.7519246 C41.9745745,11.5076982 41.9745745,12.4923018 41.4707253,13.2480754 L38.3027756,18 L33.572949,18 L32.589,16.0321875 L31.1942908,17.4270296 C30.5482028,18.0731176 29.5085583,18.085786 28.8470367,17.4650348 L28.798447,17.4175973 L27.45,16.04775 L26.473926,18 L22.3944759,18.0002382 C20.3195854,21.5869151 16.4415958,24 12,24 C5.372583,24 0,18.627417 0,12 C0,5.372583 5.372583,0 12,0 Z M12,3 C7.02943725,3 3,7.02943725 3,12 C3,16.9705627 7.02943725,21 12,21 C15.9186007,21 19.2522788,18.4956484 20.4878301,15.0001492 L24.6196875,15 L25.5879241,13.0637998 C25.6606434,12.9183612 25.7539462,12.7843068 25.864857,12.6657305 L25.9134596,12.6158717 C26.5776378,11.9620713 27.6460706,11.9704841 28.299871,12.6346624 L30.00825,14.3701875 L31.7553914,12.6232883 C31.8676121,12.5110676 31.995021,12.4153193 32.1337996,12.3387958 L32.1939612,12.3071851 C33.0275499,11.8903907 34.0411856,12.2282693 34.45798,13.061858 L35.427,15 L36.697125,15 L38.6971875,11.9998125 L36.697125,9 L20.4878965,9.00003864 C19.2523982,5.50444134 15.9186709,3 12,3 Z M9,7.5 C11.4852814,7.5 13.5,9.51471863 13.5,12 C13.5,14.4852814 11.4852814,16.5 9,16.5 C6.51471863,16.5 4.5,14.4852814 4.5,12 C4.5,9.51471863 6.51471863,7.5 9,7.5 Z M9,10.5 C8.17157288,10.5 7.5,11.1715729 7.5,12 C7.5,12.8284271 8.17157288,13.5 9,13.5 C9.82842712,13.5 10.5,12.8284271 10.5,12 C10.5,11.1715729 9.82842712,10.5 9,10.5 Z" id="Shape"></path>
        </g>
    </g>
</svg>