<?xml version="1.0" encoding="UTF-8"?>
<svg width="48px" height="48px" viewBox="0 0 48 48" version="1.1" xmlns="http://www.w3.org/2000/svg" xmlns:xlink="http://www.w3.org/1999/xlink">
    <title>link-dark</title>
    <g id="link-dark" stroke="none" stroke-width="1" fill="none" fill-rule="evenodd">
        <rect id="frame" stroke-opacity="0.01" stroke="#979797" stroke-width="0.1" x="0.05" y="0.05" width="47.9" height="47.9"></rect>
        <g id="outline" transform="translate(24, 24) rotate(-45) translate(-24, -24)translate(4.5, 16.5)" fill="#FFFFFF">
            <path d="M22.5,6 L22.5,9.75 C22.5,10.1642136 22.1642136,10.5 21.75,10.5 C21.3357864,10.5 21,10.1642136 21,9.75 L21,6 L21,6 C21,3.51471863 18.9852814,1.5 16.5,1.5 L6,1.5 C3.51471863,1.5 1.5,3.51471863 1.5,6 L1.5,9 C1.5,11.4852814 3.51471863,13.5 6,13.5 L14.25,13.5 C14.6642136,13.5 15,13.8357864 15,14.25 C15,14.6642136 14.6642136,15 14.25,15 L6,15 L6,15 C2.6862915,15 0,12.3137085 0,9 L0,6 C0,2.6862915 2.6862915,0 6,0 L16.5,0 C19.8137085,0 22.5,2.6862915 22.5,6 Z M39,6 L39,9 C39,12.3137085 36.3137085,15 33,15 L22.5,15 C19.1862915,15 16.5,12.3137085 16.5,9 L16.5,5.25 C16.5,4.83578644 16.8357864,4.5 17.25,4.5 C17.6642136,4.5 18,4.83578644 18,5.25 L18,9 L18,9 C18,11.4852814 20.0147186,13.5 22.5,13.5 L33,13.5 C35.4852814,13.5 37.5,11.4852814 37.5,9 L37.5,6 C37.5,3.51471863 35.4852814,1.5 33,1.5 L24.75,1.5 C24.3357864,1.5 24,1.16421356 24,0.75 C24,0.335786438 24.3357864,7.6089797e-17 24.75,0 L33,0 L33,0 C36.2383969,0 38.8775718,2.56557489 38.9958615,5.77506174 L39,6 Z" id="Shape"></path>
        </g>
    </g>
</svg>