<?xml version="1.0" encoding="UTF-8"?>
<svg width="48px" height="48px" viewBox="0 0 48 48" version="1.1" xmlns="http://www.w3.org/2000/svg" xmlns:xlink="http://www.w3.org/1999/xlink">
    <title>link-dark-thick</title>
    <g id="link-dark-thick" stroke="none" stroke-width="1" fill="none" fill-rule="evenodd">
        <rect id="frame" stroke-opacity="0.01" stroke="#979797" stroke-width="0.1" x="0.05" y="0.05" width="47.9" height="47.9"></rect>
        <g id="fill" transform="translate(7.3934, 7.3934)" fill="#FFFFFF">
            <path d="M18.7279221,12.363961 L19.7885822,13.4246212 C20.3743687,14.0104076 20.3743687,14.9601551 19.7885822,15.5459415 C19.2027958,16.131728 18.2530483,16.131728 17.6672619,15.5459415 L16.6066017,14.4852814 L16.6066017,14.4852814 C15.4350288,13.3137085 13.5355339,13.3137085 12.363961,14.4852814 L3.87867966,22.9705627 C2.70710678,24.1421356 2.70710678,26.0416306 3.87867966,27.2132034 L6,29.3345238 C7.17157288,30.5060967 9.07106781,30.5060967 10.2426407,29.3345238 L14.4852814,25.0918831 C15.0710678,24.5060967 16.0208153,24.5060967 16.6066017,25.0918831 C17.1923882,25.6776695 17.1923882,26.627417 16.6066017,27.2132034 L12.363961,31.4558441 L12.363961,31.4558441 C10.0208153,33.7989899 6.22182541,33.7989899 3.87867966,31.4558441 L1.75735931,29.3345238 C-0.585786438,26.991378 -0.585786438,23.1923882 1.75735931,20.8492424 L10.2426407,12.363961 C12.5857864,10.0208153 16.3847763,10.0208153 18.7279221,12.363961 Z M14.4852814,20.8492424 L13.4246212,19.7885822 C12.8388348,19.2027958 12.8388348,18.2530483 13.4246212,17.6672619 C14.0104076,17.0814755 14.9601551,17.0814755 15.5459415,17.6672619 L16.6066017,18.7279221 L16.6066017,18.7279221 C17.7781746,19.8994949 19.6776695,19.8994949 20.8492424,18.7279221 L29.3345238,10.2426407 C30.5060967,9.07106781 30.5060967,7.17157288 29.3345238,6 L27.2132034,3.87867966 C26.0416306,2.70710678 24.1421356,2.70710678 22.9705627,3.87867966 L18.7279221,8.12132034 C18.1421356,8.70710678 17.1923882,8.70710678 16.6066017,8.12132034 C16.0208153,7.53553391 16.0208153,6.58578644 16.6066017,6 L20.8492424,1.75735931 L20.8492424,1.75735931 C23.1923882,-0.585786438 26.991378,-0.585786438 29.3345238,1.75735931 L31.4558441,3.87867966 C33.7989899,6.22182541 33.7989899,10.0208153 31.4558441,12.363961 L22.9705627,20.8492424 C20.627417,23.1923882 16.8284271,23.1923882 14.4852814,20.8492424 Z" id="Shape"></path>
        </g>
    </g>
</svg>