<?xml version="1.0" encoding="UTF-8"?>
<svg width="48px" height="48px" viewBox="0 0 48 48" version="1.1" xmlns="http://www.w3.org/2000/svg" xmlns:xlink="http://www.w3.org/1999/xlink">
    <title>looking-glass-dark-fill</title>
    <g id="looking-glass-dark-fill" stroke="none" stroke-width="1" fill="none" fill-rule="evenodd">
        <rect id="frame" stroke-opacity="0.01" stroke="#979797" stroke-width="0.1" x="0.05" y="0.05" width="47.9" height="47.9"></rect>
        <g id="fill" transform="translate(6, 6)" fill="#FFFFFF">
            <path d="M13.5,0 C20.9558441,0 27,6.04415588 27,13.5 C27,16.852924 25.7776673,19.9203569 23.7543034,22.2809971 L25.6173755,24.1442911 L26.4053301,24.1442911 C27.5988043,24.1442911 28.7433969,24.6183969 29.5873106,25.4623106 L33.572592,29.447592 C34.7441649,30.6191649 34.7441649,32.5186598 33.572592,33.6902327 C32.4010191,34.8618055 30.5015242,34.8618055 29.3299513,33.6902327 L25.3446699,29.7049513 C24.5007562,28.8610376 24.0266504,27.716445 24.0266504,26.5229708 L24.0265178,25.735414 L22.1535914,23.8621542 C19.8104836,25.8210225 16.7929243,27 13.5,27 C6.04415588,27 0,20.9558441 0,13.5 C0,6.04415588 6.04415588,0 13.5,0 Z" id="Path"></path>
        </g>
    </g>
</svg>