<?xml version="1.0" encoding="UTF-8"?>
<svg width="48px" height="48px" viewBox="0 0 48 48" version="1.1" xmlns="http://www.w3.org/2000/svg" xmlns:xlink="http://www.w3.org/1999/xlink">
    <title>looking-glass-dark</title>
    <g id="looking-glass-dark" stroke="none" stroke-width="1" fill="none" fill-rule="evenodd">
        <rect id="frame" stroke-opacity="0.01" stroke="#979797" stroke-width="0.1" x="0.05" y="0.05" width="47.9" height="47.9"></rect>
        <g id="outline" transform="translate(6, 6)" fill="#FFFFFF" fill-rule="nonzero">
            <path d="M13.5,0 C20.9558441,0 27,6.04415588 27,13.5 C27,16.9880305 25.6771745,20.1670986 23.505834,22.5628936 L25.0873106,24.1442911 L26.4053301,24.1442911 C27.5988043,24.1442911 28.7433969,24.6183969 29.5873106,25.4623106 L33.572592,29.447592 C34.7441649,30.6191649 34.7441649,32.5186598 33.572592,33.6902327 C32.4010191,34.8618055 30.5015242,34.8618055 29.3299513,33.6902327 L25.3446699,29.7049513 C24.5007562,28.8610376 24.0266504,27.716445 24.0266504,26.5229708 L24.0266504,25.2049513 L22.4386669,23.6170409 C20.0577253,25.7222565 16.9280791,27 13.5,27 C6.04415588,27 0,20.9558441 0,13.5 C0,6.04415588 6.04415588,0 13.5,0 Z M26.4053301,25.6442911 L25.5264239,25.6442911 L25.5266504,26.5229708 C25.5266504,27.3186202 25.842721,28.081682 26.4053301,28.6442911 L30.3906115,32.6295725 C30.9763979,33.2153589 31.9261454,33.2153589 32.5119318,32.6295725 C33.0977182,32.0437861 33.0977182,31.0940386 32.5119318,30.5082521 L28.5266504,26.5229708 C27.9640413,25.9603616 27.2009796,25.6442911 26.4053301,25.6442911 Z M13.5,1.5 C6.872583,1.5 1.5,6.872583 1.5,13.5 C1.5,20.127417 6.872583,25.5 13.5,25.5 C16.5138201,25.5 19.2681432,24.3889613 21.3757305,22.5541227 L22.4356602,21.4926407 L22.4436874,21.5008252 C24.3442863,19.3777005 25.5,16.5738159 25.5,13.5 C25.5,6.872583 20.127417,1.5 13.5,1.5 Z" id="Shape"></path>
        </g>
    </g>
</svg>