<?xml version="1.0" encoding="UTF-8"?>
<svg width="48px" height="48px" viewBox="0 0 48 48" version="1.1" xmlns="http://www.w3.org/2000/svg" xmlns:xlink="http://www.w3.org/1999/xlink">
    <title>magic-dark-fill</title>
    <g id="magic-dark-fill" stroke="none" stroke-width="1" fill="none" fill-rule="evenodd">
        <rect id="frame" stroke-opacity="0.01" stroke="#979797" stroke-width="0.1" x="0.05" y="0.05" width="47.9" height="47.9"></rect>
        <g id="fill" transform="translate(3, 3)" fill="#FFFFFF">
            <path d="M14.25,1.5 C14.25,6.88477631 18.6152237,11.25 24,11.25 C26,11.25 26,14.25 24,14.25 C18.6152237,14.25 14.25,18.6152237 14.25,24 C14.25,26 11.25,26 11.25,24 C11.25,18.6152237 6.88477631,14.25 1.5,14.25 C-0.5,14.25 -0.5,11.25 1.5,11.25 C6.88477631,11.25 11.25,6.88477631 11.25,1.5 C11.25,-0.5 14.25,-0.5 14.25,1.5 Z M36,15 C36,17.4852814 38.0147186,19.5 40.5,19.5 C42.5,19.5 42.5,22.5 40.5,22.5 C38.0147186,22.5 36,24.5147186 36,27 C36,29 33,29 33,27 C33,24.5147186 30.9852814,22.5 28.5,22.5 C26.5,22.5 26.5,19.5 28.5,19.5 C30.9852814,19.5 33,17.4852814 33,15 C33,13 36,13 36,15 Z M21,31.5 C21,33.1568542 22.3431458,34.5 24,34.5 C26,34.5 26,37.5 24,37.5 C22.3431458,37.5 21,38.8431458 21,40.5 C21,42.5 18,42.5 18,40.5 C18,38.8431458 16.6568542,37.5 15,37.5 C13,37.5 13,34.5 15,34.5 C16.6568542,34.5 18,33.1568542 18,31.5 C18,29.5 21,29.5 21,31.5 Z" id="Combined-Shape"></path>
        </g>
    </g>
</svg>