<?xml version="1.0" encoding="UTF-8"?>
<svg width="48px" height="48px" viewBox="0 0 48 48" version="1.1" xmlns="http://www.w3.org/2000/svg" xmlns:xlink="http://www.w3.org/1999/xlink">
    <title>magic-dark-thick 2</title>
    <g id="magic-dark-thick" stroke="none" stroke-width="1" fill="none" fill-rule="evenodd">
        <rect id="frame" stroke-opacity="0.01" stroke="#979797" stroke-width="0.1" x="0.05" y="0.05" width="47.9" height="47.9"></rect>
        <g id="thick" transform="translate(3, 3)" fill="#FFFFFF" fill-rule="nonzero">
            <path d="M19.5,28.5 C19.5,30.9852814 21.5147186,33 24,33 C26,33 26,36 24,36 C21.5147186,36 19.5,38.0147186 19.5,40.5 C19.5,42.5 16.5,42.5 16.5,40.5 C16.5,38.0147186 14.4852814,36 12,36 C10,36 10,33 12,33 C14.4852814,33 16.5,30.9852814 16.5,28.5 C16.5,26.5 19.5,26.5 19.5,28.5 Z M18,33.000375 L17.9840036,33.0219442 C17.5662546,33.5738984 17.0738984,34.0662546 16.5219442,34.4840036 L16.500375,34.5 L16.5219442,34.5159964 C17.0738984,34.9337454 17.5662546,35.4261016 17.9840036,35.9780558 L18,35.9994375 L18.0159964,35.9780558 C18.4337454,35.4261016 18.9261016,34.9337454 19.4780558,34.5159964 L19.4994375,34.5 L19.4780558,34.4840036 C18.9261016,34.0662546 18.4337454,33.5738984 18.0159964,33.0219442 L18,33.000375 Z M34.5,13.5 C34.5,16.8137085 37.1862915,19.5 40.5,19.5 C42.5,19.5 42.5,22.5 40.5,22.5 C37.1862915,22.5 34.5,25.1862915 34.5,28.5 C34.5,30.5 31.5,30.5 31.5,28.5 C31.5,25.1862915 28.8137085,22.5 25.5,22.5 C23.5,22.5 23.5,19.5 25.5,19.5 C28.8137085,19.5 31.5,16.8137085 31.5,13.5 C31.5,11.5 34.5,11.5 34.5,13.5 Z M15,1.5 C15,7.29898987 19.7010101,12 25.5,12 C27.5,12 27.5,15 25.5,15 C19.7010101,15 15,19.7010101 15,25.5 C15,27.5 12,27.5 12,25.5 C12,19.7010101 7.29898987,15 1.5,15 C-0.5,15 -0.5,12 1.5,12 C7.29898987,12 12,7.29898987 12,1.5 C12,-0.5 15,-0.5 15,1.5 Z M33,18.476625 L32.9239096,18.5892841 C32.2959688,19.5035294 31.5035294,20.2959688 30.5892841,20.9239096 L30.476625,21 L30.5892841,21.0760904 C31.5035294,21.7040312 32.2959688,22.4964706 32.9239096,23.4107159 L32.9998125,23.5231875 L33.0760904,23.4107159 C33.7040312,22.4964706 34.4964706,21.7040312 35.4107159,21.0760904 L35.5231875,21 L35.4107159,20.9239096 C34.4964706,20.2959688 33.7040312,19.5035294 33.0760904,18.5892841 L33,18.476625 Z M13.5,7.6905 L13.4931545,7.70402726 C12.209326,10.1807909 10.1807909,12.209326 7.70402726,13.4931545 L7.6905,13.4998125 L7.70402726,13.5068455 C10.1807909,14.790674 12.209326,16.8192091 13.4931545,19.2959727 L13.5,19.3093125 L13.5068455,19.2959727 C14.790674,16.8192091 16.8192091,14.790674 19.2959727,13.5068455 L19.3093125,13.5 L19.2959727,13.4931545 C16.8192091,12.209326 14.790674,10.1807909 13.5068455,7.70402726 L13.5,7.6905 Z" id="Combined-Shape"></path>
        </g>
    </g>
</svg>