<?xml version="1.0" encoding="UTF-8"?>
<svg width="48px" height="48px" viewBox="0 0 48 48" version="1.1" xmlns="http://www.w3.org/2000/svg" xmlns:xlink="http://www.w3.org/1999/xlink">
    <title>magic-light</title>
    <g id="magic-light" stroke="none" stroke-width="1" fill="none" fill-rule="evenodd">
        <rect id="frame" stroke-opacity="0.01" stroke="#979797" stroke-width="0.1" x="0.05" y="0.05" width="47.9" height="47.9"></rect>
        <g id="outline" transform="translate(5.25, 5.25)" fill="#000000" fill-rule="nonzero">
            <path d="M11.25,0.75 C11.25,-0.25 12.75,-0.25 12.75,0.75 C12.75,6.54898987 17.4510101,11.25 23.25,11.25 C24.25,11.25 24.25,12.75 23.25,12.75 C17.4510101,12.75 12.75,17.4510101 12.75,23.25 C12.75,24.25 11.25,24.25 11.25,23.25 C11.25,17.4510101 6.54898987,12.75 0.75,12.75 C-0.25,12.75 -0.25,11.25 0.75,11.25 C6.54898987,11.25 11.25,6.54898987 11.25,0.75 Z M12,4.9344375 L11.9474717,5.07367492 C10.7305497,8.22315172 8.22315172,10.7305497 5.07367492,11.9474717 L4.9344375,12 L5.07367492,12.0525283 C8.22315172,13.2694503 10.7305497,15.7768483 11.9474717,18.9263251 L12,19.065375 L12.0525283,18.9263251 C13.2694503,15.7768483 15.7768483,13.2694503 18.9263251,12.0525283 L19.065375,12 L18.9263251,11.9474717 C15.7768483,10.7305497 13.2694503,8.22315172 12.0525283,5.07367492 L12,4.9344375 Z M31.5,12.75 C31.5,11.75 33,11.75 33,12.75 C33,15.6494949 35.3505051,18 38.25,18 C39.25,18 39.25,19.5 38.25,19.5 C35.3505051,19.5 33,21.8505051 33,24.75 C33,25.75 31.5,25.75 31.5,24.75 C31.5,21.8505051 29.1494949,19.5 26.25,19.5 C25.25,19.5 25.25,18 26.25,18 C29.1494949,18 31.5,15.6494949 31.5,12.75 Z M32.25,15.84525 L32.2465773,15.8520136 C31.604663,17.0903954 30.5903954,18.104663 29.3520136,18.7465773 L29.34525,18.75 L29.3520136,18.7534227 C30.5903954,19.395337 31.604663,20.4096046 32.2465773,21.6479864 L32.25,21.6545625 L32.2534227,21.6479864 C32.895337,20.4096046 33.9096046,19.395337 35.1479864,18.7534227 L35.1545625,18.75 L35.1479864,18.7465773 C33.9096046,18.104663 32.895337,17.0903954 32.2534227,15.8520136 L32.25,15.84525 Z M16.5,27.75 C16.5,26.75 18,26.75 18,27.75 C18,29.8210678 19.6789322,31.5 21.75,31.5 C22.75,31.5 22.75,33 21.75,33 C19.6789322,33 18,34.6789322 18,36.75 C18,37.75 16.5,37.75 16.5,36.75 C16.5,34.6789322 14.8210678,33 12.75,33 C11.75,33 11.75,31.5 12.75,31.5 C14.8210678,31.5 16.5,29.8210678 16.5,27.75 Z M17.25,30.455625 L17.2134294,30.5154759 C16.786029,31.2038309 16.2038309,31.786029 15.5154759,32.2134294 L15.455625,32.2498125 L15.5154759,32.2865706 C16.2038309,32.713971 16.786029,33.2961691 17.2134294,33.9845241 L17.25,34.0441875 L17.2865706,33.9845241 C17.713971,33.2961691 18.2961691,32.713971 18.9845241,32.2865706 L19.0441875,32.25 L18.9845241,32.2134294 C18.2961691,31.786029 17.713971,31.2038309 17.2865706,30.5154759 L17.25,30.455625 Z" id="Combined-Shape"></path>
        </g>
    </g>
</svg>