<?xml version="1.0" encoding="UTF-8"?>
<svg width="48px" height="48px" viewBox="0 0 48 48" version="1.1" xmlns="http://www.w3.org/2000/svg" xmlns:xlink="http://www.w3.org/1999/xlink">
    <title>magic-light-thick</title>
    <g id="magic-light-thick" stroke="none" stroke-width="1" fill="none" fill-rule="evenodd">
        <rect id="frame" stroke-opacity="0.01" stroke="#979797" stroke-width="0.1" x="0.05" y="0.05" width="47.9" height="47.9"></rect>
        <g id="thick" transform="translate(3, 3)" fill="#000000" fill-rule="nonzero">
            <path d="M11.25,1.5 C11.25,-0.5 14.25,-0.5 14.25,1.5 C14.25,6.88477631 18.6152237,11.25 24,11.25 C26,11.25 26,14.25 24,14.25 C18.6152237,14.25 14.25,18.6152237 14.25,24 C14.25,26 11.25,26 11.25,24 C11.25,18.6152237 6.88477631,14.25 1.5,14.25 C-0.5,14.25 -0.5,11.25 1.5,11.25 C6.88477631,11.25 11.25,6.88477631 11.25,1.5 Z M12.7498125,7.5046875 L12.7346159,7.53399839 C11.5494943,9.73593148 9.73593148,11.5494943 7.53399839,12.7346159 L7.5046875,12.7498125 L7.53399839,12.7653841 C9.73593148,13.9505057 11.5494943,15.7640685 12.7346159,17.9660016 L12.75,17.995125 L12.7653841,17.9660016 C13.9505057,15.7640685 15.7640685,13.9505057 17.9660016,12.7653841 L17.995125,12.7498125 L17.9660016,12.7346159 C15.7640685,11.5494943 13.9505057,9.73593148 12.7653841,7.53399839 L12.7498125,7.5046875 Z M33,15 C33,13 36,13 36,15 C36,17.4852814 38.0147186,19.5 40.5,19.5 C42.5,19.5 42.5,22.5 40.5,22.5 C38.0147186,22.5 36,24.5147186 36,27 C36,29 33,29 33,27 C33,24.5147186 30.9852814,22.5 28.5,22.5 C26.5,22.5 26.5,19.5 28.5,19.5 C30.9852814,19.5 33,17.4852814 33,15 Z M34.5,19.500375 L34.4840036,19.5219442 C34.0662546,20.0738984 33.5738984,20.5662546 33.0219442,20.9840036 L33.000375,21 L33.0219442,21.0159964 C33.5738984,21.4337454 34.0662546,21.9261016 34.4840036,22.4780558 L34.5,22.4994375 L34.5159964,22.4780558 C34.9337454,21.9261016 35.4261016,21.4337454 35.9780558,21.0159964 L35.9994375,21 L35.9780558,20.9840036 C35.4261016,20.5662546 34.9337454,20.0738984 34.5159964,19.5219442 L34.5,19.500375 Z M18,31.5 C18,29.5 21,29.5 21,31.5 C21,33.1568542 22.3431458,34.5 24,34.5 C26,34.5 26,37.5 24,37.5 C22.3431458,37.5 21,38.8431458 21,40.5 C21,42.5 18,42.5 18,40.5 C18,38.8431458 16.6568542,37.5 15,37.5 C13,37.5 13,34.5 15,34.5 C16.6568542,34.5 18,33.1568542 18,31.5 Z M19.5,35.468625 L19.4951448,35.4742308 C19.3322863,35.658297 19.158297,35.8322863 18.9742308,35.9951448 L18.968625,36 L18.9742308,36.0048552 C19.158297,36.1677137 19.3322863,36.341703 19.4951448,36.5257692 L19.4998125,36.5311875 L19.5048552,36.5257692 C19.6677137,36.341703 19.841703,36.1677137 20.0257692,36.0048552 L20.0311875,36 L20.0257692,35.9951448 C19.841703,35.8322863 19.6677137,35.658297 19.5048552,35.4742308 L19.5,35.468625 Z" id="Combined-Shape"></path>
        </g>
    </g>
</svg>