<?xml version="1.0" encoding="UTF-8"?>
<svg width="48px" height="48px" viewBox="0 0 48 48" version="1.1" xmlns="http://www.w3.org/2000/svg" xmlns:xlink="http://www.w3.org/1999/xlink">
    <title>paperplane-dark</title>
    <g id="paperplane-dark" stroke="none" stroke-width="1" fill="none" fill-rule="evenodd">
        <rect id="frame" stroke-opacity="0.01" stroke="#979797" stroke-width="0.1" x="0.05" y="0.05" width="47.9" height="47.9"></rect>
        <path d="M40.9902346,6.56693961 C41.3786628,6.71080193 41.5769227,7.14230869 41.4330604,7.53073695 L28.2650027,43.0844927 C28.1260984,43.4595342 27.8431742,43.7635754 27.479084,43.9290709 C26.7249117,44.2718765 25.8356354,43.9383979 25.4928298,43.1842256 L19.8394477,30.746785 C19.7187321,30.4812107 19.8361633,30.1680609 20.1017376,30.0473453 C20.1703815,30.0161436 20.24491,30 20.3203125,30 C20.8199239,30 21.273468,30.2918937 21.4804206,30.7466268 L26.8583795,42.5635212 L26.8583795,42.5635212 L39.459375,8.5404375 L5.43647879,21.1416205 L15.9797428,25.9340332 C17.0515464,26.4212187 18.3092421,26.2364454 19.1956316,25.4615737 L28.3782601,17.4342243 C28.6953492,17.1570286 29.1730213,17.1730405 29.4708358,17.4708481 C29.7442474,17.7442533 29.7442525,18.1875359 29.4708473,18.4609474 C29.4598597,18.4719353 29.4485093,18.4825544 29.4368149,18.4927869 L20.1837617,26.5892086 C18.8541497,27.752619 16.9667641,28.0303473 15.3583777,27.2992626 L4.81577437,22.5071702 L4.81577437,22.5071702 C4.45168414,22.3416746 4.16875989,22.0376334 4.02985565,21.662592 C3.74213102,20.8857355 4.13865075,20.0227219 4.91550726,19.7349973 L40.4692631,6.56693961 C40.6373414,6.50468837 40.8221562,6.50468837 40.9902346,6.56693961 Z" id="outline" fill="#FFFFFF" fill-rule="nonzero"></path>
    </g>
</svg>