<?xml version="1.0" encoding="UTF-8"?>
<svg width="48px" height="48px" viewBox="0 0 48 48" version="1.1" xmlns="http://www.w3.org/2000/svg" xmlns:xlink="http://www.w3.org/1999/xlink">
    <title>paperplane-dark-fill</title>
    <g id="paperplane-dark-fill" stroke="none" stroke-width="1" fill="none" fill-rule="evenodd">
        <rect id="frame" stroke-opacity="0.01" stroke="#979797" stroke-width="0.1" x="0.05" y="0.05" width="47.9" height="47.9"></rect>
        <path d="M40.4692631,6.56693961 L5.06415916,19.6799411 C4.28730265,19.9676657 3.89078292,20.8306792 4.17850755,21.6075357 C4.3227562,21.9970071 4.62202946,22.3092382 5.00504068,22.4698558 L15.4376364,26.8448153 C16.4072472,27.2514262 17.5189615,27.1207589 18.3678662,26.5004055 L30,18 L30,18 L20.773861,28.5441589 C19.998254,29.4305668 19.8131018,30.688824 20.3004916,31.7610816 L25.4928298,43.1842256 C25.8356354,43.9383979 26.7249117,44.2718765 27.479084,43.9290709 C27.8431742,43.7635754 28.1260984,43.4595342 28.2650027,43.0844927 L41.4330604,7.53073695 C41.5769227,7.14230869 41.3786628,6.71080193 40.9902346,6.56693961 C40.8221562,6.50468837 40.6373414,6.50468837 40.4692631,6.56693961 Z" id="fill" fill="#FFFFFF"></path>
    </g>
</svg>