<?xml version="1.0" encoding="UTF-8"?>
<svg width="48px" height="48px" viewBox="0 0 48 48" version="1.1" xmlns="http://www.w3.org/2000/svg" xmlns:xlink="http://www.w3.org/1999/xlink">
    <title>paperplane-dark-thick</title>
    <g id="paperplane-dark-thick" stroke="none" stroke-width="1" fill="none" fill-rule="evenodd">
        <rect id="frame" stroke-opacity="0.01" stroke="#979797" stroke-width="0.1" x="0.05" y="0.05" width="47.9" height="47.9"></rect>
        <path d="M40.9902346,6.56693961 C41.3786628,6.71080193 41.5769227,7.14230869 41.4330604,7.53073695 L28.2650027,43.0844927 C28.1260984,43.4595342 27.8431742,43.7635754 27.479084,43.9290709 C26.7249117,44.2718765 25.8356354,43.9383979 25.4928298,43.1842256 L20.1594984,31.4508966 C19.9249653,30.9349237 20.1531173,30.3265183 20.6690902,30.0919852 C20.8024554,30.0313647 20.9472538,30 21.09375,30 C22.0660859,30 22.9504645,30.5630321 23.361929,31.4440168 L26.7166875,38.626875 L36.9189375,11.080875 L9.3729375,21.283125 L17.4800625,24.96825 L24.898098,18.7278178 C25.5319507,18.1732202 26.4872455,18.2050475 27.0827788,18.8006043 C27.630051,19.3478981 27.6300335,20.2352193 27.0827397,20.7824915 C27.0610267,20.8042036 27.0386061,20.8251962 27.015514,20.8454352 L19.4561065,27.2237931 C18.5696646,28.0007165 17.3104001,28.1865455 16.2373297,27.6987862 L4.81577437,22.5071702 C4.45168414,22.3416746 4.16875989,22.0376334 4.02985565,21.662592 C3.74213102,20.8857355 4.13865075,20.0227219 4.91550726,19.7349973 L40.4692631,6.56693961 C40.6373414,6.50468837 40.8221562,6.50468837 40.9902346,6.56693961 Z" id="thick" fill="#FFFFFF" fill-rule="nonzero"></path>
    </g>
</svg>