<?xml version="1.0" encoding="UTF-8"?>
<svg width="48px" height="48px" viewBox="0 0 48 48" version="1.1" xmlns="http://www.w3.org/2000/svg" xmlns:xlink="http://www.w3.org/1999/xlink">
    <title>person-dark-thick</title>
    <g id="person-dark-thick" stroke="none" stroke-width="1" fill="none" fill-rule="evenodd">
        <rect id="frame" stroke-opacity="0.01" stroke="#979797" stroke-width="0.1" x="0.05" y="0.05" width="47.9" height="47.9"></rect>
        <g id="thick" transform="translate(7.5, 3)" fill="#FFFFFF" fill-rule="nonzero">
            <path d="M16.5,0 C22.2989899,0 27,5.372583 27,12 C27,18.627417 22.2989899,24 16.5,24 C10.7010101,24 6,18.627417 6,12 C6,5.372583 10.7010101,0 16.5,0 Z M16.5,3 C12.453583,3 9,6.94695204 9,12 C9,17.053048 12.453583,21 16.5,21 C20.546417,21 24,17.053048 24,12 C24,6.94695204 20.546417,3 16.5,3 Z M20.3978522,15.0002948 C19.6197496,16.7935363 18.165544,18 16.5,18 C14.834456,18 13.3802504,16.7935363 12.6021478,15.0002948 L20.3978522,15.0002948 Z M32.3370296,30.4871173 C32.7745598,31.5246848 33,32.6393351 33,33.7653809 L33,39 L0,39 L0,33.7653809 C0,29.1054783 3.77776268,25.3279548 8.43766526,25.3280461 C9.52040157,25.3280673 10.5926021,25.5364799 11.5958712,25.9414743 L11.7159288,25.9910165 C13.3105774,26.6637218 14.9052887,27 16.5,27 C18.0448766,27 19.5897532,26.6844108 21.1346297,26.0532323 L21.2841339,25.9911653 C25.5778253,24.1803903 30.5264034,26.1933631 32.3370296,30.4871173 Z M22.4773125,28.74375 L22.4499229,28.7553896 C20.5480286,29.557498 18.6144357,29.9763769 16.6669601,29.999029 L16.5,30 C14.4959155,30 12.506049,29.5803445 10.5502652,28.7552937 C9.88161061,28.4733298 9.16328044,28.3280603 8.4376065,28.3280461 C5.43455817,28.3279873 3,30.7623913 3,33.7653809 L3,36 L30,36 L30,33.7654396 C30,33.077959 29.8696055,32.3970696 29.6161358,31.7587646 L29.5727524,31.6527809 C28.4175729,28.9133657 25.2804002,27.6145376 22.5328715,28.7210265 L22.4773125,28.74375 Z" id="Shape"></path>
        </g>
    </g>
</svg>