<?xml version="1.0" encoding="UTF-8"?>
<svg width="48px" height="48px" viewBox="0 0 48 48" version="1.1" xmlns="http://www.w3.org/2000/svg" xmlns:xlink="http://www.w3.org/1999/xlink">
    <title>person-plus-light-fill</title>
    <g id="person-plus-light-fill" stroke="none" stroke-width="1" fill="none" fill-rule="evenodd">
        <rect id="frame" stroke-opacity="0.01" stroke="#979797" stroke-width="0.1" x="0.05" y="0.05" width="47.9" height="47.9"></rect>
        <g id="fill" transform="translate(9, 4.5)" fill="#000000">
            <path d="M26.25,21 C31.6347763,21 36,25.3652237 36,30.75 C36,36.1347763 31.6347763,40.5 26.25,40.5 C20.8652237,40.5 16.5,36.1347763 16.5,30.75 C16.5,25.3652237 20.8652237,21 26.25,21 Z M27.75,24 L24.75,24 L24.75,29.25 L19.5,29.25 L19.5,32.25 L24.75,32.25 L24.75,37.5 L27.75,37.5 L27.75,32.25 L33,32.25 L33,29.25 L27.75,29.25 L27.75,24 Z M7.49983362,23.9343276 C8.47970743,23.9343276 9.44966868,24.1262944 10.3550075,24.4989882 L10.4727242,24.5486243 C11.0819843,24.8115755 11.6980513,25.0200251 12.3209286,25.1739653 C11.6300042,26.8975234 11.25,28.7793843 11.25,30.75 C11.25,32.5970883 11.5838565,34.3662002 12.1945176,36.0002839 L0,36 L0,31.434494 C0,27.2923584 3.35769799,23.9343276 7.49983362,23.9343276 Z M15,0 C19.9705627,0 24,5.03679656 24,11.25 C24,12.9766669 23.6888066,14.6124799 23.1327025,16.0745857 C19.2527565,16.8945201 15.9263654,19.2141608 13.7881376,22.398436 C9.39079897,21.6592461 6,16.9496002 6,11.25 C6,5.03679656 10.0294373,0 15,0 Z" id="Shape"></path>
        </g>
    </g>
</svg>