<?xml version="1.0" encoding="UTF-8"?>
<svg width="48px" height="48px" viewBox="0 0 48 48" version="1.1" xmlns="http://www.w3.org/2000/svg" xmlns:xlink="http://www.w3.org/1999/xlink">
    <title>person-dark-fill</title>
    <g id="person-dark-fill" stroke="none" stroke-width="1" fill="none" fill-rule="evenodd">
        <rect id="frame" stroke-opacity="0.01" stroke="#979797" stroke-width="0.1" x="0.05" y="0.05" width="47.9" height="47.9"></rect>
        <g id="fill" transform="translate(9, 4.5)" fill="#FFFFFF">
            <path d="M0,36 L0,31.434494 C0,27.2923584 3.35769799,23.9344195 7.49983362,23.9343276 C8.52231064,23.934305 9.5339944,24.143352 10.4727242,24.5486243 C11.9422026,25.182838 13.4512787,25.5 15,25.5 C16.4987626,25.5 17.9603964,25.20297 19.3849014,24.6089101 L19.5272758,24.5486243 C23.3301448,22.906834 27.7439131,24.6587345 29.3857034,28.4616034 C29.7909757,29.4003332 30,30.412017 30,31.434494 L30,36 L0,36 Z M15,0 C19.9705627,0 24,5.03679656 24,11.25 C24,17.4632034 19.9705627,22.5 15,22.5 C10.0294373,22.5 6,17.4632034 6,11.25 C6,5.03679656 10.0294373,0 15,0 Z M18.8978522,15.0002948 L11.1021478,15.0002948 C11.8802504,16.7935363 13.334456,18 15,18 C16.665544,18 18.1197496,16.7935363 18.8978522,15.0002948 Z" id="Shape"></path>
        </g>
    </g>
</svg>