<?xml version="1.0" encoding="UTF-8"?>
<svg width="48px" height="48px" viewBox="0 0 48 48" version="1.1" xmlns="http://www.w3.org/2000/svg" xmlns:xlink="http://www.w3.org/1999/xlink">
    <title>person-plus-dark</title>
    <g id="person-plus-dark" stroke="none" stroke-width="1" fill="none" fill-rule="evenodd">
        <rect id="frame" stroke-opacity="0.01" stroke="#979797" stroke-width="0.1" x="0.05" y="0.05" width="47.9" height="47.9"></rect>
        <g id="outline" transform="translate(7.5, 3)" fill="#FFFFFF" fill-rule="nonzero">
            <path d="M27.75,22.5 C33.1347763,22.5 37.5,26.8652237 37.5,32.25 C37.5,37.6347763 33.1347763,42 27.75,42 C22.3652237,42 18,37.6347763 18,32.25 C18,26.8652237 22.3652237,22.5 27.75,22.5 Z M27.75,24 C23.1936508,24 19.5,27.6936508 19.5,32.25 C19.5,36.8063492 23.1936508,40.5 27.75,40.5 C32.3063492,40.5 36,36.8063492 36,32.25 C36,27.6936508 32.3063492,24 27.75,24 Z M8.43766526,25.3280461 C9.52040157,25.3280461 10.5926021,25.5364799 11.5958712,25.9414743 L11.7159288,25.9910165 C12.6657526,26.3917013 13.6155987,26.6730294 14.5654538,26.8350321 C14.3734005,27.3007482 14.2057887,27.7791442 14.0637,28.2683977 C13.144347,28.0939265 12.2277139,27.8202936 11.3154838,27.4487656 L11.133097,27.3731551 C10.2799859,27.0134081 9.36349573,26.8280643 8.43763588,26.8280461 C4.60616043,26.8279711 1.5,29.9339348 1.5,33.7653809 L1.5,37.5 L14.4983622,37.5002404 C14.7027292,38.0156289 14.9362931,38.5162618 15.1970131,39.0000984 L0,39.0000984 L0,33.7653809 C0,29.1054783 3.77776268,25.3280461 8.43766526,25.3280461 Z M28.5,27 L28.5,31.5 L33,31.5 L33,33 L28.5,33 L28.5,37.5 L27,37.5 L27,33 L22.5,33 L22.5,31.5 L27,31.5 L27,27 L28.5,27 Z M16.5,0 C22.2989899,0 27,5.372583 27,12 C27,14.2589036 26.4538675,16.3720288 25.5042712,18.176326 C24.802984,18.2869796 24.1189091,18.4491046 23.4557863,18.658418 C24.7302355,16.8523338 25.5,14.5375986 25.5,12 C25.5,6.15976752 21.4227034,1.5 16.5,1.5 C11.5772966,1.5 7.5,6.15976752 7.5,12 C7.5,17.8402325 11.5772966,22.5 16.5,22.5 C16.806387,22.5 17.1094991,22.4819492 17.4085571,22.4466863 C16.9489614,22.9306707 16.5232179,23.4473942 16.1349055,23.9926246 C10.5051301,23.7731989 6,18.4878735 6,12 C6,5.372583 10.7010101,0 16.5,0 Z" id="Shape"></path>
        </g>
    </g>
</svg>