<?xml version="1.0" encoding="UTF-8"?>
<svg width="48px" height="48px" viewBox="0 0 48 48" version="1.1" xmlns="http://www.w3.org/2000/svg" xmlns:xlink="http://www.w3.org/1999/xlink">
    <title>person-plus-dark-thick</title>
    <g id="person-plus-dark-thick" stroke="none" stroke-width="1" fill="none" fill-rule="evenodd">
        <rect id="frame" stroke-opacity="0.01" stroke="#979797" stroke-width="0.1" x="0.05" y="0.05" width="47.9" height="47.9"></rect>
        <g id="thick" transform="translate(7.5, 3)" fill="#FFFFFF" fill-rule="nonzero">
            <path d="M27.75,22.5 C33.1347763,22.5 37.5,26.8652237 37.5,32.25 C37.5,37.6347763 33.1347763,42 27.75,42 C22.3652237,42 18,37.6347763 18,32.25 C18,26.8652237 22.3652237,22.5 27.75,22.5 Z M8.43766526,25.3280461 C9.52040157,25.3280461 10.5926021,25.5364799 11.5958712,25.9414743 L11.7159288,25.9910165 C12.4164601,26.2865369 13.1170036,26.5171316 13.8175538,26.6828133 C13.4489608,27.6032537 13.1693778,28.5688343 12.9889284,29.5688805 C12.1712029,29.3675199 11.3578286,29.0959657 10.5502652,28.7552937 C9.88161061,28.4733298 9.16328044,28.3280603 8.4376065,28.3280461 C5.43455817,28.3279873 3,30.7623913 3,33.7653809 L3,36 L13.2226495,36.0003261 C13.4926148,37.0491164 13.8731586,38.0535127 14.3511114,39.0003453 L0,39 L0,33.7653809 C0,29.1054783 3.77776268,25.3280461 8.43766526,25.3280461 Z M29.25,25.5 L26.25,25.5 L26.25,30.75 L21,30.75 L21,33.75 L26.25,33.75 L26.25,39 L29.25,39 L29.25,33.75 L34.5,33.75 L34.5,30.75 L29.25,30.75 L29.25,25.5 Z M16.5,0 C22.2989899,0 27,5.372583 27,12 C27,13.9280236 26.6021428,15.7498477 25.8951382,17.3640895 C24.3938204,17.5487373 22.9614882,17.955625 21.631608,18.5504717 C23.0794482,16.9227919 24,14.6088108 24,12 C24,6.94695204 20.546417,3 16.5,3 C12.453583,3 9,6.94695204 9,12 C9,17.053048 12.453583,21 16.5,21 C17.0316359,21 17.5530384,20.9318683 18.0577195,20.8020478 C16.9916609,21.7049236 16.053664,22.754317 15.2744102,23.9189152 C10.0529637,23.2255124 6,18.1536821 6,12 C6,5.372583 10.7010101,0 16.5,0 Z" id="Shape"></path>
        </g>
    </g>
</svg>