<?xml version="1.0" encoding="UTF-8"?>
<svg width="48px" height="48px" viewBox="0 0 48 48" version="1.1" xmlns="http://www.w3.org/2000/svg" xmlns:xlink="http://www.w3.org/1999/xlink">
    <title>person-dark</title>
    <g id="person-dark" stroke="none" stroke-width="1" fill="none" fill-rule="evenodd">
        <rect id="frame" stroke-opacity="0.01" stroke="#979797" stroke-width="0.1" x="0.05" y="0.05" width="47.9" height="47.9"></rect>
        <g id="outline" transform="translate(7.5, 3)" fill="#FFFFFF" fill-rule="nonzero">
            <path d="M16.5,0 C22.2989899,0 27,5.372583 27,12 C27,18.627417 22.2989899,24 16.5,24 C10.7010101,24 6,18.627417 6,12 C6,5.372583 10.7010101,0 16.5,0 Z M16.5,1.5 C11.5772966,1.5 7.5,6.15976752 7.5,12 C7.5,17.8402325 11.5772966,22.5 16.5,22.5 C21.4227034,22.5 25.5,17.8402325 25.5,12 C25.5,6.15976752 21.4227034,1.5 16.5,1.5 Z M14.2824861,15.0002434 C14.849279,15.9304863 15.6605858,16.5 16.5,16.5 C17.3394142,16.5 18.150721,15.9304863 18.7175139,15.0002434 L20.3978522,15.0002948 C19.6197496,16.7935363 18.165544,18 16.5,18 C14.834456,18 13.3802504,16.7935363 12.6021478,15.0002948 L14.2824861,15.0002434 Z M32.3370296,30.4871173 C32.7745598,31.5246848 33,32.6393351 33,33.7653809 L33,39 L0,39 L0,33.7653809 C0,29.1054783 3.77776268,25.3279548 8.43766526,25.3280461 C9.52040157,25.3280673 10.5926021,25.5364799 11.5958712,25.9414743 L11.7159288,25.9910165 C13.3105774,26.6637218 14.9052887,27 16.5,27 C18.0448766,27 19.5897532,26.6844108 21.1346297,26.0532323 L21.2841339,25.9911653 C25.5778253,24.1803903 30.5264034,26.1933631 32.3370296,30.4871173 Z M21.972974,27.3294349 L21.8670284,27.3732774 C20.1437755,28.1000453 18.4047265,28.4774479 16.6587445,28.4990194 L16.5,28.5 C14.753479,28.5 13.0137001,28.1439204 11.2897737,27.4382681 L11.133097,27.3731551 C10.2799859,27.0134081 9.36349573,26.8280643 8.43763588,26.8280461 C4.60616043,26.8279711 1.5,29.9339348 1.5,33.7653809 L1.5,37.5 L31.5,37.5 L31.5,33.7654102 C31.5,32.8798052 31.3304046,32.0027727 31.0008246,31.1815794 L30.954891,31.0699491 C29.4810412,27.5748332 25.4784416,25.9177077 21.972974,27.3294349 L21.972974,27.3294349 Z" id="Shape"></path>
        </g>
    </g>
</svg>