<?xml version="1.0" encoding="UTF-8"?>
<svg width="48px" height="48px" viewBox="0 0 48 48" version="1.1" xmlns="http://www.w3.org/2000/svg" xmlns:xlink="http://www.w3.org/1999/xlink">
    <title>pin-dark-thick</title>
    <g id="pin-dark-thick" stroke="none" stroke-width="1" fill="none" fill-rule="evenodd">
        <rect id="frame" stroke-opacity="0.01" stroke="#979797" stroke-width="0.1" x="0.05" y="0.05" width="47.9" height="47.9"></rect>
        <g id="thick" transform="translate(9, 3)" fill="#FFFFFF" fill-rule="nonzero">
            <path d="M15,0 C23.2842712,0 30,6.71572875 30,15 C30,19.8280733 26.4336137,25.1423495 22.5670395,30.51779 L22.0720553,31.2043159 L21.0950907,32.5553955 C18.801243,35.7300279 16.5463636,38.9072727 15,42 C13.545,39.12 11.4852,36.1667094 9.356664,33.2104871 L8.75664258,32.3790303 L7.97755395,31.3012469 L7.60016174,30.7779379 L7.34943704,30.4292502 C3.51158267,25.0840056 0,19.8015636 0,15 C0,6.71572875 6.71572875,0 15,0 Z M15,3 C8.372583,3 3,8.372583 3,15 C3,16.8267651 3.72837537,19.0224802 5.21124004,21.7097915 L5.36245698,21.981099 L5.5132159,22.2472639 L5.65743627,22.4979798 L5.76706922,22.6860036 L5.91543137,22.9369625 C6.96960318,24.7060763 8.23271362,26.5294814 10.7007733,29.9475108 L11.7610024,31.4156714 C13.0148221,33.1577691 14.0236881,34.5978475 14.8723203,35.880946 L14.9919375,36.0628125 L15.167719,35.7958974 C15.9807376,34.5662944 16.9392074,33.195252 18.1130584,31.5618511 L19.685309,29.3840642 C21.696087,26.5939914 22.8573538,24.9200634 23.7977255,23.3908996 L23.9587501,23.1269122 L24.1160727,22.864702 C24.1939301,22.7338535 24.2706727,22.6032489 24.3467106,22.4722546 L24.4225287,22.3411068 C24.4729378,22.2535571 24.5230945,22.1657402 24.5731202,22.0774685 L24.6855085,21.8780101 L24.7229262,21.8111007 C26.2502711,19.0748744 27,16.8473583 27,15 C27,8.372583 21.627417,3 15,3 Z M15,7.5 C19.1421356,7.5 22.5,10.8578644 22.5,15 C22.5,19.1421356 19.1421356,22.5 15,22.5 C10.8578644,22.5 7.5,19.1421356 7.5,15 C7.5,10.8578644 10.8578644,7.5 15,7.5 Z M15,10.5 C12.5147186,10.5 10.5,12.5147186 10.5,15 C10.5,17.4852814 12.5147186,19.5 15,19.5 C17.4852814,19.5 19.5,17.4852814 19.5,15 C19.5,12.5147186 17.4852814,10.5 15,10.5 Z" id="Shape"></path>
        </g>
    </g>
</svg>