<?xml version="1.0" encoding="UTF-8"?>
<svg width="48px" height="48px" viewBox="0 0 48 48" version="1.1" xmlns="http://www.w3.org/2000/svg" xmlns:xlink="http://www.w3.org/1999/xlink">
    <title>pin-dark-fill</title>
    <g id="pin-dark-fill" stroke="none" stroke-width="1" fill="none" fill-rule="evenodd">
        <rect id="frame" stroke-opacity="0.01" stroke="#979797" stroke-width="0.1" x="0.05" y="0.05" width="47.9" height="47.9"></rect>
        <g id="fill" transform="translate(12, 6)" fill="#FFFFFF">
            <path d="M17.25,0 C19.3210678,0 21,1.67893219 21,3.75 C21,4.97682003 20.4108767,6.06604293 19.5000965,6.75020213 L19.5,16 L19.5744157,16.0006029 C22.0253743,16.0403414 24,18.0395714 24,20.5 L24,24 L13.5,24 L13.5,31.4572939 C13.5,33.4725832 13.1751023,35.4746932 12.5378118,37.3865645 L12,39 L11.4621882,37.3865645 C10.8248977,35.4746932 10.5,33.4725832 10.5,31.4572939 L10.5,24 L0,24 L0,20.5 C0,18.0147186 2.01471863,16 4.5,16 L4.5000919,6.75034366 C3.5892046,6.06619316 3,4.97690463 3,3.75 C3,1.67893219 4.67893219,0 6.75,0 L17.25,0 Z" id="Path"></path>
        </g>
    </g>
</svg>