<?xml version="1.0" encoding="UTF-8"?>
<svg width="48px" height="48px" viewBox="0 0 48 48" version="1.1" xmlns="http://www.w3.org/2000/svg" xmlns:xlink="http://www.w3.org/1999/xlink">
    <title>pin-dark</title>
    <g id="pin-dark" stroke="none" stroke-width="1" fill="none" fill-rule="evenodd">
        <rect id="frame" stroke-opacity="0.01" stroke="#979797" stroke-width="0.1" x="0.05" y="0.05" width="47.9" height="47.9"></rect>
        <g id="outline" transform="translate(9, 3)" fill="#FFFFFF" fill-rule="nonzero">
            <path d="M15,0 C23.2842712,0 30,6.71572875 30,15 C30,19.8280733 26.4336137,25.1423495 22.5670395,30.51779 L22.0720553,31.2043159 L21.0950907,32.5553955 C18.801243,35.7300279 16.5463636,38.9072727 15,42 C13.545,39.12 11.4852,36.1667094 9.356664,33.2104871 L8.75664258,32.3790303 L7.97755395,31.3012469 L7.60016174,30.7779379 L7.34943704,30.4292502 C3.51158267,25.0840056 0,19.8015636 0,15 C0,6.71572875 6.71572875,0 15,0 Z M15,1.5 C7.54415588,1.5 1.5,7.54415588 1.5,15 C1.5,17.1574691 2.32983521,19.6243516 3.97733559,22.5776246 C4.05482475,22.7165299 4.13227238,22.8538438 4.2100962,22.9902137 L4.32716631,23.1941415 L4.40568126,23.3295466 L4.56425262,23.5996918 L4.64449468,23.7347197 L4.83484746,24.0506639 C4.86698387,24.1034964 4.89934214,24.1564418 4.93194682,24.2095382 L5.14175758,24.5478551 C6.05728633,26.0099175 7.19223205,27.6421741 9.0368694,30.2045783 L10.522708,32.2629657 C12.480985,34.9832312 13.8309489,36.9519302 14.8997611,38.7263922 L14.9949375,38.88525 L15.113654,38.6864373 C16.1389949,36.9788187 17.4255727,35.0917553 19.2478543,32.5531868 L21.1667148,29.8936958 C22.3626403,28.2307631 23.2504682,26.9699626 23.9754647,25.8863028 L24.0755848,25.7362215 C24.3893781,25.2644611 24.6726992,24.8252426 24.9380802,24.3991563 L25.0191274,24.2685366 C25.0996363,24.1382889 25.1785705,24.0090948 25.2562943,23.8803898 L25.3911476,23.6555435 L25.5275111,23.4249848 C25.5932759,23.3130046 25.6584471,23.200889 25.7232668,23.088263 L25.8589543,22.8508699 L26.0326924,22.5422043 C27.6736327,19.6024727 28.5,17.1472567 28.5,15 C28.5,7.54415588 22.4558441,1.5 15,1.5 Z M15,7.5 C19.1421356,7.5 22.5,10.8578644 22.5,15 C22.5,19.1421356 19.1421356,22.5 15,22.5 C10.8578644,22.5 7.5,19.1421356 7.5,15 C7.5,10.8578644 10.8578644,7.5 15,7.5 Z M15,9 C11.6862915,9 9,11.6862915 9,15 C9,18.3137085 11.6862915,21 15,21 C18.3137085,21 21,18.3137085 21,15 C21,11.6862915 18.3137085,9 15,9 Z" id="Shape"></path>
        </g>
    </g>
</svg>