<?xml version="1.0" encoding="UTF-8"?>
<svg width="48px" height="48px" viewBox="0 0 48 48" version="1.1" xmlns="http://www.w3.org/2000/svg" xmlns:xlink="http://www.w3.org/1999/xlink">
    <title>pin-dark</title>
    <g id="pin-dark" stroke="none" stroke-width="1" fill="none" fill-rule="evenodd">
        <rect id="frame" stroke-opacity="0.01" stroke="#979797" stroke-width="0.1" x="0.05" y="0.05" width="47.9" height="47.9"></rect>
        <g id="outline" transform="translate(12, 6)" fill="#FFFFFF" fill-rule="nonzero">
            <path d="M17.25,0 C19.3210678,0 21,1.67893219 21,3.75 C21,4.97682003 20.4108767,6.06604293 19.5000965,6.75020213 L19.5,14 L19.5744157,14.0006029 C22.0253743,14.0403414 24,16.0395714 24,18.5 L24,24 L14.25,24 L14.25,30.0737254 C14.25,32.984571 13.5722795,35.8554409 12.2705098,38.4589803 L12,39 L11.7294902,38.4589803 C10.4277205,35.8554409 9.75,32.984571 9.75,30.0737254 L9.75,24 L0,24 L0,18.5 C0,16.0147186 2.01471863,14 4.5,14 L4.5000919,6.75034366 C3.5892046,6.06619316 3,4.97690463 3,3.75 C3,1.67893219 4.67893219,0 6.75,0 L17.25,0 Z M12.75,24 L11.25,24 L11.25,30.0737254 C11.25,31.7679563 11.4995569,33.4474671 11.9861675,35.0592925 L11.9998125,35.104125 L12.0138325,35.0592925 C12.4847459,33.4994614 12.7336529,31.8762414 12.7492214,30.2376355 L12.75,30.0737254 L12.75,24 Z M17.25,1.5 L6.75,1.5 C5.50735931,1.5 4.5,2.50735931 4.5,3.75 C4.5,4.46802176 4.83678682,5.12725525 5.40092177,5.55096652 L6.00010024,6.00099833 L5.99998329,15.5 L4.5,15.5 C2.84314575,15.5 1.5,16.8431458 1.5,18.5 L1.5,22.5 L22.5,22.5 L22.5,18.5 C22.5,16.8816948 21.2172863,15.5595211 19.6215082,15.5021002 L19.562264,15.5005536 L17.9999826,15.487897 L18.0001053,6.00090261 L18.5991916,5.55088138 C19.1632606,5.12716439 19.5,4.46797202 19.5,3.75 C19.5,2.50735931 18.4926407,1.5 17.25,1.5 Z" id="Shape"></path>
        </g>
    </g>
</svg>