<?xml version="1.0" encoding="UTF-8"?>
<svg width="48px" height="48px" viewBox="0 0 48 48" version="1.1" xmlns="http://www.w3.org/2000/svg" xmlns:xlink="http://www.w3.org/1999/xlink">
    <title>pin-dark-fill</title>
    <g id="pin-dark-fill" stroke="none" stroke-width="1" fill="none" fill-rule="evenodd">
        <rect id="frame" stroke-opacity="0.01" stroke="#979797" stroke-width="0.1" x="0.05" y="0.05" width="47.9" height="47.9"></rect>
        <g id="fill" transform="translate(9, 3)" fill="#FFFFFF">
            <path d="M15,0 C23.2842712,0 30,6.71572875 30,15 C30,20.0335232 26.1236335,25.5955087 22.0720553,31.2043159 L20.9313197,32.7821582 C18.6942694,35.8812774 16.5095455,38.9809091 15,42 C13.545,39.12 11.4852,36.1667094 9.356664,33.2104871 L8.75664258,32.3790303 L7.72580967,30.9523404 C3.74433289,25.429024 0,19.9581363 0,15 C0,6.71572875 6.71572875,0 15,0 Z M15,9 C11.6862915,9 9,11.6862915 9,15 C9,18.3137085 11.6862915,21 15,21 C18.3137085,21 21,18.3137085 21,15 C21,11.6862915 18.3137085,9 15,9 Z" id="Shape"></path>
        </g>
    </g>
</svg>