<?xml version="1.0" encoding="UTF-8"?>
<svg width="48px" height="48px" viewBox="0 0 48 48" version="1.1" xmlns="http://www.w3.org/2000/svg" xmlns:xlink="http://www.w3.org/1999/xlink">
    <title>pin-dark-thick</title>
    <g id="pin-dark-thick" stroke="none" stroke-width="1" fill="none" fill-rule="evenodd">
        <rect id="frame" stroke-opacity="0.01" stroke="#979797" stroke-width="0.1" x="0.05" y="0.05" width="47.9" height="47.9"></rect>
        <g id="thick" transform="translate(12, 6)" fill="#FFFFFF" fill-rule="nonzero">
            <path d="M17.25,0 C19.3210678,0 21,1.67893219 21,3.75 C21,4.97682003 20.4108767,6.06604293 19.5000965,6.75020213 L19.5,13 L19.5744157,13.0006029 C22.0253743,13.0403414 24,15.0395714 24,17.5 L24,24 L13.5,24 L13.5,31.4572939 C13.5,33.4725832 13.1751023,35.4746932 12.5378118,37.3865645 L12,39 L11.4621882,37.3865645 C10.8248977,35.4746932 10.5,33.4725832 10.5,31.4572939 L10.5,24 L0,24 L0,17.5 C0,15.0147186 2.01471863,13 4.5,13 L4.5000919,6.75034366 C3.5892046,6.06619316 3,4.97690463 3,3.75 C3,1.67893219 4.67893219,0 6.75,0 L17.25,0 Z M17.25,3 L6.75,3 C6.33578644,3 6,3.33578644 6,3.75 C6,3.99115526 6.11090915,4.20825112 6.30175164,4.35158937 L7.50010859,5.25165299 L7.49996658,16 L4.5,16 C3.67157288,16 3,16.6715729 3,17.5 L3,21 L21,21 L21,17.5 C21,16.6967304 20.3676232,16.039182 19.5727244,16.001695 L19.525875,16.0001875 L16.4999652,15.975794 L16.5001141,5.25160308 L17.6982866,4.35156063 C17.8891069,4.20822038 18,3.99113891 18,3.75 C18,3.33578644 17.6642136,3 17.25,3 Z" id="Shape"></path>
        </g>
    </g>
</svg>