<?xml version="1.0" encoding="UTF-8"?>
<svg width="48px" height="48px" viewBox="0 0 48 48" version="1.1" xmlns="http://www.w3.org/2000/svg" xmlns:xlink="http://www.w3.org/1999/xlink">
    <title>receipt-dark-thick</title>
    <g id="receipt-dark-thick" stroke="none" stroke-width="1" fill="none" fill-rule="evenodd">
        <rect id="frame" stroke-opacity="0.01" stroke="#979797" stroke-width="0.1" x="0.05" y="0.05" width="47.9" height="47.9"></rect>
        <g id="thick" transform="translate(9.75, 6)" fill="#FFFFFF" fill-rule="nonzero">
            <path d="M25.5,0 C27.1568542,0 28.5,1.34314575 28.5,3 L28.5,35.25 C28.5,36.0784271 27.8284271,36.75 27,36.75 C26.0519101,36.75 25.1552245,36.3190306 24.5629574,35.5786968 L22.6367301,33.1709126 C22.6307102,33.1633878 22.6241192,33.1563382 22.6170156,33.1498265 C22.5406808,33.079853 22.4220744,33.0850098 22.3521008,33.1613446 L19.4807312,36.2937478 C19.4513657,36.3257828 19.420622,36.3565266 19.3885869,36.385892 C18.7779085,36.9456806 17.8290574,36.9044263 17.2692688,36.2937478 L14.3882164,33.1507815 C14.3845457,33.1467771 14.3807027,33.1429342 14.3766984,33.1392635 C14.3003636,33.0692899 14.1817572,33.0744467 14.1117836,33.1507815 L11.2307312,36.2937478 C11.2013657,36.3257828 11.170622,36.3565266 11.1385869,36.385892 C10.5279085,36.9456806 9.5790574,36.9044263 9.01926879,36.2937478 L6.1478992,33.1613446 C6.14138756,33.154241 6.13433798,33.1476499 6.12681312,33.14163 C6.04595151,33.0769408 5.92795919,33.090051 5.8632699,33.1709126 L3.93704257,35.5786968 C3.34477548,36.3190306 2.44808994,36.75 1.5,36.75 C0.671572875,36.75 0,36.0784271 0,35.25 L0,3 C0,1.34314575 1.34314575,0 3,0 L25.5,0 Z M25.5,3 L3,3 L3,31.947375 L3.52066347,31.2968275 C4.60646092,29.9395807 6.57561453,29.7051326 7.94839616,30.7578976 L8.00089826,30.7990236 C8.12882092,30.9013617 8.24866378,31.0134094 8.35936162,31.1341707 L10.125,33.0601875 L11.9003212,31.1236076 C13.0744233,29.842769 15.0539483,29.7407314 16.3529526,30.882101 L16.4038723,30.9278011 C16.4719467,30.9902027 16.5372772,31.0555332 16.5996788,31.1236076 L18.3748125,33.0601875 L20.1406384,31.1341707 C21.3147405,29.8533321 23.2942655,29.7512944 24.5932698,30.8926641 L24.6441895,30.9383641 C24.7649507,31.049062 24.8769984,31.1689048 24.9793365,31.2968275 L25.5,31.9475625 L25.5,3 Z M20.25,19.5 C21.0784271,19.5 21.75,20.1715729 21.75,21 C21.75,21.8284271 21.0784271,22.5 20.25,22.5 L8.25,22.5 C7.42157288,22.5 6.75,21.8284271 6.75,21 C6.75,20.1715729 7.42157288,19.5 8.25,19.5 L20.25,19.5 Z M20.25,13.5 C21.0784271,13.5 21.75,14.1715729 21.75,15 C21.75,15.8284271 21.0784271,16.5 20.25,16.5 L8.25,16.5 C7.42157288,16.5 6.75,15.8284271 6.75,15 C6.75,14.1715729 7.42157288,13.5 8.25,13.5 L20.25,13.5 Z M20.25,7.5 C21.0784271,7.5 21.75,8.17157288 21.75,9 C21.75,9.82842712 21.0784271,10.5 20.25,10.5 L8.25,10.5 C7.42157288,10.5 6.75,9.82842712 6.75,9 C6.75,8.17157288 7.42157288,7.5 8.25,7.5 L20.25,7.5 Z" id="Shape"></path>
        </g>
    </g>
</svg>