<?xml version="1.0" encoding="UTF-8"?>
<svg width="48px" height="48px" viewBox="0 0 48 48" version="1.1" xmlns="http://www.w3.org/2000/svg" xmlns:xlink="http://www.w3.org/1999/xlink">
    <title>scroll-dark-thick</title>
    <g id="scroll-dark-thick" stroke="none" stroke-width="1" fill="none" fill-rule="evenodd">
        <rect id="frame" stroke-opacity="0.01" stroke="#979797" stroke-width="0.1" x="0.05" y="0.05" width="47.9" height="47.9"></rect>
        <g id="thick" transform="translate(6, 6)" fill="#FFFFFF" fill-rule="nonzero">
            <path d="M31.5,0 C33.9852814,0 36,2.01471863 36,4.5 L36,9 L30,9 L30,31.5 C30,33.9852814 27.9852814,36 25.5,36 L4.5,36 C2.01471863,36 0,33.9852814 0,31.5 L0,27 L6,27 L6,4.5 C6,2.01471863 8.01471863,0 10.5,0 L31.5,0 Z M21,30 L3,30 L3,31.5 C3,32.3127964 3.64646958,32.9746018 4.45327888,32.9992862 L4.5,33 L21.2560849,33.0000746 C21.0902409,32.5308851 21,32.025981 21,31.5 L21,30 Z M9,27 L24,27 L24,31.5 C24,32.3284271 24.6715729,33 25.5,33 C26.3284271,33 27,32.3284271 27,31.5 L27,4.5 C27,3.97408919 27.0902168,3.46924964 27.2560185,3 L10.5,3 C9.68720358,3 9.02539821,3.64646958 9.00071378,4.45327888 L9,4.5 L9,27 Z M31.5,3 C30.6715729,3 30,3.67157288 30,4.5 L30,6 L33,6 L33,4.5 C33,3.68720358 32.3535304,3.02539821 31.5467211,3.00071378 L31.5,3 Z" id="Shape"></path>
        </g>
    </g>
</svg>