<?xml version="1.0" encoding="UTF-8"?>
<svg width="48px" height="48px" viewBox="0 0 48 48" version="1.1" xmlns="http://www.w3.org/2000/svg" xmlns:xlink="http://www.w3.org/1999/xlink">
    <title>square-arrow-light-thick</title>
    <g id="square-arrow-light-thick" stroke="none" stroke-width="1" fill="none" fill-rule="evenodd">
        <rect id="frame" stroke-opacity="0.01" stroke="#979797" stroke-width="0.1" x="0.05" y="0.05" width="47.9" height="47.9"></rect>
        <g id="thick" transform="translate(10.5, 10.5)" fill="#000000">
            <path d="M7.5,0 C8.32842712,0 9,0.671572875 9,1.5 C9,2.32842712 8.32842712,3 7.5,3 L4.5,3 C3.67157288,3 3,3.67157288 3,4.5 L3,22.5 C3,23.3284271 3.67157288,24 4.5,24 L22.5,24 C23.3284271,24 24,23.3284271 24,22.5 L24,19.5 C24,18.6715729 24.6715729,18 25.5,18 C26.3284271,18 27,18.6715729 27,19.5 L27,22.5 C27,24.9852814 24.9852814,27 22.5,27 L4.5,27 C2.01471863,27 0,24.9852814 0,22.5 L0,4.5 C0,2.01471863 2.01471863,0 4.5,0 L7.5,0 Z M25.3125,1.77635684e-15 C26.2444805,1.77635684e-15 27,0.755519485 27,1.6875 L27,12 C27,12.8284271 26.3284271,13.5 25.5,13.5 C24.6715729,13.5 24,12.8284271 24,12 L24,5.1211875 L12.4393398,16.6819805 C11.8535534,17.267767 10.9038059,17.267767 10.3180195,16.6819805 C9.73223305,16.0961941 9.73223305,15.1464466 10.3180195,14.5606602 L21.8784375,3 L15,3 C14.1715729,3 13.5,2.32842712 13.5,1.5 C13.5,0.671572875 14.1715729,1.77635684e-15 15,1.77635684e-15 L25.3125,1.77635684e-15 Z" id="Shape"></path>
        </g>
    </g>
</svg>