<?xml version="1.0" encoding="UTF-8"?>
<svg width="48px" height="48px" viewBox="0 0 48 48" version="1.1" xmlns="http://www.w3.org/2000/svg" xmlns:xlink="http://www.w3.org/1999/xlink">
    <title>square-arrow-dark-fill</title>
    <g id="square-arrow-dark-fill" stroke="none" stroke-width="1" fill="none" fill-rule="evenodd">
        <rect id="frame" stroke-opacity="0.01" stroke="#979797" stroke-width="0.1" x="0.05" y="0.05" width="47.9" height="47.9"></rect>
        <g id="fill" transform="translate(9, 9)" fill="#FFFFFF">
            <path d="M24,0 C27.3137085,-6.08718376e-16 30,2.6862915 30,6 L30,24 C30,27.3137085 27.3137085,30 24,30 L6,30 C2.6862915,30 4.05812251e-16,27.3137085 0,24 L0,6 C-4.05812251e-16,2.6862915 2.6862915,6.08718376e-16 6,0 L24,0 Z M23.8125,4.5 L13.5,4.5 C12.6715729,4.5 12,5.17157288 12,6 C12,6.82842712 12.6715729,7.5 13.5,7.5 L20.3784922,7.5 L8.81801948,19.0606602 C8.23223305,19.6464466 8.23223305,20.5961941 8.81801948,21.1819805 C9.40380592,21.767767 10.3535534,21.767767 10.9393398,21.1819805 L22.4998672,9.621375 L22.5,16.5 C22.5,17.3284271 23.1715729,18 24,18 C24.8284271,18 25.5,17.3284271 25.5,16.5 L25.5,6.1875 C25.5,5.25551948 24.7444805,4.5 23.8125,4.5 Z" id="Combined-Shape"></path>
        </g>
    </g>
</svg>