<?xml version="1.0" encoding="UTF-8"?>
<svg width="48px" height="48px" viewBox="0 0 48 48" version="1.1" xmlns="http://www.w3.org/2000/svg" xmlns:xlink="http://www.w3.org/1999/xlink">
    <title>square-arrow-dark</title>
    <g id="square-arrow-dark" stroke="none" stroke-width="1" fill="none" fill-rule="evenodd">
        <rect id="frame" stroke-opacity="0.01" stroke="#979797" stroke-width="0.1" x="0.05" y="0.05" width="47.9" height="47.9"></rect>
        <g id="outline" transform="translate(12, 11.9561)" fill="#FFFFFF">
            <path d="M6.75,0.0438537828 C7.16421356,0.0438537828 7.5,0.37964022 7.5,0.793853783 C7.5,1.20806735 7.16421356,1.54385378 6.75,1.54385378 L4.5,1.54385378 C2.84314575,1.54385378 1.5,2.88699953 1.5,4.54385378 L1.5,19.5438538 C1.5,21.200708 2.84314575,22.5438538 4.5,22.5438538 L19.5,22.5438538 C21.1568542,22.5438538 22.5,21.200708 22.5,19.5438538 L22.5,17.2938538 C22.5,16.8796402 22.8357864,16.5438538 23.25,16.5438538 C23.6642136,16.5438538 24,16.8796402 24,17.2938538 L24,20.2938538 C24,22.3649216 22.3210678,24.0438538 20.25,24.0438538 L4.5,24.0438538 C2.01471863,24.0438538 0,22.0291352 0,19.5438538 L0,3.79385378 C0,1.72278597 1.67893219,0.0438537828 3.75,0.0438537828 L6.75,0.0438537828 Z M12.7734316,0 L23.2529297,0.0409355393 C23.6659964,0.0425490814 24,0.377859901 24,0.790929817 L24,11.3403627 C24,11.7294781 23.6944171,12.0472209 23.3101424,12.0666998 L23.2613569,12.0675574 L23.25,12.0672913 C22.8320501,12.0542303 22.5,11.7116415 22.5,11.2934877 L22.5,2.60436912 L8.81801948,16.2864945 C8.52512627,16.5793877 8.05025253,16.5793877 7.75735931,16.2864945 C7.46446609,15.9936013 7.46446609,15.5187275 7.75735931,15.2258343 L21.4393125,1.54368162 L12.7734375,1.54385378 C12.3462798,1.54385378 12,1.19757402 12,0.770416283 C12,0.357817582 12.3243417,0.0209729341 12.7319703,0.000936985507 L12.7734316,0 Z" id="Shape"></path>
        </g>
    </g>
</svg>