<?xml version="1.0" encoding="UTF-8"?>
<svg width="48px" height="48px" viewBox="0 0 48 48" version="1.1" xmlns="http://www.w3.org/2000/svg" xmlns:xlink="http://www.w3.org/1999/xlink">
    <title>trash-can-dark-fill</title>
    <g id="trash-can-dark-fill" stroke="none" stroke-width="1" fill="none" fill-rule="evenodd">
        <rect id="frame" stroke-opacity="0.01" stroke="#979797" stroke-width="0.1" x="0.05" y="0.05" width="47.9" height="47.9"></rect>
        <g id="fill" transform="translate(9, 6)" fill="#FFFFFF">
            <path d="M27,9 L25.6574217,33.1664101 C25.5691022,34.7561598 24.2542417,36 22.6620406,36 L7.3379594,36 C5.74575827,36 4.43089776,34.7561598 4.34257834,33.1664101 L3,9 L27,9 Z M11.9970789,16.4064326 C11.945403,15.5796187 11.2332464,14.9512453 10.4064326,15.0029211 C9.57961874,15.054597 8.95124527,15.7667536 9.00292113,16.5935674 L9.75292113,28.5935674 C9.804597,29.4203813 10.5167536,30.0487547 11.3435674,29.9970789 C12.1703813,29.945403 12.7987547,29.2332464 12.7470789,28.4064326 L11.9970789,16.4064326 Z M19.5935674,15.0029211 C18.7667536,14.9512453 18.054597,15.5796187 18.0029211,16.4064326 L17.2529211,28.4064326 C17.2012453,29.2332464 17.8296187,29.945403 18.6564326,29.9970789 C19.4832464,30.0487547 20.195403,29.4203813 20.2470789,28.5935674 L20.9970789,16.5935674 C21.0487547,15.7667536 20.4203813,15.054597 19.5935674,15.0029211 Z M18,0 C19.6371298,0 20.9679759,1.31135644 20.9994307,2.94096175 L21,3 L28.5,3 C29.3284271,3 30,3.67157288 30,4.5 C30,5.32842712 29.3284271,6 28.5,6 L1.5,6 C0.671572875,6 0,5.32842712 0,4.5 C0,3.67157288 0.671572875,3 1.5,3 L9,3 C9,1.34314575 10.3431458,0 12,0 L18,0 Z" id="Shape"></path>
        </g>
    </g>
</svg>