<?xml version="1.0" encoding="UTF-8"?>
<svg width="48px" height="48px" viewBox="0 0 48 48" version="1.1" xmlns="http://www.w3.org/2000/svg" xmlns:xlink="http://www.w3.org/1999/xlink">
    <title>trash-can-dark-thick</title>
    <g id="trash-can-dark-thick" stroke="none" stroke-width="1" fill="none" fill-rule="evenodd">
        <rect id="frame" stroke-opacity="0.01" stroke="#979797" stroke-width="0.1" x="0.05" y="0.05" width="47.9" height="47.9"></rect>
        <g id="thick" transform="translate(9, 6)" fill="#FFFFFF" fill-rule="nonzero">
            <path d="M27,9 L25.6574217,33.1664101 C25.5691022,34.7561598 24.2542417,36 22.6620406,36 L7.3379594,36 C5.74575827,36 4.43089776,34.7561598 4.34257834,33.1664101 L3,9 L27,9 Z M23.828625,12 L6.1711875,12 L7.3379594,33 L22.6620406,33 L23.828625,12 Z M12.7470789,16.4064326 L13.4970789,28.4064326 C13.5487547,29.2332464 12.9203813,29.945403 12.0935674,29.9970789 C11.2667536,30.0487547 10.554597,29.4203813 10.5029211,28.5935674 L9.75292113,16.5935674 C9.70124527,15.7667536 10.3296187,15.054597 11.1564326,15.0029211 C11.9832464,14.9512453 12.695403,15.5796187 12.7470789,16.4064326 Z M18.8435674,15.0029211 C19.6703813,15.054597 20.2987547,15.7667536 20.2470789,16.5935674 L19.4970789,28.5935674 C19.445403,29.4203813 18.7332464,30.0487547 17.9064326,29.9970789 C17.0796187,29.945403 16.4512453,29.2332464 16.5029211,28.4064326 L17.2529211,16.4064326 C17.304597,15.5796187 18.0167536,14.9512453 18.8435674,15.0029211 Z M18,0 C19.6568542,0 21,1.34314575 21,3 L28.5,3 C29.3284271,3 30,3.67157288 30,4.5 C30,5.32842712 29.3284271,6 28.5,6 L1.5,6 C0.671572875,6 0,5.32842712 0,4.5 C0,3.67157288 0.671572875,3 1.5,3 L9,3 C9,1.34314575 10.3431458,0 12,0 L18,0 Z" id="Shape"></path>
        </g>
    </g>
</svg>