<?xml version="1.0" encoding="UTF-8"?>
<svg width="48px" height="48px" viewBox="0 0 48 48" version="1.1" xmlns="http://www.w3.org/2000/svg" xmlns:xlink="http://www.w3.org/1999/xlink">
    <title>trash-can-ldark</title>
    <g id="trash-can-ldark" stroke="none" stroke-width="1" fill="none" fill-rule="evenodd">
        <rect id="frame" stroke-opacity="0.01" stroke="#979797" stroke-width="0.1" x="0.05" y="0.05" width="47.9" height="47.9"></rect>
        <g id="outline" transform="translate(9, 6)" fill="#FFFFFF" fill-rule="nonzero">
            <path d="M27,9 L25.6574217,33.1664101 C25.5691022,34.7561598 24.2542417,36 22.6620406,36 L7.3379594,36 C5.74575827,36 4.43089776,34.7561598 4.34257834,33.1664101 L3,9 L27,9 Z M25.4143125,10.5 L4.5855,10.5 L5.84026887,33.083205 C5.88354539,33.8621824 6.51580693,34.475054 7.29036356,34.4992573 L7.3379594,34.5 L22.6620406,34.5 C23.4581412,34.5 24.1155714,33.8780799 24.1597311,33.083205 L25.4143125,10.5 Z M11.9985394,16.4532163 L12.7485394,28.4532163 C12.7743774,28.8666232 12.4601906,29.2227015 12.0467837,29.2485394 C11.6333768,29.2743774 11.2772985,28.9601906 11.2514606,28.5467837 L10.5014606,16.5467837 C10.4756226,16.1333768 10.7898094,15.7772985 11.2032163,15.7514606 C11.6166232,15.7256226 11.9727015,16.0398094 11.9985394,16.4532163 Z M18.7967837,15.7514606 C19.2101906,15.7772985 19.5243774,16.1333768 19.4985394,16.5467837 L18.7485394,28.5467837 C18.7227015,28.9601906 18.3666232,29.2743774 17.9532163,29.2485394 C17.5398094,29.2227015 17.2256226,28.8666232 17.2514606,28.4532163 L18.0014606,16.4532163 C18.0251453,16.0742599 18.3263238,15.7786761 18.6947843,15.7519456 L18.7967837,15.7514606 Z M18,0 C19.6568542,0 21,1.34314575 21,3 L27.75,3 C28.9926407,3 30,4.00735931 30,5.25 C30,6.49264069 28.9926407,7.5 27.75,7.5 L2.25,7.5 C1.00735931,7.5 0,6.49264069 0,5.25 C0,4.00735931 1.00735931,3 2.25,3 L9,3 C9,1.34314575 10.3431458,0 12,0 L18,0 Z M18,1.5 L12,1.5 C11.1715729,1.5 10.5,2.17157288 10.5,3 L10.5,4.5 L2.25,4.5 C1.83578644,4.5 1.5,4.83578644 1.5,5.25 C1.5,5.66421356 1.83578644,6 2.25,6 L27.75,6 C28.1642136,6 28.5,5.66421356 28.5,5.25 C28.5,4.83578644 28.1642136,4.5 27.75,4.5 L21,4.5 L19.5,4.5 L19.5,3 C19.5,2.17157288 18.8284271,1.5 18,1.5 Z" id="Combined-Shape"></path>
        </g>
    </g>
</svg>