<?xml version="1.0" encoding="UTF-8"?>
<svg width="48px" height="48px" viewBox="0 0 48 48" version="1.1" xmlns="http://www.w3.org/2000/svg" xmlns:xlink="http://www.w3.org/1999/xlink">
    <title>warning-sign-dark-thick</title>
    <g id="warning-sign-dark-thick" stroke="none" stroke-width="1" fill="none" fill-rule="evenodd">
        <rect id="frame" stroke-opacity="0.01" stroke="#979797" stroke-width="0.1" x="0.05" y="0.05" width="47.9" height="47.9"></rect>
        <g id="thick" transform="translate(6.3339, 5.9301)" fill="#FFFFFF" fill-rule="nonzero">
            <path d="M21.5530711,2.23331291 L34.7184046,24.8024561 C35.1198617,25.4906683 35.3313995,26.2731298 35.3313995,27.0698757 C35.3313995,29.5551571 33.3166809,31.5698757 30.8313995,31.5698757 L4.50073253,31.5698757 C3.70398666,31.5698757 2.92152518,31.3583379 2.23331291,30.9568807 C0.0865792999,29.7046195 -0.6385338,26.9491897 0.613727475,24.8024561 L13.779061,2.23331291 C14.1701955,1.56279656 14.7281301,1.00486202 15.3986464,0.613727475 C17.54538,-0.6385338 20.3008098,0.0865792999 21.5530711,2.23331291 Z M16.9102595,3.20506418 C16.686754,3.33544236 16.5007759,3.52142054 16.3703977,3.74492599 L3.20506418,26.3140691 C2.78764375,27.029647 3.02934812,27.9481236 3.74492599,28.365544 C3.97433008,28.4993631 4.23515057,28.5698757 4.50073253,28.5698757 L30.8313995,28.5698757 C31.6598267,28.5698757 32.3313995,27.8983028 32.3313995,27.0698757 C32.3313995,26.8042937 32.2608869,26.5434732 32.1270679,26.3140691 L18.9617344,3.74492599 C18.544314,3.02934812 17.6258374,2.78764375 16.9102595,3.20506418 Z M17.666066,22.5698757 C18.9087067,22.5698757 19.916066,23.577235 19.916066,24.8198757 C19.916066,26.0625164 18.9087067,27.0698757 17.666066,27.0698757 C16.4234253,27.0698757 15.416066,26.0625164 15.416066,24.8198757 C15.416066,23.577235 16.4234253,22.5698757 17.666066,22.5698757 Z M17.619191,9.06987568 C18.791152,9.06987568 19.7412142,10.0199378 19.7412142,11.1918988 C19.7412142,11.2333002 19.7400025,11.2746927 19.7375808,11.3160232 L19.2538062,19.572444 C19.2045399,20.4132551 18.5083192,21.0698757 17.666066,21.0698757 C16.8220301,21.0698757 16.1226016,20.4153532 16.0666756,19.5731721 L15.5182767,11.314931 C15.4412254,10.1546281 16.3193743,9.15155424 17.4796772,9.07450288 C17.5261179,9.07141893 17.5726481,9.06987568 17.619191,9.06987568 Z" id="Shape"></path>
        </g>
    </g>
</svg>