<?xml version="1.0" encoding="UTF-8"?>
<svg width="48px" height="48px" viewBox="0 0 48 48" version="1.1" xmlns="http://www.w3.org/2000/svg" xmlns:xlink="http://www.w3.org/1999/xlink">
    <title>warning-sign-dark</title>
    <g id="warning-sign-dark" stroke="none" stroke-width="1" fill="none" fill-rule="evenodd">
        <rect id="frame" stroke-opacity="0.01" stroke="#979797" stroke-width="0.1" x="0.05" y="0.05" width="47.9" height="47.9"></rect>
        <g id="outline" transform="translate(6.3339, 5.9301)" fill="#FFFFFF" fill-rule="nonzero">
            <path d="M21.5530711,2.23331291 L34.7184046,24.8024561 C35.1198617,25.4906683 35.3313995,26.2731298 35.3313995,27.0698757 C35.3313995,29.5551571 33.3166809,31.5698757 30.8313995,31.5698757 L4.50073253,31.5698757 C3.70398666,31.5698757 2.92152518,31.3583379 2.23331291,30.9568807 C0.0865792999,29.7046195 -0.6385338,26.9491897 0.613727475,24.8024561 L13.779061,2.23331291 C14.1701955,1.56279656 14.7281301,1.00486202 15.3986464,0.613727475 C17.54538,-0.6385338 20.3008098,0.0865792999 21.5530711,2.23331291 Z M16.154453,1.90939583 C15.7074421,2.17015219 15.3354857,2.54210855 15.0747293,2.98911945 L1.90939583,25.5582626 C1.07455498,26.9894183 1.55796371,28.8263715 2.98911945,29.6612124 C3.44792763,29.9288505 3.96956862,30.0698757 4.50073253,30.0698757 L30.8313995,30.0698757 C32.4882538,30.0698757 33.8313995,28.7267299 33.8313995,27.0698757 C33.8313995,26.5387118 33.6903743,26.0170708 33.4227362,25.5582626 L20.2574027,2.98911945 C19.4225619,1.55796371 17.5856087,1.07455498 16.154453,1.90939583 Z M17.666066,22.5698757 C19.3229203,22.5698757 20.666066,23.9130214 20.666066,25.5698757 C20.666066,27.2267299 19.3229203,28.5698757 17.666066,28.5698757 C16.0092118,28.5698757 14.666066,27.2267299 14.666066,25.5698757 C14.666066,23.9130214 16.0092118,22.5698757 17.666066,22.5698757 Z M17.666066,24.0698757 C16.8376389,24.0698757 16.166066,24.7414486 16.166066,25.5698757 C16.166066,26.3983028 16.8376389,27.0698757 17.666066,27.0698757 C18.4944932,27.0698757 19.166066,26.3983028 19.166066,25.5698757 C19.166066,24.7414486 18.4944932,24.0698757 17.666066,24.0698757 Z M17.619191,6.81987568 C19.1963083,6.81987568 20.4748145,8.09838184 20.4748145,9.67549911 C20.4748145,9.72243091 20.4736575,9.76935559 20.4713446,9.81623037 L20.0269509,18.8226097 C19.9648463,20.0812633 18.9262509,21.0698757 17.666066,21.0698757 C16.4036061,21.0698757 15.3609279,20.0838761 15.2904399,18.8233855 L14.7866925,9.81519591 C14.6992126,8.25085016 15.896449,6.91178093 17.4607947,6.82430107 C17.513542,6.82135138 17.5663614,6.81987568 17.619191,6.81987568 Z M17.619191,8.31987568 C17.5942946,8.31987568 17.569403,8.32057112 17.5445455,8.32196118 C16.8073346,8.36318679 16.243127,8.99423427 16.2843526,9.73144518 L16.7881001,18.7396348 C16.8141505,19.2054774 17.1994956,19.5698757 17.666066,19.5698757 C18.126559,19.5698757 18.5060794,19.2086199 18.5287735,18.7486864 L18.9731672,9.74230714 C18.9742652,9.72005472 18.9748145,9.69777861 18.9748145,9.67549911 C18.9748145,8.92680896 18.3678812,8.31987568 17.619191,8.31987568 Z" id="Shape"></path>
        </g>
    </g>
</svg>