<?xml version="1.0" encoding="UTF-8"?>
<svg width="48px" height="48px" viewBox="0 0 48 48" version="1.1" xmlns="http://www.w3.org/2000/svg" xmlns:xlink="http://www.w3.org/1999/xlink">
    <title>warning-sign-dark-fill</title>
    <g id="warning-sign-dark-fill" stroke="none" stroke-width="1" fill="none" fill-rule="evenodd">
        <rect id="frame" stroke-opacity="0.01" stroke="#979797" stroke-width="0.1" x="0.05" y="0.05" width="47.9" height="47.9"></rect>
        <g id="fill" transform="translate(6.3339, 5.9301)" fill="#FFFFFF">
            <path d="M15.3986464,0.613727475 C17.54538,-0.6385338 20.3008098,0.0865792999 21.5530711,2.23331291 L34.7184046,24.8024561 C35.1198617,25.4906683 35.3313995,26.2731298 35.3313995,27.0698757 C35.3313995,29.5551571 33.3166809,31.5698757 30.8313995,31.5698757 L4.50073253,31.5698757 C3.70398666,31.5698757 2.92152518,31.3583379 2.23331291,30.9568807 C0.0865792999,29.7046195 -0.6385338,26.9491897 0.613727475,24.8024561 L13.779061,2.23331291 C14.1701955,1.56279656 14.7281301,1.00486202 15.3986464,0.613727475 Z M17.666066,22.5698757 C16.0092118,22.5698757 14.666066,23.9130214 14.666066,25.5698757 C14.666066,27.2267299 16.0092118,28.5698757 17.666066,28.5698757 C19.3229203,28.5698757 20.666066,27.2267299 20.666066,25.5698757 C20.666066,23.9130214 19.3229203,22.5698757 17.666066,22.5698757 Z M17.619191,6.81987568 C17.5775017,6.81987568 17.5358214,6.82110476 17.4942045,6.82356131 C16.3247867,6.89258944 15.4327446,7.89654826 15.5017728,9.06596608 L16.0776782,18.8224821 C16.127314,19.663371 16.8237134,20.3198757 17.666066,20.3198757 C18.5068225,20.3198757 19.2003552,19.6615245 19.2440853,18.8219061 L19.7521622,9.06683012 C19.7540892,9.02983071 19.7550532,8.99278743 19.7550532,8.95573787 C19.7550532,7.77613375 18.7987951,6.81987568 17.619191,6.81987568 Z" id="Shape"></path>
        </g>
    </g>
</svg>