<?xml version="1.0" encoding="UTF-8"?>
<svg width="48px" height="48px" viewBox="0 0 48 48" version="1.1" xmlns="http://www.w3.org/2000/svg" xmlns:xlink="http://www.w3.org/1999/xlink">
    <title>x-dark-fill</title>
    <g id="x-dark-fill" stroke="none" stroke-width="1" fill="none" fill-rule="evenodd">
        <rect id="frame" stroke-opacity="0.01" stroke="#979797" stroke-width="0.1" x="0.05" y="0.05" width="47.9" height="47.9"></rect>
        <g id="fill" transform="translate(7.5, 7.5)" fill="#FFFFFF">
            <path d="M16.5,0 C25.6126984,0 33,7.38730163 33,16.5 C33,25.6126984 25.6126984,33 16.5,33 C7.38730163,33 0,25.6126984 0,16.5 C0,7.38730163 7.38730163,0 16.5,0 Z M9.0753788,6.95405845 C8.48959236,6.36827202 7.53984489,6.36827202 6.95405845,6.95405845 C6.36827202,7.53984489 6.36827202,8.48959236 6.95405845,9.0753788 L14.3786561,16.4998436 L6.95405845,23.9246212 C6.36827202,24.5104076 6.36827202,25.4601551 6.95405845,26.0459415 C7.53984489,26.631728 8.48959236,26.631728 9.0753788,26.0459415 L16.4998436,18.6212186 L23.9246212,26.0459415 C24.5104076,26.631728 25.4601551,26.631728 26.0459415,26.0459415 C26.631728,25.4601551 26.631728,24.5104076 26.0459415,23.9246212 L18.6212186,16.4998436 L26.0459415,9.0753788 C26.631728,8.48959236 26.631728,7.53984489 26.0459415,6.95405845 C25.4601551,6.36827202 24.5104076,6.36827202 23.9246212,6.95405845 L16.4998436,14.3786561 L9.0753788,6.95405845 Z" id="Shape"></path>
        </g>
    </g>
</svg>