<?xml version="1.0" encoding="UTF-8"?>
<svg width="48px" height="48px" viewBox="0 0 48 48" version="1.1" xmlns="http://www.w3.org/2000/svg" xmlns:xlink="http://www.w3.org/1999/xlink">
    <title>x-dark-thick</title>
    <g id="x-dark-thick" stroke="none" stroke-width="1" fill="none" fill-rule="evenodd">
        <rect id="frame" stroke-opacity="0.01" stroke="#979797" stroke-width="0.1" x="0.05" y="0.05" width="47.9" height="47.9"></rect>
        <g id="thick" transform="translate(12, 12)" fill="#FFFFFF" fill-rule="nonzero">
            <path d="M2.56066017,0.439339828 L12,9.8788125 L21.4393398,0.439339828 C22.0251263,-0.146446609 22.9748737,-0.146446609 23.5606602,0.439339828 C24.1464466,1.02512627 24.1464466,1.97487373 23.5606602,2.56066017 L14.1211875,12 L23.5606602,21.4393398 C24.1464466,22.0251263 24.1464466,22.9748737 23.5606602,23.5606602 C22.9748737,24.1464466 22.0251263,24.1464466 21.4393398,23.5606602 L12,14.1211875 L2.56066017,23.5606602 C1.97487373,24.1464466 1.02512627,24.1464466 0.439339828,23.5606602 C-0.146446609,22.9748737 -0.146446609,22.0251263 0.439339828,21.4393398 L9.8788125,12 L0.439339828,2.56066017 C-0.146446609,1.97487373 -0.146446609,1.02512627 0.439339828,0.439339828 C1.02512627,-0.146446609 1.97487373,-0.146446609 2.56066017,0.439339828 Z" id="Path"></path>
        </g>
    </g>
</svg>