<?xml version="1.0" encoding="UTF-8"?>
<svg width="48px" height="48px" viewBox="0 0 48 48" version="1.1" xmlns="http://www.w3.org/2000/svg" xmlns:xlink="http://www.w3.org/1999/xlink">
    <title>x-dark</title>
    <g id="x-dark" stroke="none" stroke-width="1" fill="none" fill-rule="evenodd">
        <rect id="frame" stroke-opacity="0.01" stroke="#979797" stroke-width="0.1" x="0.05" y="0.05" width="47.9" height="47.9"></rect>
        <g id="outline" transform="translate(11.6737, 11.6737)" fill="#FFFFFF" fill-rule="nonzero">
            <path d="M23.9935335,0.659009742 C24.8722132,1.5376894 24.8722132,2.9623106 23.9935335,3.84099026 L15.5083125,12.32625 L23.9935335,20.811553 C24.8722132,21.6902327 24.8722132,23.1148539 23.9935335,23.9935335 C23.1148539,24.8722132 21.6902327,24.8722132 20.811553,23.9935335 L12.32625,15.5083125 L3.84099026,23.9935335 C2.9623106,24.8722132 1.5376894,24.8722132 0.659009742,23.9935335 C-0.219669914,23.1148539 -0.219669914,21.6902327 0.659009742,20.811553 L9.1441875,12.32625 L0.659009742,3.84099026 C-0.219669914,2.9623106 -0.219669914,1.5376894 0.659009742,0.659009742 C1.5376894,-0.219669914 2.9623106,-0.219669914 3.84099026,0.659009742 L12.32625,9.1441875 L20.811553,0.659009742 C21.6902327,-0.219669914 23.1148539,-0.219669914 23.9935335,0.659009742 Z M1.71966991,1.71966991 C1.4267767,2.01256313 1.4267767,2.48743687 1.71967504,2.78033521 L10.2048528,11.265595 L11.2654949,12.3262473 L10.2048555,13.3869023 L1.71966991,21.8722132 C1.4267767,22.1651064 1.4267767,22.6399801 1.71966991,22.9328733 C2.01256313,23.2257666 2.48743687,23.2257666 2.78033251,22.9328709 L11.2655922,14.4476499 L12.3262473,13.3869997 L13.386905,14.4476472 L21.8722132,22.9328733 C22.1651064,23.2257666 22.6399801,23.2257666 22.9328733,22.9328733 C23.2257666,22.6399801 23.2257666,22.1651064 22.9328682,21.8722081 L14.4476472,13.386905 L13.3869997,12.3262473 L14.4476499,11.2655922 L22.9328733,2.78033009 C23.2257666,2.48743687 23.2257666,2.01256313 22.9328733,1.71966991 C22.6399801,1.4267767 22.1651064,1.4267767 21.8722053,1.71967774 L13.3869023,10.2048555 L12.3262473,11.2654949 L11.265595,10.2048528 L2.78033009,1.71966991 C2.48743687,1.4267767 2.01256313,1.4267767 1.71966991,1.71966991 Z" id="Combined-Shape"></path>
        </g>
    </g>
</svg>