<?xml version="1.0" encoding="UTF-8"?>
<svg width="256px" height="256px" viewBox="0 0 256 256" version="1.1" xmlns="http://www.w3.org/2000/svg" xmlns:xlink="http://www.w3.org/1999/xlink">
    <title>orange</title>
    <g id="visual-identity" stroke="none" stroke-width="1" fill="none" fill-rule="evenodd">
        <g id="Artboard" transform="translate(-10, -10)">
            <g id="orange" transform="translate(10, 10)">
                <rect id="tile" fill="#EFA73E" x="0" y="0" width="256" height="256" rx="12.8000002"></rect>
                <text id="BALDOSA" font-family="Montserrat-Bold, Montserrat" font-size="32" font-weight="bold" fill="#000000">
                    <tspan x="42.1608177" y="213">BALDOSA</tspan>
                </text>
                <text id="the-cloud-city" font-family="OpenSansRoman-Bold, Open Sans" font-size="18" font-weight="bold" fill="#000000">
                    <tspan x="64.2280273" y="240">the cloud city</tspan>
                </text>
                <g id="logo" transform="translate(51, 21)">
                    <path d="M104,146 C100.686292,146 98,143.313708 98,140 L98,133 C98,126.924868 93.0751322,122 87,122 L110,122 C116.627417,122 122,116.627417 122,110 C122,103.372583 116.627417,98 110,98 L86,98 L86.3049748,97.9962001 C92.7914556,97.8343928 98,92.5254567 98,86 L98,80 C98,76.6862915 100.686292,74 104,74 L110.003002,74.0000001 C129.883874,74.0016226 146,90.1187498 146,110 L145.999004,109.843785 C145.999667,109.895777 146,109.94785 146,110 L145.999672,110.155305 C145.916,129.966116 129.830457,146 110,146 L104,146 Z M26,38 C26,44.627417 31.372583,50 38,50 L44,50 C47.3137085,50 50,52.6862915 50,56 L50,68 C50,71.3137085 52.6862915,74 56,74 L68,74 C71.3137085,74 74,76.6862915 74,80 L74,86 C74,92.627417 79.372583,98 86,98 L56,98 C52.6862915,98 50,100.686292 50,104 L50,116 C50,119.313708 52.6862915,122 56,122 L86,122 L85.6950252,122.0038 C79.2085444,122.165607 74,127.474543 74,134 L74,140 C74,143.313708 71.3137085,146 68,146 L56,146 C52.6862915,146 50,143.313708 50,140 L50,128 C50,124.686292 47.3137085,122 44,122 L32,122 C28.6862915,122 26,124.686292 26,128 L26,140 C26,143.313708 23.3137085,146 20,146 L8,146 C4.6862915,146 2,143.313708 2,140 L2,128 C2,124.686292 4.6862915,122 8,122 L20,122 C23.3137085,122 26,119.313708 26,116 L26,104 C26,100.686292 28.6862915,98 32,98 L44,98 C47.3137085,98 50,95.3137085 50,92 L50,80 C50,76.6862915 47.3137085,74 44,74 L32,74 C28.6862915,74 26,71.3137085 26,68 L26,38 Z M44,2 C47.3137085,2 50,4.6862915 50,8 L50,20 C50,23.3137085 47.3137085,26 44,26 L38,26 C31.372583,26 26,31.372583 26,38 L26,8 C26,4.6862915 28.6862915,2 32,2 L44,2 Z" id="Combined-Shape-Copy-2" fill="#C12A4A"></path>
                    <path d="M102,144 C98.6862915,144 96,141.313708 96,138 L96,131 C96,124.924868 91.0751322,120 85,120 L108,120 C114.627417,120 120,114.627417 120,108 C120,101.372583 114.627417,96 108,96 L84,96 L84.3049748,95.9962001 C90.7914556,95.8343928 96,90.5254567 96,84 L96,78 C96,74.6862915 98.6862915,72 102,72 L108.003002,72.0000001 C127.883874,72.0016226 144,88.1187498 144,108 L143.999004,107.843785 C143.999667,107.895777 144,107.94785 144,108 L143.999672,108.155305 C143.916,127.966116 127.830457,144 108,144 L102,144 Z M24,36 C24,42.627417 29.372583,48 36,48 L42,48 C45.3137085,48 48,50.6862915 48,54 L48,66 C48,69.3137085 50.6862915,72 54,72 L66,72 C69.3137085,72 72,74.6862915 72,78 L72,84 C72,90.627417 77.372583,96 84,96 L54,96 C50.6862915,96 48,98.6862915 48,102 L48,114 C48,117.313708 50.6862915,120 54,120 L84,120 L83.6950252,120.0038 C77.2085444,120.165607 72,125.474543 72,132 L72,138 C72,141.313708 69.3137085,144 66,144 L54,144 C50.6862915,144 48,141.313708 48,138 L48,126 C48,122.686292 45.3137085,120 42,120 L30,120 C26.6862915,120 24,122.686292 24,126 L24,138 C24,141.313708 21.3137085,144 18,144 L6,144 C2.6862915,144 4.05812251e-16,141.313708 0,138 L0,126 C-4.05812251e-16,122.686292 2.6862915,120 6,120 L18,120 C21.3137085,120 24,117.313708 24,114 L24,102 C24,98.6862915 26.6862915,96 30,96 L42,96 C45.3137085,96 48,93.3137085 48,90 L48,78 C48,74.6862915 45.3137085,72 42,72 L30,72 C26.6862915,72 24,69.3137085 24,66 L24,36 Z M42,0 C45.3137085,-6.08718376e-16 48,2.6862915 48,6 L48,18 C48,21.3137085 45.3137085,24 42,24 L36,24 C29.372583,24 24,29.372583 24,36 L24,6 C24,2.6862915 26.6862915,6.08718376e-16 30,0 L42,0 Z" id="Combined-Shape" fill="#E97E13"></path>
                </g>
            </g>
        </g>
    </g>
</svg>