<?xml version="1.0" encoding="UTF-8"?>
<svg width="256px" height="256px" viewBox="0 0 256 256" version="1.1" xmlns="http://www.w3.org/2000/svg" xmlns:xlink="http://www.w3.org/1999/xlink">
    <title>black</title>
    <g id="visual-identity" stroke="none" stroke-width="1" fill="none" fill-rule="evenodd">
        <g id="Artboard" transform="translate(-10, -276)" fill="#FFFFFF">
            <g id="black" transform="translate(10, 276)">
                <g id="logo" transform="translate(60, 45)">
                    <path d="M102,144 C98.6862915,144 96,141.313708 96,138 L96,131 C96,124.924868 91.0751322,120 85,120 L108,120 C114.627417,120 120,114.627417 120,108 C120,101.372583 114.627417,96 108,96 L84,96 L84.3049748,95.9962001 C90.7914556,95.8343928 96,90.5254567 96,84 L96,78 C96,74.6862915 98.6862915,72 102,72 L108.003002,72.0000001 C127.883874,72.0016226 144,88.1187498 144,108 L143.999004,107.843785 C143.999667,107.895777 144,107.94785 144,108 L143.999672,108.155305 C143.916,127.966116 127.830457,144 108,144 L102,144 Z M24,36 C24,42.627417 29.372583,48 36,48 L42,48 C45.3137085,48 48,50.6862915 48,54 L48,66 C48,69.3137085 50.6862915,72 54,72 L66,72 C69.3137085,72 72,74.6862915 72,78 L72,84 C72,90.627417 77.372583,96 84,96 L54,96 C50.6862915,96 48,98.6862915 48,102 L48,114 C48,117.313708 50.6862915,120 54,120 L84,120 L83.6950252,120.0038 C77.2085444,120.165607 72,125.474543 72,132 L72,138 C72,141.313708 69.3137085,144 66,144 L54,144 C50.6862915,144 48,141.313708 48,138 L48,126 C48,122.686292 45.3137085,120 42,120 L30,120 C26.6862915,120 24,122.686292 24,126 L24,138 C24,141.313708 21.3137085,144 18,144 L6,144 C2.6862915,144 4.05812251e-16,141.313708 0,138 L0,126 C-4.05812251e-16,122.686292 2.6862915,120 6,120 L18,120 C21.3137085,120 24,117.313708 24,114 L24,102 C24,98.6862915 26.6862915,96 30,96 L42,96 C45.3137085,96 48,93.3137085 48,90 L48,78 C48,74.6862915 45.3137085,72 42,72 L30,72 C26.6862915,72 24,69.3137085 24,66 L24,36 Z M42,0 C45.3137085,-6.08718376e-16 48,2.6862915 48,6 L48,18 C48,21.3137085 45.3137085,24 42,24 L36,24 C29.372583,24 24,29.372583 24,36 L24,6 C24,2.6862915 26.6862915,6.08718376e-16 30,0 L42,0 Z" id="Combined-Shape"></path>
                </g>
            </g>
        </g>
    </g>
</svg>