<?xml version="1.0" encoding="UTF-8"?>
<svg width="1200px" height="480px" viewBox="0 0 1200 480" version="1.1" xmlns="http://www.w3.org/2000/svg" xmlns:xlink="http://www.w3.org/1999/xlink">
    <title>banner-dark</title>
    <defs>
        <linearGradient x1="50%" y1="0%" x2="50%" y2="100%" id="linearGradient-1">
            <stop stop-color="#111111" offset="0%"></stop>
            <stop stop-color="#080808" offset="100%"></stop>
        </linearGradient>
        <radialGradient cx="50%" cy="50%" fx="50%" fy="50%" r="60.3255549%" gradientTransform="translate(0.5, 0.5), scale(0.4, 1), rotate(90), scale(1, 1.5844), translate(-0.5, -0.5)" id="radialGradient-2">
            <stop stop-color="#FFFFFF" offset="0%"></stop>
            <stop stop-color="#080808" offset="100%"></stop>
        </radialGradient>
        <filter x="-2.1%" y="-2.1%" width="104.2%" height="104.2%" filterUnits="objectBoundingBox" id="filter-3">
            <feGaussianBlur stdDeviation="2" in="SourceGraphic"></feGaussianBlur>
        </filter>
        <filter x="-6.1%" y="-6.2%" width="112.3%" height="112.5%" filterUnits="objectBoundingBox" id="filter-4">
            <feGaussianBlur stdDeviation="6" in="SourceGraphic"></feGaussianBlur>
        </filter>
        <filter x="-6.0%" y="-6.2%" width="111.9%" height="112.5%" filterUnits="objectBoundingBox" id="filter-5">
            <feGaussianBlur stdDeviation="6" in="SourceGraphic"></feGaussianBlur>
        </filter>
        <path d="M0,22.605 L0,0.205 L9.662,0.205 C12.1473333,0.205 14.0794167,0.706833333 15.45825,1.7105 C16.8370833,2.71416667 17.5265,4.1305 17.5265,5.9595 C17.5265,7.17283333 17.2429167,8.19616667 16.67575,9.0295 C16.1085833,9.86283333 15.3430833,10.49425 14.37925,10.92375 C13.4154167,11.35325 12.349,11.568 11.18,11.568 L11.742,10.7895 C13.1676667,10.7895 14.3998333,11.0111667 15.4385,11.4545 C16.4771667,11.8978333 17.2814167,12.55225 17.85125,13.41775 C18.4210833,14.28325 18.706,15.3513333 18.706,16.622 C18.706,18.5236667 18.0061667,19.99625 16.6065,21.03975 C15.2068333,22.08325 13.1053333,22.605 10.302,22.605 L0,22.605 Z M2.3445,20.655 L10.2485,20.655 C12.2268333,20.655 13.73725,20.3183333 14.77975,19.645 C15.82225,18.9716667 16.3435,17.9035 16.3435,16.4405 C16.3435,14.9778333 15.82225,13.9090833 14.77975,13.23425 C13.73725,12.5594167 12.2268333,12.222 10.2485,12.222 L2.112,12.222 L2.112,10.272 L9.5,10.272 C11.2946667,10.272 12.6873333,9.933 13.678,9.255 C14.6686667,8.577 15.164,7.56316667 15.164,6.2135 C15.164,4.86383333 14.6686667,3.85 13.678,3.172 C12.6873333,2.494 11.2946667,2.155 9.5,2.155 L2.3445,2.155 L2.3445,20.655 Z M20.5484568,22.605 L30.7849568,0.205 L33.1114568,0.205 L43.3664568,22.605 L40.8714568,22.605 L31.4529568,1.569 L32.4254568,1.569 L23.0069568,22.605 L20.5484568,22.605 Z M24.5709568,16.6325 L25.2714568,14.701 L38.3029568,14.701 L39.0219568,16.6325 L24.5709568,16.6325 Z M47.0943437,22.605 L47.0943437,0.205 L49.4388437,0.205 L49.4388437,20.5465 L61.9853437,20.5465 L61.9853437,22.605 L47.0943437,22.605 Z M65.9444627,22.605 L65.9444627,0.205 L75.0594627,0.205 C77.4514627,0.205 79.5478794,0.68125 81.3487127,1.63375 C83.149546,2.58625 84.5527127,3.90216667 85.5582127,5.5815 C86.5637127,7.26083333 87.0664627,9.202 87.0664627,11.405 C87.0664627,13.608 86.5637127,15.5491667 85.5582127,17.2285 C84.5527127,18.9078333 83.149546,20.22375 81.3487127,21.17625 C79.5478794,22.12875 77.4514627,22.605 75.0594627,22.605 L65.9444627,22.605 Z M68.2889627,20.5465 L74.9224627,20.5465 C76.9151294,20.5465 78.642296,20.1573333 80.1039627,19.379 C81.5656294,18.6006667 82.6977127,17.5255833 83.5002127,16.15375 C84.3027127,14.7819167 84.7039627,13.199 84.7039627,11.405 C84.7039627,9.59866667 84.3027127,8.01266667 83.5002127,6.647 C82.6977127,5.28133333 81.5656294,4.20933333 80.1039627,3.431 C78.642296,2.65266667 76.9151294,2.2635 74.9224627,2.2635 L68.2889627,2.2635 L68.2889627,20.5465 Z M102.153463,22.81 C100.465129,22.81 98.902796,22.52425 97.4664627,21.95275 C96.0301294,21.38125 94.782546,20.5805 93.7237127,19.5505 C92.6648794,18.5205 91.8414627,17.31525 91.2534627,15.93475 C90.6654627,14.55425 90.3714627,13.0443333 90.3714627,11.405 C90.3714627,9.76566667 90.6654627,8.25575 91.2534627,6.87525 C91.8414627,5.49475 92.6656294,4.28858333 93.7259627,3.25675 C94.786296,2.22491667 96.032546,1.42416667 97.4647127,0.8545 C98.8968794,0.284833333 100.458463,0 102.149463,0 C103.840463,0 105.400213,0.28375 106.828713,0.85125 C108.257213,1.41875 109.500379,2.2165 110.558213,3.2445 C111.616046,4.2725 112.439046,5.47883333 113.027213,6.8635 C113.615379,8.24816667 113.909463,9.76266667 113.909463,11.407 C113.909463,13.0513333 113.615379,14.5651667 113.027213,15.9485 C112.439046,17.3318333 111.616046,18.5375 110.558213,19.5655 C109.500379,20.5935 108.257213,21.39125 106.828713,21.95875 C105.400213,22.52625 103.841796,22.81 102.153463,22.81 Z M102.149463,20.697 C103.492129,20.697 104.734546,20.4656667 105.876713,20.003 C107.018879,19.5403333 108.013713,18.888 108.861213,18.046 C109.708713,17.204 110.368213,16.2205 110.839713,15.0955 C111.311213,13.9705 111.546963,12.7385 111.546963,11.3995 C111.546963,10.0605 111.311879,8.83083333 110.841713,7.7105 C110.371546,6.59016667 109.712463,5.60866667 108.864463,4.766 C108.016463,3.92333333 107.020963,3.2705 105.877963,2.8075 C104.734963,2.3445 103.492129,2.113 102.149463,2.113 C100.806796,2.113 99.562546,2.34475 98.4167127,2.80825 C97.2708794,3.27175 96.2728794,3.92516667 95.4227127,4.7685 C94.572546,5.61183333 93.9118794,6.59416667 93.4407127,7.7155 C92.969546,8.83683333 92.7339627,10.0646667 92.7339627,11.399 C92.7339627,12.7333333 92.969296,13.9630833 93.4399627,15.08825 C93.9106294,16.2134167 94.570546,17.1990833 95.4197127,18.04525 C96.2688794,18.8914167 97.2671294,19.5449167 98.4144627,20.00575 C99.561796,20.4665833 100.806796,20.697 102.149463,20.697 Z M125.398625,22.81 C123.716625,22.81 122.116375,22.5355 120.597875,21.9865 C119.079375,21.4375 117.898458,20.7345 117.055125,19.8775 L117.992625,18.0655 C118.793292,18.8368333 119.857292,19.4833333 121.184625,20.005 C122.511958,20.5266667 123.911958,20.7875 125.384625,20.7875 C126.788292,20.7875 127.931875,20.6118333 128.815375,20.2605 C129.698875,19.9091667 130.352042,19.4334167 130.774875,18.83325 C131.197708,18.2330833 131.409125,17.565 131.409125,16.829 C131.409125,15.9556667 131.159208,15.2541667 130.659375,14.7245 C130.159542,14.1948333 129.501042,13.7735 128.683875,13.4605 C127.866708,13.1475 126.968875,12.8774167 125.990375,12.65025 C125.011875,12.4230833 124.031125,12.1724167 123.048125,11.89825 C122.065125,11.6240833 121.165042,11.2669167 120.347875,10.82675 C119.530708,10.3865833 118.872208,9.79475 118.372375,9.05125 C117.872542,8.30775 117.622625,7.34333333 117.622625,6.158 C117.622625,5.05566667 117.914125,4.03858333 118.497125,3.10675 C119.080125,2.17491667 119.978375,1.42416667 121.191875,0.8545 C122.405375,0.284833333 123.959458,0 125.854125,0 C127.121125,0 128.375292,0.177666667 129.616625,0.533 C130.857958,0.888333333 131.926125,1.38133333 132.821125,2.012 L131.998125,3.884 C131.053458,3.24666667 130.043208,2.77708333 128.967375,2.47525 C127.891542,2.17341667 126.852292,2.0225 125.849625,2.0225 C124.497625,2.0225 123.382208,2.2065 122.503375,2.5745 C121.624542,2.9425 120.979042,3.42958333 120.566875,4.03575 C120.154708,4.64191667 119.948625,5.32383333 119.948625,6.0815 C119.948625,6.96383333 120.198625,7.66991667 120.698625,8.19975 C121.198625,8.72958333 121.857125,9.14791667 122.674125,9.45475 C123.491125,9.76158333 124.391208,10.0315833 125.374375,10.26475 C126.357542,10.4979167 127.338375,10.7509167 128.316875,11.02375 C129.295375,11.2965833 130.193125,11.65 131.010125,12.084 C131.827125,12.518 132.485625,13.1021667 132.985625,13.8365 C133.485625,14.5708333 133.735625,15.52 133.735625,16.684 C133.735625,17.774 133.438708,18.785 132.844875,19.717 C132.251042,20.649 131.337458,21.3975 130.104125,21.9625 C128.870792,22.5275 127.302292,22.81 125.398625,22.81 Z M135.299303,22.605 L145.535803,0.205 L147.862303,0.205 L158.117303,22.605 L155.622303,22.605 L146.203803,1.569 L147.176303,1.569 L137.757803,22.605 L135.299303,22.605 Z M139.321803,16.6325 L140.022303,14.701 L153.053803,14.701 L153.772803,16.6325 L139.321803,16.6325 Z" id="path-6"></path>
        <linearGradient x1="50%" y1="0%" x2="50%" y2="100%" id="linearGradient-8">
            <stop stop-color="#424242" offset="0%"></stop>
            <stop stop-color="#9E9E9E" offset="100%"></stop>
        </linearGradient>
    </defs>
    <g id="banner-dark" stroke="none" stroke-width="1" fill="none" fill-rule="evenodd">
        <rect id="background" fill="url(#linearGradient-1)" x="0" y="0" width="1200" height="480" rx="32"></rect>
        <g id="tiles" transform="translate(-20, -16)">
            <path d="M1224,416.5 C1228.28021,416.5 1232.15521,418.234897 1234.96016,421.039845 C1237.7651,423.844793 1239.5,427.719793 1239.5,432 L1239.5,496 C1239.5,500.280207 1237.7651,504.155207 1234.96016,506.960155 C1232.15521,509.765103 1228.28021,511.5 1224,511.5 L1160,511.5 C1155.71979,511.5 1151.84479,509.765103 1149.03984,506.960155 C1146.2349,504.155207 1144.5,500.280207 1144.5,496 L1144.5,432 C1144.5,427.719793 1146.2349,423.844793 1149.03984,421.039845 C1151.84479,418.234897 1155.71979,416.5 1160,416.5 Z M1120,416.5 C1124.28021,416.5 1128.15521,418.234897 1130.96016,421.039845 C1133.7651,423.844793 1135.5,427.719793 1135.5,432 L1135.5,496 C1135.5,500.280207 1133.7651,504.155207 1130.96016,506.960155 C1128.15521,509.765103 1124.28021,511.5 1120,511.5 L1056,511.5 C1051.71979,511.5 1047.84479,509.765103 1045.03984,506.960155 C1042.2349,504.155207 1040.5,500.280207 1040.5,496 L1040.5,432 C1040.5,427.719793 1042.2349,423.844793 1045.03984,421.039845 C1047.84479,418.234897 1051.71979,416.5 1056,416.5 Z M1016,416.5 C1020.28021,416.5 1024.15521,418.234897 1026.96016,421.039845 C1029.7651,423.844793 1031.5,427.719793 1031.5,432 L1031.5,496 C1031.5,500.280207 1029.7651,504.155207 1026.96016,506.960155 C1024.15521,509.765103 1020.28021,511.5 1016,511.5 L952,511.5 C947.719793,511.5 943.844793,509.765103 941.039845,506.960155 C938.234897,504.155207 936.5,500.280207 936.5,496 L936.5,432 C936.5,427.719793 938.234897,423.844793 941.039845,421.039845 C943.844793,418.234897 947.719793,416.5 952,416.5 Z M912,416.5 C916.280207,416.5 920.155207,418.234897 922.960155,421.039845 C925.765103,423.844793 927.5,427.719793 927.5,432 L927.5,496 C927.5,500.280207 925.765103,504.155207 922.960155,506.960155 C920.155207,509.765103 916.280207,511.5 912,511.5 L848,511.5 C843.719793,511.5 839.844793,509.765103 837.039845,506.960155 C834.234897,504.155207 832.5,500.280207 832.5,496 L832.5,432 C832.5,427.719793 834.234897,423.844793 837.039845,421.039845 C839.844793,418.234897 843.719793,416.5 848,416.5 Z M808,416.5 C812.280207,416.5 816.155207,418.234897 818.960155,421.039845 C821.765103,423.844793 823.5,427.719793 823.5,432 L823.5,496 C823.5,500.280207 821.765103,504.155207 818.960155,506.960155 C816.155207,509.765103 812.280207,511.5 808,511.5 L744,511.5 C739.719793,511.5 735.844793,509.765103 733.039845,506.960155 C730.234897,504.155207 728.5,500.280207 728.5,496 L728.5,432 C728.5,427.719793 730.234897,423.844793 733.039845,421.039845 C735.844793,418.234897 739.719793,416.5 744,416.5 Z M704,416.5 C708.280207,416.5 712.155207,418.234897 714.960155,421.039845 C717.765103,423.844793 719.5,427.719793 719.5,432 L719.5,496 C719.5,500.280207 717.765103,504.155207 714.960155,506.960155 C712.155207,509.765103 708.280207,511.5 704,511.5 L640,511.5 C635.719793,511.5 631.844793,509.765103 629.039845,506.960155 C626.234897,504.155207 624.5,500.280207 624.5,496 L624.5,432 C624.5,427.719793 626.234897,423.844793 629.039845,421.039845 C631.844793,418.234897 635.719793,416.5 640,416.5 Z M600,416.5 C604.280207,416.5 608.155207,418.234897 610.960155,421.039845 C613.765103,423.844793 615.5,427.719793 615.5,432 L615.5,496 C615.5,500.280207 613.765103,504.155207 610.960155,506.960155 C608.155207,509.765103 604.280207,511.5 600,511.5 L536,511.5 C531.719793,511.5 527.844793,509.765103 525.039845,506.960155 C522.234897,504.155207 520.5,500.280207 520.5,496 L520.5,432 C520.5,427.719793 522.234897,423.844793 525.039845,421.039845 C527.844793,418.234897 531.719793,416.5 536,416.5 Z M496,416.5 C500.280207,416.5 504.155207,418.234897 506.960155,421.039845 C509.765103,423.844793 511.5,427.719793 511.5,432 L511.5,496 C511.5,500.280207 509.765103,504.155207 506.960155,506.960155 C504.155207,509.765103 500.280207,511.5 496,511.5 L432,511.5 C427.719793,511.5 423.844793,509.765103 421.039845,506.960155 C418.234897,504.155207 416.5,500.280207 416.5,496 L416.5,432 C416.5,427.719793 418.234897,423.844793 421.039845,421.039845 C423.844793,418.234897 427.719793,416.5 432,416.5 Z M392,416.5 C396.280207,416.5 400.155207,418.234897 402.960155,421.039845 C405.765103,423.844793 407.5,427.719793 407.5,432 L407.5,496 C407.5,500.280207 405.765103,504.155207 402.960155,506.960155 C400.155207,509.765103 396.280207,511.5 392,511.5 L328,511.5 C323.719793,511.5 319.844793,509.765103 317.039845,506.960155 C314.234897,504.155207 312.5,500.280207 312.5,496 L312.5,432 C312.5,427.719793 314.234897,423.844793 317.039845,421.039845 C319.844793,418.234897 323.719793,416.5 328,416.5 Z M288,416.5 C292.280207,416.5 296.155207,418.234897 298.960155,421.039845 C301.765103,423.844793 303.5,427.719793 303.5,432 L303.5,496 C303.5,500.280207 301.765103,504.155207 298.960155,506.960155 C296.155207,509.765103 292.280207,511.5 288,511.5 L224,511.5 C219.719793,511.5 215.844793,509.765103 213.039845,506.960155 C210.234897,504.155207 208.5,500.280207 208.5,496 L208.5,432 C208.5,427.719793 210.234897,423.844793 213.039845,421.039845 C215.844793,418.234897 219.719793,416.5 224,416.5 Z M184,416.5 C188.280207,416.5 192.155207,418.234897 194.960155,421.039845 C197.765103,423.844793 199.5,427.719793 199.5,432 L199.5,496 C199.5,500.280207 197.765103,504.155207 194.960155,506.960155 C192.155207,509.765103 188.280207,511.5 184,511.5 L120,511.5 C115.719793,511.5 111.844793,509.765103 109.039845,506.960155 C106.234897,504.155207 104.5,500.280207 104.5,496 L104.5,432 C104.5,427.719793 106.234897,423.844793 109.039845,421.039845 C111.844793,418.234897 115.719793,416.5 120,416.5 Z M80,416.5 C84.2802068,416.5 88.1552068,418.234897 90.9601551,421.039845 C93.7651034,423.844793 95.5,427.719793 95.5,432 L95.5,496 C95.5,500.280207 93.7651034,504.155207 90.9601551,506.960155 C88.1552068,509.765103 84.2802068,511.5 80,511.5 L16,511.5 C11.7197932,511.5 7.84479319,509.765103 5.03984489,506.960155 C2.23489659,504.155207 0.5,500.280207 0.5,496 L0.5,432 C0.5,427.719793 2.23489659,423.844793 5.03984489,421.039845 C7.84479319,418.234897 11.7197932,416.5 16,416.5 Z M1224,312.5 C1228.28021,312.5 1232.15521,314.234897 1234.96016,317.039845 C1237.7651,319.844793 1239.5,323.719793 1239.5,328 L1239.5,392 C1239.5,396.280207 1237.7651,400.155207 1234.96016,402.960155 C1232.15521,405.765103 1228.28021,407.5 1224,407.5 L1160,407.5 C1155.71979,407.5 1151.84479,405.765103 1149.03984,402.960155 C1146.2349,400.155207 1144.5,396.280207 1144.5,392 L1144.5,328 C1144.5,323.719793 1146.2349,319.844793 1149.03984,317.039845 C1151.84479,314.234897 1155.71979,312.5 1160,312.5 Z M1120,312.5 C1124.28021,312.5 1128.15521,314.234897 1130.96016,317.039845 C1133.7651,319.844793 1135.5,323.719793 1135.5,328 L1135.5,392 C1135.5,396.280207 1133.7651,400.155207 1130.96016,402.960155 C1128.15521,405.765103 1124.28021,407.5 1120,407.5 L1056,407.5 C1051.71979,407.5 1047.84479,405.765103 1045.03984,402.960155 C1042.2349,400.155207 1040.5,396.280207 1040.5,392 L1040.5,328 C1040.5,323.719793 1042.2349,319.844793 1045.03984,317.039845 C1047.84479,314.234897 1051.71979,312.5 1056,312.5 Z M1016,312.5 C1020.28021,312.5 1024.15521,314.234897 1026.96016,317.039845 C1029.7651,319.844793 1031.5,323.719793 1031.5,328 L1031.5,392 C1031.5,396.280207 1029.7651,400.155207 1026.96016,402.960155 C1024.15521,405.765103 1020.28021,407.5 1016,407.5 L952,407.5 C947.719793,407.5 943.844793,405.765103 941.039845,402.960155 C938.234897,400.155207 936.5,396.280207 936.5,392 L936.5,328 C936.5,323.719793 938.234897,319.844793 941.039845,317.039845 C943.844793,314.234897 947.719793,312.5 952,312.5 Z M912,312.5 C916.280207,312.5 920.155207,314.234897 922.960155,317.039845 C925.765103,319.844793 927.5,323.719793 927.5,328 L927.5,392 C927.5,396.280207 925.765103,400.155207 922.960155,402.960155 C920.155207,405.765103 916.280207,407.5 912,407.5 L848,407.5 C843.719793,407.5 839.844793,405.765103 837.039845,402.960155 C834.234897,400.155207 832.5,396.280207 832.5,392 L832.5,328 C832.5,323.719793 834.234897,319.844793 837.039845,317.039845 C839.844793,314.234897 843.719793,312.5 848,312.5 Z M808,312.5 C812.280207,312.5 816.155207,314.234897 818.960155,317.039845 C821.765103,319.844793 823.5,323.719793 823.5,328 L823.5,392 C823.5,396.280207 821.765103,400.155207 818.960155,402.960155 C816.155207,405.765103 812.280207,407.5 808,407.5 L744,407.5 C739.719793,407.5 735.844793,405.765103 733.039845,402.960155 C730.234897,400.155207 728.5,396.280207 728.5,392 L728.5,328 C728.5,323.719793 730.234897,319.844793 733.039845,317.039845 C735.844793,314.234897 739.719793,312.5 744,312.5 Z M704,312.5 C708.280207,312.5 712.155207,314.234897 714.960155,317.039845 C717.765103,319.844793 719.5,323.719793 719.5,328 L719.5,392 C719.5,396.280207 717.765103,400.155207 714.960155,402.960155 C712.155207,405.765103 708.280207,407.5 704,407.5 L640,407.5 C635.719793,407.5 631.844793,405.765103 629.039845,402.960155 C626.234897,400.155207 624.5,396.280207 624.5,392 L624.5,328 C624.5,323.719793 626.234897,319.844793 629.039845,317.039845 C631.844793,314.234897 635.719793,312.5 640,312.5 Z M600,312.5 C604.280207,312.5 608.155207,314.234897 610.960155,317.039845 C613.765103,319.844793 615.5,323.719793 615.5,328 L615.5,392 C615.5,396.280207 613.765103,400.155207 610.960155,402.960155 C608.155207,405.765103 604.280207,407.5 600,407.5 L536,407.5 C531.719793,407.5 527.844793,405.765103 525.039845,402.960155 C522.234897,400.155207 520.5,396.280207 520.5,392 L520.5,328 C520.5,323.719793 522.234897,319.844793 525.039845,317.039845 C527.844793,314.234897 531.719793,312.5 536,312.5 Z M496,312.5 C500.280207,312.5 504.155207,314.234897 506.960155,317.039845 C509.765103,319.844793 511.5,323.719793 511.5,328 L511.5,392 C511.5,396.280207 509.765103,400.155207 506.960155,402.960155 C504.155207,405.765103 500.280207,407.5 496,407.5 L432,407.5 C427.719793,407.5 423.844793,405.765103 421.039845,402.960155 C418.234897,400.155207 416.5,396.280207 416.5,392 L416.5,328 C416.5,323.719793 418.234897,319.844793 421.039845,317.039845 C423.844793,314.234897 427.719793,312.5 432,312.5 Z M392,312.5 C396.280207,312.5 400.155207,314.234897 402.960155,317.039845 C405.765103,319.844793 407.5,323.719793 407.5,328 L407.5,392 C407.5,396.280207 405.765103,400.155207 402.960155,402.960155 C400.155207,405.765103 396.280207,407.5 392,407.5 L328,407.5 C323.719793,407.5 319.844793,405.765103 317.039845,402.960155 C314.234897,400.155207 312.5,396.280207 312.5,392 L312.5,328 C312.5,323.719793 314.234897,319.844793 317.039845,317.039845 C319.844793,314.234897 323.719793,312.5 328,312.5 Z M288,312.5 C292.280207,312.5 296.155207,314.234897 298.960155,317.039845 C301.765103,319.844793 303.5,323.719793 303.5,328 L303.5,392 C303.5,396.280207 301.765103,400.155207 298.960155,402.960155 C296.155207,405.765103 292.280207,407.5 288,407.5 L224,407.5 C219.719793,407.5 215.844793,405.765103 213.039845,402.960155 C210.234897,400.155207 208.5,396.280207 208.5,392 L208.5,328 C208.5,323.719793 210.234897,319.844793 213.039845,317.039845 C215.844793,314.234897 219.719793,312.5 224,312.5 Z M184,312.5 C188.280207,312.5 192.155207,314.234897 194.960155,317.039845 C197.765103,319.844793 199.5,323.719793 199.5,328 L199.5,392 C199.5,396.280207 197.765103,400.155207 194.960155,402.960155 C192.155207,405.765103 188.280207,407.5 184,407.5 L120,407.5 C115.719793,407.5 111.844793,405.765103 109.039845,402.960155 C106.234897,400.155207 104.5,396.280207 104.5,392 L104.5,328 C104.5,323.719793 106.234897,319.844793 109.039845,317.039845 C111.844793,314.234897 115.719793,312.5 120,312.5 Z M80,312.5 C84.2802068,312.5 88.1552068,314.234897 90.9601551,317.039845 C93.7651034,319.844793 95.5,323.719793 95.5,328 L95.5,392 C95.5,396.280207 93.7651034,400.155207 90.9601551,402.960155 C88.1552068,405.765103 84.2802068,407.5 80,407.5 L16,407.5 C11.7197932,407.5 7.84479319,405.765103 5.03984489,402.960155 C2.23489659,400.155207 0.5,396.280207 0.5,392 L0.5,328 C0.5,323.719793 2.23489659,319.844793 5.03984489,317.039845 C7.84479319,314.234897 11.7197932,312.5 16,312.5 Z M80,208.5 C84.2802068,208.5 88.1552068,210.234897 90.9601551,213.039845 C93.7651034,215.844793 95.5,219.719793 95.5,224 L95.5,288 C95.5,292.280207 93.7651034,296.155207 90.9601551,298.960155 C88.1552068,301.765103 84.2802068,303.5 80,303.5 L16,303.5 C11.7197932,303.5 7.84479319,301.765103 5.03984489,298.960155 C2.23489659,296.155207 0.5,292.280207 0.5,288 L0.5,224 C0.5,219.719793 2.23489659,215.844793 5.03984489,213.039845 C7.84479319,210.234897 11.7197932,208.5 16,208.5 Z M184,208.5 C188.280207,208.5 192.155207,210.234897 194.960155,213.039845 C197.765103,215.844793 199.5,219.719793 199.5,224 L199.5,288 C199.5,292.280207 197.765103,296.155207 194.960155,298.960155 C192.155207,301.765103 188.280207,303.5 184,303.5 L120,303.5 C115.719793,303.5 111.844793,301.765103 109.039845,298.960155 C106.234897,296.155207 104.5,292.280207 104.5,288 L104.5,224 C104.5,219.719793 106.234897,215.844793 109.039845,213.039845 C111.844793,210.234897 115.719793,208.5 120,208.5 Z M288,208.5 C292.280207,208.5 296.155207,210.234897 298.960155,213.039845 C301.765103,215.844793 303.5,219.719793 303.5,224 L303.5,288 C303.5,292.280207 301.765103,296.155207 298.960155,298.960155 C296.155207,301.765103 292.280207,303.5 288,303.5 L224,303.5 C219.719793,303.5 215.844793,301.765103 213.039845,298.960155 C210.234897,296.155207 208.5,292.280207 208.5,288 L208.5,224 C208.5,219.719793 210.234897,215.844793 213.039845,213.039845 C215.844793,210.234897 219.719793,208.5 224,208.5 Z M392,208.5 C396.280207,208.5 400.155207,210.234897 402.960155,213.039845 C405.765103,215.844793 407.5,219.719793 407.5,224 L407.5,288 C407.5,292.280207 405.765103,296.155207 402.960155,298.960155 C400.155207,301.765103 396.280207,303.5 392,303.5 L328,303.5 C323.719793,303.5 319.844793,301.765103 317.039845,298.960155 C314.234897,296.155207 312.5,292.280207 312.5,288 L312.5,224 C312.5,219.719793 314.234897,215.844793 317.039845,213.039845 C319.844793,210.234897 323.719793,208.5 328,208.5 Z M496,208.5 C500.280207,208.5 504.155207,210.234897 506.960155,213.039845 C509.765103,215.844793 511.5,219.719793 511.5,224 L511.5,288 C511.5,292.280207 509.765103,296.155207 506.960155,298.960155 C504.155207,301.765103 500.280207,303.5 496,303.5 L432,303.5 C427.719793,303.5 423.844793,301.765103 421.039845,298.960155 C418.234897,296.155207 416.5,292.280207 416.5,288 L416.5,224 C416.5,219.719793 418.234897,215.844793 421.039845,213.039845 C423.844793,210.234897 427.719793,208.5 432,208.5 Z M600,208.5 C604.280207,208.5 608.155207,210.234897 610.960155,213.039845 C613.765103,215.844793 615.5,219.719793 615.5,224 L615.5,288 C615.5,292.280207 613.765103,296.155207 610.960155,298.960155 C608.155207,301.765103 604.280207,303.5 600,303.5 L536,303.5 C531.719793,303.5 527.844793,301.765103 525.039845,298.960155 C522.234897,296.155207 520.5,292.280207 520.5,288 L520.5,224 C520.5,219.719793 522.234897,215.844793 525.039845,213.039845 C527.844793,210.234897 531.719793,208.5 536,208.5 Z M704,208.5 C708.280207,208.5 712.155207,210.234897 714.960155,213.039845 C717.765103,215.844793 719.5,219.719793 719.5,224 L719.5,288 C719.5,292.280207 717.765103,296.155207 714.960155,298.960155 C712.155207,301.765103 708.280207,303.5 704,303.5 L640,303.5 C635.719793,303.5 631.844793,301.765103 629.039845,298.960155 C626.234897,296.155207 624.5,292.280207 624.5,288 L624.5,224 C624.5,219.719793 626.234897,215.844793 629.039845,213.039845 C631.844793,210.234897 635.719793,208.5 640,208.5 Z M808,208.5 C812.280207,208.5 816.155207,210.234897 818.960155,213.039845 C821.765103,215.844793 823.5,219.719793 823.5,224 L823.5,288 C823.5,292.280207 821.765103,296.155207 818.960155,298.960155 C816.155207,301.765103 812.280207,303.5 808,303.5 L744,303.5 C739.719793,303.5 735.844793,301.765103 733.039845,298.960155 C730.234897,296.155207 728.5,292.280207 728.5,288 L728.5,224 C728.5,219.719793 730.234897,215.844793 733.039845,213.039845 C735.844793,210.234897 739.719793,208.5 744,208.5 Z M912,208.5 C916.280207,208.5 920.155207,210.234897 922.960155,213.039845 C925.765103,215.844793 927.5,219.719793 927.5,224 L927.5,288 C927.5,292.280207 925.765103,296.155207 922.960155,298.960155 C920.155207,301.765103 916.280207,303.5 912,303.5 L848,303.5 C843.719793,303.5 839.844793,301.765103 837.039845,298.960155 C834.234897,296.155207 832.5,292.280207 832.5,288 L832.5,224 C832.5,219.719793 834.234897,215.844793 837.039845,213.039845 C839.844793,210.234897 843.719793,208.5 848,208.5 Z M1016,208.5 C1020.28021,208.5 1024.15521,210.234897 1026.96016,213.039845 C1029.7651,215.844793 1031.5,219.719793 1031.5,224 L1031.5,288 C1031.5,292.280207 1029.7651,296.155207 1026.96016,298.960155 C1024.15521,301.765103 1020.28021,303.5 1016,303.5 L952,303.5 C947.719793,303.5 943.844793,301.765103 941.039845,298.960155 C938.234897,296.155207 936.5,292.280207 936.5,288 L936.5,224 C936.5,219.719793 938.234897,215.844793 941.039845,213.039845 C943.844793,210.234897 947.719793,208.5 952,208.5 Z M1120,208.5 C1124.28021,208.5 1128.15521,210.234897 1130.96016,213.039845 C1133.7651,215.844793 1135.5,219.719793 1135.5,224 L1135.5,288 C1135.5,292.280207 1133.7651,296.155207 1130.96016,298.960155 C1128.15521,301.765103 1124.28021,303.5 1120,303.5 L1056,303.5 C1051.71979,303.5 1047.84479,301.765103 1045.03984,298.960155 C1042.2349,296.155207 1040.5,292.280207 1040.5,288 L1040.5,224 C1040.5,219.719793 1042.2349,215.844793 1045.03984,213.039845 C1047.84479,210.234897 1051.71979,208.5 1056,208.5 Z M1224,208.5 C1228.28021,208.5 1232.15521,210.234897 1234.96016,213.039845 C1237.7651,215.844793 1239.5,219.719793 1239.5,224 L1239.5,288 C1239.5,292.280207 1237.7651,296.155207 1234.96016,298.960155 C1232.15521,301.765103 1228.28021,303.5 1224,303.5 L1160,303.5 C1155.71979,303.5 1151.84479,301.765103 1149.03984,298.960155 C1146.2349,296.155207 1144.5,292.280207 1144.5,288 L1144.5,224 C1144.5,219.719793 1146.2349,215.844793 1149.03984,213.039845 C1151.84479,210.234897 1155.71979,208.5 1160,208.5 Z M1224,104.5 C1228.28021,104.5 1232.15521,106.234897 1234.96016,109.039845 C1237.7651,111.844793 1239.5,115.719793 1239.5,120 L1239.5,184 C1239.5,188.280207 1237.7651,192.155207 1234.96016,194.960155 C1232.15521,197.765103 1228.28021,199.5 1224,199.5 L1160,199.5 C1155.71979,199.5 1151.84479,197.765103 1149.03984,194.960155 C1146.2349,192.155207 1144.5,188.280207 1144.5,184 L1144.5,120 C1144.5,115.719793 1146.2349,111.844793 1149.03984,109.039845 C1151.84479,106.234897 1155.71979,104.5 1160,104.5 Z M1120,104.5 C1124.28021,104.5 1128.15521,106.234897 1130.96016,109.039845 C1133.7651,111.844793 1135.5,115.719793 1135.5,120 L1135.5,184 C1135.5,188.280207 1133.7651,192.155207 1130.96016,194.960155 C1128.15521,197.765103 1124.28021,199.5 1120,199.5 L1056,199.5 C1051.71979,199.5 1047.84479,197.765103 1045.03984,194.960155 C1042.2349,192.155207 1040.5,188.280207 1040.5,184 L1040.5,120 C1040.5,115.719793 1042.2349,111.844793 1045.03984,109.039845 C1047.84479,106.234897 1051.71979,104.5 1056,104.5 Z M1016,104.5 C1020.28021,104.5 1024.15521,106.234897 1026.96016,109.039845 C1029.7651,111.844793 1031.5,115.719793 1031.5,120 L1031.5,184 C1031.5,188.280207 1029.7651,192.155207 1026.96016,194.960155 C1024.15521,197.765103 1020.28021,199.5 1016,199.5 L952,199.5 C947.719793,199.5 943.844793,197.765103 941.039845,194.960155 C938.234897,192.155207 936.5,188.280207 936.5,184 L936.5,120 C936.5,115.719793 938.234897,111.844793 941.039845,109.039845 C943.844793,106.234897 947.719793,104.5 952,104.5 Z M912,104.5 C916.280207,104.5 920.155207,106.234897 922.960155,109.039845 C925.765103,111.844793 927.5,115.719793 927.5,120 L927.5,184 C927.5,188.280207 925.765103,192.155207 922.960155,194.960155 C920.155207,197.765103 916.280207,199.5 912,199.5 L848,199.5 C843.719793,199.5 839.844793,197.765103 837.039845,194.960155 C834.234897,192.155207 832.5,188.280207 832.5,184 L832.5,120 C832.5,115.719793 834.234897,111.844793 837.039845,109.039845 C839.844793,106.234897 843.719793,104.5 848,104.5 Z M808,104.5 C812.280207,104.5 816.155207,106.234897 818.960155,109.039845 C821.765103,111.844793 823.5,115.719793 823.5,120 L823.5,184 C823.5,188.280207 821.765103,192.155207 818.960155,194.960155 C816.155207,197.765103 812.280207,199.5 808,199.5 L744,199.5 C739.719793,199.5 735.844793,197.765103 733.039845,194.960155 C730.234897,192.155207 728.5,188.280207 728.5,184 L728.5,120 C728.5,115.719793 730.234897,111.844793 733.039845,109.039845 C735.844793,106.234897 739.719793,104.5 744,104.5 Z M704,104.5 C708.280207,104.5 712.155207,106.234897 714.960155,109.039845 C717.765103,111.844793 719.5,115.719793 719.5,120 L719.5,184 C719.5,188.280207 717.765103,192.155207 714.960155,194.960155 C712.155207,197.765103 708.280207,199.5 704,199.5 L640,199.5 C635.719793,199.5 631.844793,197.765103 629.039845,194.960155 C626.234897,192.155207 624.5,188.280207 624.5,184 L624.5,120 C624.5,115.719793 626.234897,111.844793 629.039845,109.039845 C631.844793,106.234897 635.719793,104.5 640,104.5 Z M600,104.5 C604.280207,104.5 608.155207,106.234897 610.960155,109.039845 C613.765103,111.844793 615.5,115.719793 615.5,120 L615.5,184 C615.5,188.280207 613.765103,192.155207 610.960155,194.960155 C608.155207,197.765103 604.280207,199.5 600,199.5 L536,199.5 C531.719793,199.5 527.844793,197.765103 525.039845,194.960155 C522.234897,192.155207 520.5,188.280207 520.5,184 L520.5,120 C520.5,115.719793 522.234897,111.844793 525.039845,109.039845 C527.844793,106.234897 531.719793,104.5 536,104.5 Z M496,104.5 C500.280207,104.5 504.155207,106.234897 506.960155,109.039845 C509.765103,111.844793 511.5,115.719793 511.5,120 L511.5,184 C511.5,188.280207 509.765103,192.155207 506.960155,194.960155 C504.155207,197.765103 500.280207,199.5 496,199.5 L432,199.5 C427.719793,199.5 423.844793,197.765103 421.039845,194.960155 C418.234897,192.155207 416.5,188.280207 416.5,184 L416.5,120 C416.5,115.719793 418.234897,111.844793 421.039845,109.039845 C423.844793,106.234897 427.719793,104.5 432,104.5 Z M392,104.5 C396.280207,104.5 400.155207,106.234897 402.960155,109.039845 C405.765103,111.844793 407.5,115.719793 407.5,120 L407.5,184 C407.5,188.280207 405.765103,192.155207 402.960155,194.960155 C400.155207,197.765103 396.280207,199.5 392,199.5 L328,199.5 C323.719793,199.5 319.844793,197.765103 317.039845,194.960155 C314.234897,192.155207 312.5,188.280207 312.5,184 L312.5,120 C312.5,115.719793 314.234897,111.844793 317.039845,109.039845 C319.844793,106.234897 323.719793,104.5 328,104.5 Z M288,104.5 C292.280207,104.5 296.155207,106.234897 298.960155,109.039845 C301.765103,111.844793 303.5,115.719793 303.5,120 L303.5,184 C303.5,188.280207 301.765103,192.155207 298.960155,194.960155 C296.155207,197.765103 292.280207,199.5 288,199.5 L224,199.5 C219.719793,199.5 215.844793,197.765103 213.039845,194.960155 C210.234897,192.155207 208.5,188.280207 208.5,184 L208.5,120 C208.5,115.719793 210.234897,111.844793 213.039845,109.039845 C215.844793,106.234897 219.719793,104.5 224,104.5 Z M184,104.5 C188.280207,104.5 192.155207,106.234897 194.960155,109.039845 C197.765103,111.844793 199.5,115.719793 199.5,120 L199.5,184 C199.5,188.280207 197.765103,192.155207 194.960155,194.960155 C192.155207,197.765103 188.280207,199.5 184,199.5 L120,199.5 C115.719793,199.5 111.844793,197.765103 109.039845,194.960155 C106.234897,192.155207 104.5,188.280207 104.5,184 L104.5,120 C104.5,115.719793 106.234897,111.844793 109.039845,109.039845 C111.844793,106.234897 115.719793,104.5 120,104.5 Z M80,104.5 C84.2802068,104.5 88.1552068,106.234897 90.9601551,109.039845 C93.7651034,111.844793 95.5,115.719793 95.5,120 L95.5,184 C95.5,188.280207 93.7651034,192.155207 90.9601551,194.960155 C88.1552068,197.765103 84.2802068,199.5 80,199.5 L16,199.5 C11.7197932,199.5 7.84479319,197.765103 5.03984489,194.960155 C2.23489659,192.155207 0.5,188.280207 0.5,184 L0.5,120 C0.5,115.719793 2.23489659,111.844793 5.03984489,109.039845 C7.84479319,106.234897 11.7197932,104.5 16,104.5 Z M1224,0.5 C1228.28021,0.5 1232.15521,2.23489659 1234.96016,5.03984489 C1237.7651,7.84479319 1239.5,11.7197932 1239.5,16 L1239.5,80 C1239.5,84.2802068 1237.7651,88.1552068 1234.96016,90.9601551 C1232.15521,93.7651034 1228.28021,95.5 1224,95.5 L1160,95.5 C1155.71979,95.5 1151.84479,93.7651034 1149.03984,90.9601551 C1146.2349,88.1552068 1144.5,84.2802068 1144.5,80 L1144.5,16 C1144.5,11.7197932 1146.2349,7.84479319 1149.03984,5.03984489 C1151.84479,2.23489659 1155.71979,0.5 1160,0.5 Z M1120,0.5 C1124.28021,0.5 1128.15521,2.23489659 1130.96016,5.03984489 C1133.7651,7.84479319 1135.5,11.7197932 1135.5,16 L1135.5,80 C1135.5,84.2802068 1133.7651,88.1552068 1130.96016,90.9601551 C1128.15521,93.7651034 1124.28021,95.5 1120,95.5 L1056,95.5 C1051.71979,95.5 1047.84479,93.7651034 1045.03984,90.9601551 C1042.2349,88.1552068 1040.5,84.2802068 1040.5,80 L1040.5,16 C1040.5,11.7197932 1042.2349,7.84479319 1045.03984,5.03984489 C1047.84479,2.23489659 1051.71979,0.5 1056,0.5 L1120,0.5 Z M1016,0.5 C1020.28021,0.5 1024.15521,2.23489659 1026.96016,5.03984489 C1029.7651,7.84479319 1031.5,11.7197932 1031.5,16 L1031.5,80 C1031.5,84.2802068 1029.7651,88.1552068 1026.96016,90.9601551 C1024.15521,93.7651034 1020.28021,95.5 1016,95.5 L952,95.5 C947.719793,95.5 943.844793,93.7651034 941.039845,90.9601551 C938.234897,88.1552068 936.5,84.2802068 936.5,80 L936.5,16 C936.5,11.7197932 938.234897,7.84479319 941.039845,5.03984489 C943.844793,2.23489659 947.719793,0.5 952,0.5 L1016,0.5 Z M912,0.5 C916.280207,0.5 920.155207,2.23489659 922.960155,5.03984489 C925.765103,7.84479319 927.5,11.7197932 927.5,16 L927.5,80 C927.5,84.2802068 925.765103,88.1552068 922.960155,90.9601551 C920.155207,93.7651034 916.280207,95.5 912,95.5 L848,95.5 C843.719793,95.5 839.844793,93.7651034 837.039845,90.9601551 C834.234897,88.1552068 832.5,84.2802068 832.5,80 L832.5,16 C832.5,11.7197932 834.234897,7.84479319 837.039845,5.03984489 C839.844793,2.23489659 843.719793,0.5 848,0.5 L912,0.5 Z M808,0.5 C812.280207,0.5 816.155207,2.23489659 818.960155,5.03984489 C821.765103,7.84479319 823.5,11.7197932 823.5,16 L823.5,80 C823.5,84.2802068 821.765103,88.1552068 818.960155,90.9601551 C816.155207,93.7651034 812.280207,95.5 808,95.5 L744,95.5 C739.719793,95.5 735.844793,93.7651034 733.039845,90.9601551 C730.234897,88.1552068 728.5,84.2802068 728.5,80 L728.5,16 C728.5,11.7197932 730.234897,7.84479319 733.039845,5.03984489 C735.844793,2.23489659 739.719793,0.5 744,0.5 L808,0.5 Z M704,0.5 C708.280207,0.5 712.155207,2.23489659 714.960155,5.03984489 C717.765103,7.84479319 719.5,11.7197932 719.5,16 L719.5,80 C719.5,84.2802068 717.765103,88.1552068 714.960155,90.9601551 C712.155207,93.7651034 708.280207,95.5 704,95.5 L640,95.5 C635.719793,95.5 631.844793,93.7651034 629.039845,90.9601551 C626.234897,88.1552068 624.5,84.2802068 624.5,80 L624.5,16 C624.5,11.7197932 626.234897,7.84479319 629.039845,5.03984489 C631.844793,2.23489659 635.719793,0.5 640,0.5 Z M600,0.5 C604.280207,0.5 608.155207,2.23489659 610.960155,5.03984489 C613.765103,7.84479319 615.5,11.7197932 615.5,16 L615.5,80 C615.5,84.2802068 613.765103,88.1552068 610.960155,90.9601551 C608.155207,93.7651034 604.280207,95.5 600,95.5 L536,95.5 C531.719793,95.5 527.844793,93.7651034 525.039845,90.9601551 C522.234897,88.1552068 520.5,84.2802068 520.5,80 L520.5,16 C520.5,11.7197932 522.234897,7.84479319 525.039845,5.03984489 C527.844793,2.23489659 531.719793,0.5 536,0.5 L600,0.5 Z M496,0.5 C500.280207,0.5 504.155207,2.23489659 506.960155,5.03984489 C509.765103,7.84479319 511.5,11.7197932 511.5,16 L511.5,80 C511.5,84.2802068 509.765103,88.1552068 506.960155,90.9601551 C504.155207,93.7651034 500.280207,95.5 496,95.5 L432,95.5 C427.719793,95.5 423.844793,93.7651034 421.039845,90.9601551 C418.234897,88.1552068 416.5,84.2802068 416.5,80 L416.5,16 C416.5,11.7197932 418.234897,7.84479319 421.039845,5.03984489 C423.844793,2.23489659 427.719793,0.5 432,0.5 L496,0.5 Z M392,0.5 C396.280207,0.5 400.155207,2.23489659 402.960155,5.03984489 C405.765103,7.84479319 407.5,11.7197932 407.5,16 L407.5,80 C407.5,84.2802068 405.765103,88.1552068 402.960155,90.9601551 C400.155207,93.7651034 396.280207,95.5 392,95.5 L328,95.5 C323.719793,95.5 319.844793,93.7651034 317.039845,90.9601551 C314.234897,88.1552068 312.5,84.2802068 312.5,80 L312.5,16 C312.5,11.7197932 314.234897,7.84479319 317.039845,5.03984489 C319.844793,2.23489659 323.719793,0.5 328,0.5 Z M288,0.5 C292.280207,0.5 296.155207,2.23489659 298.960155,5.03984489 C301.765103,7.84479319 303.5,11.7197932 303.5,16 L303.5,80 C303.5,84.2802068 301.765103,88.1552068 298.960155,90.9601551 C296.155207,93.7651034 292.280207,95.5 288,95.5 L224,95.5 C219.719793,95.5 215.844793,93.7651034 213.039845,90.9601551 C210.234897,88.1552068 208.5,84.2802068 208.5,80 L208.5,16 C208.5,11.7197932 210.234897,7.84479319 213.039845,5.03984489 C215.844793,2.23489659 219.719793,0.5 224,0.5 L288,0.5 Z M184,0.5 C188.280207,0.5 192.155207,2.23489659 194.960155,5.03984489 C197.765103,7.84479319 199.5,11.7197932 199.5,16 L199.5,80 C199.5,84.2802068 197.765103,88.1552068 194.960155,90.9601551 C192.155207,93.7651034 188.280207,95.5 184,95.5 L120,95.5 C115.719793,95.5 111.844793,93.7651034 109.039845,90.9601551 C106.234897,88.1552068 104.5,84.2802068 104.5,80 L104.5,16 C104.5,11.7197932 106.234897,7.84479319 109.039845,5.03984489 C111.844793,2.23489659 115.719793,0.5 120,0.5 Z M80,0.5 C84.2802068,0.5 88.1552068,2.23489659 90.9601551,5.03984489 C93.7651034,7.84479319 95.5,11.7197932 95.5,16 L95.5,80 C95.5,84.2802068 93.7651034,88.1552068 90.9601551,90.9601551 C88.1552068,93.7651034 84.2802068,95.5 80,95.5 L16,95.5 C11.7197932,95.5 7.84479319,93.7651034 5.03984489,90.9601551 C2.23489659,88.1552068 0.5,84.2802068 0.5,80 L0.5,16 C0.5,11.7197932 2.23489659,7.84479319 5.03984489,5.03984489 C7.84479319,2.23489659 11.7197932,0.5 16,0.5 Z" id="Combined-Shape" stroke="#212121" fill="#101010"></path>
            <rect id="lighting" fill="url(#radialGradient-2)" style="mix-blend-mode: soft-light;" x="20" y="16" width="1200" height="480" rx="32"></rect>
        </g>
        <g id="logo" transform="translate(445, 96)">
            <path d="M215,288 C208.372583,288 203,282.627417 203,276 L203,262 C203,249.849736 193.150264,240 181,240 L227,240 C240.254834,240 251,229.254834 251,216 C251,202.745166 240.254834,192 227,192 L179,192 L179.396884,191.996785 C192.468663,191.784846 203,181.122286 203,168 L203,156 C203,149.372583 208.372583,144 215,144 L227,144 L227.396884,144.003215 L228.190652,144.009646 C267.405988,144.645463 299,176.633143 299,216 L298.996785,215.603116 C298.998925,215.735154 299,215.867452 299,216 L298.998941,216.394723 C298.786459,255.977607 266.632845,288 227,288 L215,288 Z M59,72 C59,85.254834 69.745166,96 83,96 L95,96 C101.627417,96 107,101.372583 107,108 L107,132 C107,138.627417 112.372583,144 119,144 L143,144 C149.627417,144 155,149.372583 155,156 L155,168 C155,181.254834 165.745166,192 179,192 L119,192 C112.372583,192 107,197.372583 107,204 L107,228 C107,234.627417 112.372583,240 119,240 L179,240 L178.603116,240.003215 C165.531337,240.215154 155,250.877714 155,264 L155,276 C155,282.627417 149.627417,288 143,288 L119,288 C112.372583,288 107,282.627417 107,276 L107,252 C107,245.372583 101.627417,240 95,240 L71,240 C64.372583,240 59,245.372583 59,252 L59,276 C59,282.627417 53.627417,288 47,288 L23,288 C16.372583,288 11,282.627417 11,276 L11,252 C11,245.372583 16.372583,240 23,240 L47,240 C53.627417,240 59,234.627417 59,228 L59,204 C59,197.372583 64.372583,192 71,192 L95,192 C101.627417,192 107,186.627417 107,180 L107,156 C107,149.372583 101.627417,144 95,144 L71,144 C64.372583,144 59,138.627417 59,132 L59,72 Z M95,0 C101.627417,-1.21743675e-15 107,5.372583 107,12 L107,36 C107,42.627417 101.627417,48 95,48 L83,48 C69.745166,48 59,58.745166 59,72 L59,12 C59,5.372583 64.372583,1.21743675e-15 71,0 L95,0 Z" id="white" fill="#FFFFFF" filter="url(#filter-3)"></path>
            <path d="M207.84,288 C201.212583,288 195.84,282.627417 195.84,276 L195.84,262.44 C195.84,250.04673 185.79327,240 173.4,240 L220.8,240 C234.054834,240 244.8,229.254834 244.8,216 C244.8,202.745166 234.054834,192 220.8,192 L171.84,192 C185.094834,192 195.84,181.254834 195.84,168 L195.84,156 C195.84,149.372583 201.212583,144 207.84,144 L220.8,144 C221.008864,144 221.217105,144.002668 221.42469,144.007972 C261.47514,144.586964 293.76,176.597142 293.76,216 L293.756785,215.603116 C293.758925,215.735154 293.76,215.867452 293.76,216 L293.75892,216.394723 C293.542188,255.977607 260.745502,288 220.32,288 L221.418702,287.99218 C221.2131,287.997383 221.006856,288 220.8,288 L207.84,288 Z M48.96,72 C48.96,85.254834 59.705166,96 72.96,96 L85.92,96 C92.547417,96 97.92,101.372583 97.92,108 L97.92,132 C97.92,138.627417 103.292583,144 109.92,144 L134.88,144 C141.507417,144 146.88,149.372583 146.88,156 L146.88,168 C146.88,181.254834 157.625166,192 170.88,192 L109.92,192 C103.292583,192 97.92,197.372583 97.92,204 L97.92,228 C97.92,234.627417 103.292583,240 109.92,240 L170.88,240 C157.625166,240 146.88,250.745166 146.88,264 L146.88,276 C146.88,282.627417 141.507417,288 134.88,288 L109.92,288 C103.292583,288 97.92,282.627417 97.92,276 L97.92,252 C97.92,245.372583 92.547417,240 85.92,240 L60.96,240 C54.332583,240 48.96,245.372583 48.96,252 L48.96,276 C48.96,282.627417 43.587417,288 36.96,288 L12,288 C5.372583,288 3.02432683e-14,282.627417 0,276 L0,252 C-8.11624501e-16,245.372583 5.372583,240 12,240 L36.96,240 C43.587417,240 48.96,234.627417 48.96,228 L48.96,204 C48.96,197.372583 54.332583,192 60.96,192 L85.92,192 C92.547417,192 97.92,186.627417 97.92,180 L97.92,156 C97.92,149.372583 92.547417,144 85.92,144 L60.96,144 C54.332583,144 48.96,138.627417 48.96,132 L48.96,72 Z M85.92,0 C92.547417,-1.21743675e-15 97.92,5.372583 97.92,12 L97.92,36 C97.92,42.627417 92.547417,48 85.92,48 L72.96,48 C59.705166,48 48.96,58.745166 48.96,72 L48.96,12 C48.96,5.372583 54.332583,-5.58920087e-16 60.96,-1.77635684e-15 L85.92,0 Z" id="red" fill="#B32919" style="mix-blend-mode: screen;" filter="url(#filter-4)"></path>
            <path d="M226.6,288 C219.972583,288 214.6,282.627417 214.6,276 L214.6,263.1 C214.6,250.342222 204.257778,240 191.5,240 L241,240 C254.254834,240 265,229.254834 265,216 C265,202.745166 254.254834,192 241,192 L190.6,192 C203.854834,192 214.6,181.254834 214.6,168 L214.6,156 C214.6,149.372583 219.972583,144 226.6,144 L241,144 C241.495454,144 241.987402,144.015013 242.475413,144.044609 C282.989309,145.386471 315.4,177.088511 315.4,216 C315.4,254.911489 282.989309,286.613529 242.47582,287.955742 C241.987402,287.984987 241.495454,288 241,288 L226.6,288 Z M63.4,72 C63.4,85.254834 74.145166,96 87.4,96 L101.8,96 C108.427417,96 113.8,101.372583 113.8,108 L113.8,132 C113.8,138.627417 119.172583,144 125.8,144 L152.2,144 C158.827417,144 164.2,149.372583 164.2,156 L164.2,168 C164.2,181.254834 174.945166,192 188.2,192 L125.8,192 C119.172583,192 113.8,197.372583 113.8,204 L113.8,228 C113.8,234.627417 119.172583,240 125.8,240 L188.2,240 C174.945166,240 164.2,250.745166 164.2,264 L164.2,276 C164.2,282.627417 158.827417,288 152.2,288 L125.8,288 C119.172583,288 113.8,282.627417 113.8,276 L113.8,252 C113.8,245.372583 108.427417,240 101.8,240 L75.4,240 C68.772583,240 63.4,245.372583 63.4,252 L63.4,276 C63.4,282.627417 58.027417,288 51.4,288 L25,288 C18.372583,288 13,282.627417 13,276 L13,252 C13,245.372583 18.372583,240 25,240 L51.4,240 C58.027417,240 63.4,234.627417 63.4,228 L63.4,204 C63.4,197.372583 68.772583,192 75.4,192 L101.8,192 C108.427417,192 113.8,186.627417 113.8,180 L113.8,156 C113.8,149.372583 108.427417,144 101.8,144 L75.4,144 C68.772583,144 63.4,138.627417 63.4,132 L63.4,72 Z M101.8,0 C108.427417,-1.21743675e-15 113.8,5.372583 113.8,12 L113.8,36 C113.8,42.627417 108.427417,48 101.8,48 L87.4,48 C74.145166,48 63.4,58.745166 63.4,72 L63.4,12 C63.4,5.372583 68.772583,1.21743675e-15 75.4,0 L101.8,0 Z" id="blue" fill="#1674FF" style="mix-blend-mode: screen;" filter="url(#filter-5)"></path>
        </g>
        <g id="Rectangle" transform="translate(523.2349, 429.395)">
            <mask id="mask-7" fill="white">
                <use xlink:href="#path-6"></use>
            </mask>
            <use id="Mask" fill="#FFFFFF" fill-rule="nonzero" xlink:href="#path-6"></use>
            <rect fill="url(#linearGradient-8)" mask="url(#mask-7)" x="-0.234904862" y="-0.395" width="158" height="23"></rect>
        </g>
    </g>
</svg>