<?xml version="1.0" encoding="UTF-8"?>
<svg width="1200px" height="480px" viewBox="0 0 1200 480" version="1.1" xmlns="http://www.w3.org/2000/svg" xmlns:xlink="http://www.w3.org/1999/xlink">
    <title>Artboard</title>
    <defs>
        <rect id="path-1" x="0" y="0" width="1200" height="480" rx="32"></rect>
    </defs>
    <g id="Artboard" stroke="none" stroke-width="1" fill="none" fill-rule="evenodd">
        <g id="content">
            <mask id="mask-2" fill="white">
                <use xlink:href="#path-1"></use>
            </mask>
            <use id="Mask" fill="#FFBA4D" xlink:href="#path-1"></use>
            <g mask="url(#mask-2)">
                <g transform="translate(-165, -198)">
                    <g id="Group" opacity="0.475864955" style="mix-blend-mode: color-dodge;" stroke-width="1" fill-rule="evenodd" transform="translate(157, 156)">
                        <rect id="Rectangle" fill="#E53157" x="0" y="144" width="144" height="144"></rect>
                        <rect id="Rectangle-Copy-5" fill="#E53157" opacity="0.5" x="0" y="0" width="144" height="144"></rect>
                        <rect id="Rectangle-Copy-6" fill="#E53157" opacity="0.8" x="144" y="0" width="144" height="144"></rect>
                        <rect id="Rectangle-Copy" fill="#E53157" opacity="0.5" x="144" y="144" width="144" height="144"></rect>
                        <rect id="Rectangle-Copy-7" fill="#E53157" opacity="0" x="288" y="144" width="144" height="144"></rect>
                        <rect id="Rectangle-Copy-11" fill="#E53157" x="288" y="0" width="144" height="144"></rect>
                        <rect id="Rectangle-Copy-8" fill="#E53157" x="288" y="288" width="144" height="144"></rect>
                        <rect id="Rectangle-Copy-12" fill="#E53157" x="432" y="288" width="144" height="144"></rect>
                        <rect id="Rectangle-Copy-16" fill="#E53157" opacity="0.85" x="432" y="144" width="144" height="144"></rect>
                        <rect id="Rectangle-Copy-17" fill="#E53157" opacity="0.25" x="432" y="0" width="144" height="144"></rect>
                        <rect id="Rectangle-Copy-18" fill="#E53157" x="576" y="0" width="144" height="144"></rect>
                        <rect id="Rectangle-Copy-19" fill="#E53157" opacity="0.65" x="576" y="144" width="144" height="144"></rect>
                        <rect id="Rectangle-Copy-20" fill="#E53157" opacity="0.4" x="720" y="144" width="144" height="144"></rect>
                        <rect id="Rectangle-Copy-24" fill="#E53157" opacity="0.7" x="720" y="0" width="144" height="144"></rect>
                        <rect id="Rectangle-Copy-28" fill="#E53157" opacity="0.7" x="720" y="288" width="144" height="144"></rect>
                        <rect id="Rectangle-Copy-32" fill="#E53157" opacity="0" x="720" y="432" width="144" height="144"></rect>
                        <rect id="Rectangle-Copy-21" fill="#E53157" opacity="0.1" x="864" y="144" width="144" height="144"></rect>
                        <rect id="Rectangle-Copy-25" fill="#E53157" x="864" y="0" width="144" height="144"></rect>
                        <rect id="Rectangle-Copy-29" fill="#E53157" opacity="0.65" x="864" y="288" width="144" height="144"></rect>
                        <rect id="Rectangle-Copy-33" fill="#E53157" x="864" y="432" width="144" height="144"></rect>
                        <rect id="Rectangle-Copy-22" fill="#E53157" x="1008" y="144" width="144" height="144"></rect>
                        <rect id="Rectangle-Copy-26" fill="#E53157" opacity="0" x="1008" y="0" width="144" height="144"></rect>
                        <rect id="Rectangle-Copy-30" fill="#E53157" x="1008" y="288" width="144" height="144"></rect>
                        <rect id="Rectangle-Copy-34" fill="#E53157" opacity="0.35" x="1008" y="432" width="144" height="144"></rect>
                        <rect id="Rectangle-Copy-23" fill="#E53157" x="1152" y="144" width="144" height="144"></rect>
                        <rect id="Rectangle-Copy-27" fill="#E53157" x="1152" y="0" width="144" height="144"></rect>
                        <rect id="Rectangle-Copy-31" fill="#E53157" opacity="0.7" x="1152" y="288" width="144" height="144"></rect>
                        <rect id="Rectangle-Copy-35" fill="#E53157" x="1152" y="432" width="144" height="144"></rect>
                        <rect id="Rectangle-Copy-13" fill="#E53157" x="576" y="288" width="144" height="144"></rect>
                        <rect id="Rectangle-Copy-14" fill="#E53157" x="576" y="432" width="144" height="144"></rect>
                        <rect id="Rectangle-Copy-15" fill="#E53157" x="432" y="432" width="144" height="144"></rect>
                        <rect id="Rectangle-Copy-9" fill="#E53157" opacity="0.25" x="144" y="432" width="144" height="144"></rect>
                        <rect id="Rectangle-Copy-10" fill="#E53157" opacity="0.85" x="288" y="432" width="144" height="144"></rect>
                        <rect id="Rectangle-Copy-2" fill="#E53157" x="144" y="288" width="144" height="144"></rect>
                        <rect id="Rectangle-Copy-3" fill="#E53157" x="0" y="432" width="144" height="144"></rect>
                        <rect id="Rectangle-Copy-4" fill="#E53157" opacity="0.8" x="0" y="288" width="144" height="144"></rect>
                    </g>
                    <g id="logo" stroke-width="1" fill-rule="evenodd">
                        <path d="M624,876 C604.117749,876 588,859.882251 588,840 L588,798 C588,761.549207 558.450793,732 522,732 L660,732 C699.764502,732 732,699.764502 732,660 C732,620.235498 699.764502,588 660,588 L516,588 L517.190652,587.990354 C556.405988,587.354537 588,555.366857 588,516 L588,480 C588,460.117749 604.117749,444 624,444 L660,444 C660.404351,444 660.807923,444.003333 661.210691,444.009974 C779.948114,444.655979 876,541.11093 876,660 L875.990026,658.789309 C875.996667,659.192077 876,659.595649 876,660 L875.990354,661.190652 L875.971062,663.571955 C874.063611,781.217965 778.100571,876 660,876 L660.02907,875.999994 L624,876 Z M156,228 C156,267.764502 188.235498,300 228,300 L264,300 C283.882251,300 300,316.117749 300,336 L300,408 C300,427.882251 316.117749,444 336,444 L408,444 C427.882251,444 444,460.117749 444,480 L444,516 C444,555.764502 476.235498,588 516,588 L336,588 C316.117749,588 300,604.117749 300,624 L300,696 C300,715.882251 316.117749,732 336,732 L516,732 L514.809348,732.009646 C475.594012,732.645463 444,764.633143 444,804 L444,840 C444,859.882251 427.882251,876 408,876 L336,876 C316.117749,876 300,859.882251 300,840 L300,768 C300,748.117749 283.882251,732 264,732 L192,732 C172.117749,732 156,748.117749 156,768 L156,840 C156,859.882251 139.882251,876 120,876 L48,876 C28.117749,876 12,859.882251 12,840 L12,768 C12,748.117749 28.117749,732 48,732 L120,732 C139.882251,732 156,715.882251 156,696 L156,624 C156,604.117749 172.117749,588 192,588 L264,588 C283.882251,588 300,571.882251 300,552 L300,480 C300,460.117749 283.882251,444 264,444 L192,444 C172.117749,444 156,427.882251 156,408 L156,228 Z M264,12 C283.882251,12 300,28.117749 300,48 L300,120 C300,139.882251 283.882251,156 264,156 L228,156 C188.235498,156 156,188.235498 156,228 L156,48 C156,28.117749 172.117749,12 192,12 L264,12 Z" id="Combined-Shape-Copy-2" fill="#C12A4A"></path>
                        <path d="M612,864 C592.117749,864 576,847.882251 576,828 L576,786 C576,749.549207 546.450793,720 510,720 L648,720 C687.764502,720 720,687.764502 720,648 C720,608.235498 687.764502,576 648,576 L504,576 L505.190652,575.990354 C544.405988,575.354537 576,543.366857 576,504 L576,468 C576,448.117749 592.117749,432 612,432 L648,432 C648.404351,432 648.807923,432.003333 649.210691,432.009974 C767.948114,432.655979 864,529.11093 864,648 L863.990026,646.789309 C863.996667,647.192077 864,647.595649 864,648 L863.990354,649.190652 L863.971062,651.571955 C862.063611,769.217965 766.100571,864 648,864 L648.02907,863.999994 L612,864 Z M144,216 C144,255.764502 176.235498,288 216,288 L252,288 C271.882251,288 288,304.117749 288,324 L288,396 C288,415.882251 304.117749,432 324,432 L396,432 C415.882251,432 432,448.117749 432,468 L432,504 C432,543.764502 464.235498,576 504,576 L324,576 C304.117749,576 288,592.117749 288,612 L288,684 C288,703.882251 304.117749,720 324,720 L504,720 L502.809348,720.009646 C463.594012,720.645463 432,752.633143 432,792 L432,828 C432,847.882251 415.882251,864 396,864 L324,864 C304.117749,864 288,847.882251 288,828 L288,756 C288,736.117749 271.882251,720 252,720 L180,720 C160.117749,720 144,736.117749 144,756 L144,828 C144,847.882251 127.882251,864 108,864 L36,864 C16.117749,864 2.4348735e-15,847.882251 0,828 L0,756 C-2.4348735e-15,736.117749 16.117749,720 36,720 L108,720 C127.882251,720 144,703.882251 144,684 L144,612 C144,592.117749 160.117749,576 180,576 L252,576 C271.882251,576 288,559.882251 288,540 L288,468 C288,448.117749 271.882251,432 252,432 L180,432 C160.117749,432 144,415.882251 144,396 L144,216 Z M252,0 C271.882251,-3.65231026e-15 288,16.117749 288,36 L288,108 C288,127.882251 271.882251,144 252,144 L216,144 C176.235498,144 144,176.235498 144,216 L144,36 C144,16.117749 160.117749,3.65231026e-15 180,0 L252,0 Z" id="Combined-Shape" fill="#E97E13"></path>
                    </g>
                    <text id="BALDOSA" style="mix-blend-mode: overlay;" font-family="Montserrat-Bold, Montserrat" font-size="128" font-weight="bold">
                        <tspan x="423" y="666" fill="#000000">BALDOSA</tspan>
                    </text>
                </g>
            </g>
        </g>
    </g>
</svg>