<?xml version="1.0" encoding="UTF-8"?>
<svg width="480px" height="320px" viewBox="0 0 480 320" version="1.1" xmlns="http://www.w3.org/2000/svg" xmlns:xlink="http://www.w3.org/1999/xlink">
    <title>bidding</title>
    <defs>
        <filter x="-1.5%" y="-2.7%" width="103.1%" height="105.4%" filterUnits="objectBoundingBox" id="filter-1">
            <feGaussianBlur stdDeviation="0" in="SourceGraphic"></feGaussianBlur>
        </filter>
        <filter x="-13.0%" y="-23.1%" width="125.9%" height="146.3%" filterUnits="objectBoundingBox" id="filter-2">
            <feGaussianBlur stdDeviation="10" in="SourceGraphic"></feGaussianBlur>
        </filter>
        <filter x="-6.1%" y="-6.9%" width="112.3%" height="113.8%" filterUnits="objectBoundingBox" id="filter-3">
            <feGaussianBlur stdDeviation="4" in="SourceGraphic"></feGaussianBlur>
        </filter>
        <filter x="-6.1%" y="-6.9%" width="112.3%" height="113.8%" filterUnits="objectBoundingBox" id="filter-4">
            <feGaussianBlur stdDeviation="4" in="SourceGraphic"></feGaussianBlur>
        </filter>
    </defs>
    <g id="bidding" stroke="none" stroke-width="1" fill="none" fill-rule="evenodd">
        <path d="M-219.25,395.75 L210.797372,131.110096 M356.485016,41.4577298 L1566.25,-703 M-51.25,520 C63.5319396,433.803426 199.620227,331.211582 357.014863,212.224467 M396,182.75 C656.140131,-13.9432795 1046.22346,-309.19328 1566.25,-703 L-247,243.75" id="Shape" stroke="#979797" opacity="0.35"></path>
        <path d="M-804,-210 L1147.25,720 L-804,-210 L71.4689067,80.049568 M175.298415,114.449081 L207.172186,125.009106 M398.705689,188.465626 L1417.5,526" id="Shape" stroke="#979797" opacity="0.35"></path>
        <path d="M195.698512,143.255592 C181.187225,152.181599 170.303759,158.876105 163.048116,163.339109 M125.867994,186.208896 C119.543793,190.098962 108.936006,196.623896 94.0446329,205.783697 C90.281305,208.09855 89.1070839,213.025889 91.4219366,216.789217 C92.2317234,218.105712 93.4055343,219.159442 94.8014543,219.82301 L236.500627,287.181458 C247.257747,292.294987 259.964768,291.010944 269.481428,283.848752 L352.5,218.25" id="Shape" stroke="#447ED3" stroke-width="8" stroke-linecap="round" filter="url(#filter-1)"></path>
        <path d="M195.698512,143.255592 C181.187225,152.181599 170.303759,158.876105 163.048116,163.339109 M125.867994,186.208896 C119.543793,190.098962 108.936006,196.623896 94.0446329,205.783697 C90.281305,208.09855 89.1070839,213.025889 91.4219366,216.789217 C92.2317234,218.105712 93.4055343,219.159442 94.8014543,219.82301 L236.500627,287.181458 C247.257747,292.294987 259.964768,291.010944 269.481428,283.848752 L352.5,218.25" id="Shape-Copy-3" stroke="#447ED3" stroke-width="8" stroke-linecap="round" filter="url(#filter-2)"></path>
        <path d="M390.34318,52.7348659 C403.527068,54.9679536 412.086255,66.0277487 409.460659,77.4376096 L384.10566,187.620973 C381.50632,198.916735 369.334098,206.243065 356.806346,204.126439 L356.426619,204.059403 L234.160067,181.547665 C221.498951,179.216498 212.939764,168.156703 215.042587,156.844921 L235.349251,47.6086925 C237.452074,36.2969106 249.844403,28.9371749 263.028291,31.1702626 L390.34318,52.7348659 Z M275.25157,105.999092 L225.660203,140.39232 L222.292157,158.332975 C222.080003,159.46306 222.027925,160.589243 222.121042,161.692602 L222.14042,161.901148 L222.163183,162.108947 C222.175671,162.214857 222.18954,162.32086 222.204739,162.426608 L222.261227,162.78352 L222.35156,163.253468 L222.409763,163.515 L222.523568,163.965767 L222.576658,164.155582 C222.616422,164.293758 222.658651,164.431864 222.703148,164.569288 C222.7436,164.694215 222.785767,164.818134 222.829772,164.941461 L222.947762,165.259381 C223.051159,165.527575 223.163286,165.792794 223.283882,166.054703 L223.440201,166.382782 L223.530082,166.561945 L223.678296,166.844178 C223.769312,167.012817 223.86392,167.179857 223.962044,167.345202 L224.118829,167.603169 L224.28151,167.858573 L224.517605,168.209536 L224.74819,168.532399 L224.829879,168.642508 L225.105601,168.999184 L225.275662,169.208548 L225.449818,169.415266 C225.628527,169.623596 225.813499,169.827754 226.004527,170.027472 L226.148709,170.17621 L226.467429,170.491376 L226.582274,170.600597 C226.714546,170.725126 226.849313,170.847652 226.986517,170.9681 L227.149396,171.109137 L227.519903,171.416001 L227.844199,171.669643 L228.071885,171.839903 L228.303186,172.006586 L228.534389,172.167133 L228.899585,172.408941 L229.00952,172.479014 C229.18001,172.586735 229.353029,172.691649 229.528506,172.79366 L229.820617,172.959535 L230.154004,173.139462 C230.316512,173.224794 230.480933,173.307702 230.647214,173.388118 C230.77404,173.449453 230.901762,173.509254 231.03054,173.56758 L231.418062,173.737278 L231.689109,173.849197 L232.053958,173.991315 L232.512493,174.156467 L232.977131,174.309038 L233.057117,174.333839 C233.348953,174.423554 233.644958,174.506088 233.944919,174.581164 C234.109519,174.622357 234.274908,174.661216 234.44145,174.697795 L234.739947,174.760658 L235.040848,174.818619 L357.564316,197.325156 C366.022796,198.878908 374.285813,193.968967 376.020281,186.358496 L378.510527,175.431836 L351.892439,139.906851 C349.496893,136.748659 344.729466,135.841819 341.135508,137.814787 L340.902961,137.947522 L319.748172,150.519463 L286.72126,107.677064 C286.620337,107.547888 286.514633,107.421611 286.404323,107.298441 C283.65676,104.233497 278.659987,103.652418 275.25157,105.999092 Z M388.522553,59.6419287 L261.541321,37.9700806 C252.775096,36.4739517 244.521263,41.3822911 243.105868,48.9331634 L227.912159,129.988849 L270.516543,100.437855 C277.327973,95.7453983 287.330791,96.9059262 292.827086,103.035853 C293.047571,103.282229 293.258821,103.534824 293.460484,103.79322 L322.011026,140.802787 L336.641683,132.107736 C343.87422,127.820186 353.731283,129.571617 358.626393,136.025605 L380.87542,165.697901 L401.259236,76.1305085 C402.991185,68.5202462 397.288778,61.1380576 388.522553,59.6419287 Z M361.590424,73.2941071 C372.428425,75.1449273 379.507686,84.2692876 377.402395,93.6739361 C375.297104,103.078585 364.884179,109.187222 354.144476,107.31796 C343.404772,105.448698 336.325512,96.3243373 338.332504,86.9381308 C340.339497,77.5519243 350.752422,71.4432868 361.590424,73.2941071 Z M359.623895,80.1884329 C353.077582,79.0861041 346.773233,82.7619042 345.542738,88.3985623 C344.312242,94.0352204 348.592625,99.503678 355.10324,100.612704 C361.613854,101.72173 367.918203,98.0459301 369.184396,92.4025747 C370.45059,86.7592192 366.170207,81.2907616 359.623895,80.1884329 Z" id="Shape" fill="#FFFFFF" fill-rule="nonzero" style="mix-blend-mode: screen;"></path>
        <path d="M393.34318,57.7348659 C406.527068,59.9679536 415.086255,71.0277487 412.460659,82.4376096 L387.10566,192.620973 C384.50632,203.916735 372.334098,211.243065 359.806346,209.126439 L359.426619,209.059403 L237.160067,186.547665 C224.498951,184.216498 215.939764,173.156703 218.042587,161.844921 L238.349251,52.6086925 C240.452074,41.2969106 252.844403,33.9371749 266.028291,36.1702626 L393.34318,57.7348659 Z M278.25157,110.999092 L228.660203,145.39232 L225.292157,163.332975 C225.080003,164.46306 225.027925,165.589243 225.121042,166.692602 L225.14042,166.901148 L225.163183,167.108947 C225.175671,167.214857 225.18954,167.32086 225.204739,167.426608 L225.261227,167.78352 L225.35156,168.253468 L225.409763,168.515 L225.523568,168.965767 L225.576658,169.155582 C225.616422,169.293758 225.658651,169.431864 225.703148,169.569288 C225.7436,169.694215 225.785767,169.818134 225.829772,169.941461 L225.947762,170.259381 C226.051159,170.527575 226.163286,170.792794 226.283882,171.054703 L226.440201,171.382782 L226.530082,171.561945 L226.678296,171.844178 C226.769312,172.012817 226.86392,172.179857 226.962044,172.345202 L227.118829,172.603169 L227.28151,172.858573 L227.517605,173.209536 L227.74819,173.532399 L227.829879,173.642508 L228.105601,173.999184 L228.275662,174.208548 L228.449818,174.415266 C228.628527,174.623596 228.813499,174.827754 229.004527,175.027472 L229.148709,175.17621 L229.467429,175.491376 L229.582274,175.600597 C229.714546,175.725126 229.849313,175.847652 229.986517,175.9681 L230.149396,176.109137 L230.519903,176.416001 L230.844199,176.669643 L231.071885,176.839903 L231.303186,177.006586 L231.534389,177.167133 L231.899585,177.408941 L232.00952,177.479014 C232.18001,177.586735 232.353029,177.691649 232.528506,177.79366 L232.820617,177.959535 L233.154004,178.139462 C233.316512,178.224794 233.480933,178.307702 233.647214,178.388118 C233.77404,178.449453 233.901762,178.509254 234.03054,178.56758 L234.418062,178.737278 L234.689109,178.849197 L235.053958,178.991315 L235.512493,179.156467 L235.977131,179.309038 L236.057117,179.333839 C236.348953,179.423554 236.644958,179.506088 236.944919,179.581164 C237.109519,179.622357 237.274908,179.661216 237.44145,179.697795 L237.739947,179.760658 L238.040848,179.818619 L360.564316,202.325156 C369.022796,203.878908 377.285813,198.968967 379.020281,191.358496 L381.510527,180.431836 L354.892439,144.906851 C352.496893,141.748659 347.729466,140.841819 344.135508,142.814787 L343.902961,142.947522 L322.748172,155.519463 L289.72126,112.677064 C289.620337,112.547888 289.514633,112.421611 289.404323,112.298441 C286.65676,109.233497 281.659987,108.652418 278.25157,110.999092 Z M391.522553,64.6419287 L264.541321,42.9700806 C255.775096,41.4739517 247.521263,46.3822911 246.105868,53.9331634 L230.912159,134.988849 L273.516543,105.437855 C280.327973,100.745398 290.330791,101.905926 295.827086,108.035853 C296.047571,108.282229 296.258821,108.534824 296.460484,108.79322 L325.011026,145.802787 L339.641683,137.107736 C346.87422,132.820186 356.731283,134.571617 361.626393,141.025605 L383.87542,170.697901 L404.259236,81.1305085 C405.991185,73.5202462 400.288778,66.1380576 391.522553,64.6419287 Z M364.590424,78.2941071 C375.428425,80.1449273 382.507686,89.2692876 380.402395,98.6739361 C378.297104,108.078585 367.884179,114.187222 357.144476,112.31796 C346.404772,110.448698 339.325512,101.324337 341.332504,91.9381308 C343.339497,82.5519243 353.752422,76.4432868 364.590424,78.2941071 Z M362.623895,85.1884329 C356.077582,84.0861041 349.773233,87.7619042 348.542738,93.3985623 C347.312242,99.0352204 351.592625,104.503678 358.10324,105.612704 C364.613854,106.72173 370.918203,103.04593 372.184396,97.4025747 C373.45059,91.7592192 369.170207,86.2907616 362.623895,85.1884329 Z" id="Shape-Copy" fill="#C12A4A" fill-rule="nonzero" opacity="0.5" style="mix-blend-mode: screen;" filter="url(#filter-3)"></path>
        <path d="M387.34318,48.7348659 C400.527068,50.9679536 409.086255,62.0277487 406.460659,73.4376096 L381.10566,183.620973 C378.50632,194.916735 366.334098,202.243065 353.806346,200.126439 L353.426619,200.059403 L231.160067,177.547665 C218.498951,175.216498 209.939764,164.156703 212.042587,152.844921 L232.349251,43.6086925 C234.452074,32.2969106 246.844403,24.9371749 260.028291,27.1702626 L387.34318,48.7348659 Z M272.25157,101.999092 L222.660203,136.39232 L219.292157,154.332975 C219.080003,155.46306 219.027925,156.589243 219.121042,157.692602 L219.14042,157.901148 L219.163183,158.108947 C219.175671,158.214857 219.18954,158.32086 219.204739,158.426608 L219.261227,158.78352 L219.35156,159.253468 L219.409763,159.515 L219.523568,159.965767 L219.576658,160.155582 C219.616422,160.293758 219.658651,160.431864 219.703148,160.569288 C219.7436,160.694215 219.785767,160.818134 219.829772,160.941461 L219.947762,161.259381 C220.051159,161.527575 220.163286,161.792794 220.283882,162.054703 L220.440201,162.382782 L220.530082,162.561945 L220.678296,162.844178 C220.769312,163.012817 220.86392,163.179857 220.962044,163.345202 L221.118829,163.603169 L221.28151,163.858573 L221.517605,164.209536 L221.74819,164.532399 L221.829879,164.642508 L222.105601,164.999184 L222.275662,165.208548 L222.449818,165.415266 C222.628527,165.623596 222.813499,165.827754 223.004527,166.027472 L223.148709,166.17621 L223.467429,166.491376 L223.582274,166.600597 C223.714546,166.725126 223.849313,166.847652 223.986517,166.9681 L224.149396,167.109137 L224.519903,167.416001 L224.844199,167.669643 L225.071885,167.839903 L225.303186,168.006586 L225.534389,168.167133 L225.899585,168.408941 L226.00952,168.479014 C226.18001,168.586735 226.353029,168.691649 226.528506,168.79366 L226.820617,168.959535 L227.154004,169.139462 C227.316512,169.224794 227.480933,169.307702 227.647214,169.388118 C227.77404,169.449453 227.901762,169.509254 228.03054,169.56758 L228.418062,169.737278 L228.689109,169.849197 L229.053958,169.991315 L229.512493,170.156467 L229.977131,170.309038 L230.057117,170.333839 C230.348953,170.423554 230.644958,170.506088 230.944919,170.581164 C231.109519,170.622357 231.274908,170.661216 231.44145,170.697795 L231.739947,170.760658 L232.040848,170.818619 L354.564316,193.325156 C363.022796,194.878908 371.285813,189.968967 373.020281,182.358496 L375.510527,171.431836 L348.892439,135.906851 C346.496893,132.748659 341.729466,131.841819 338.135508,133.814787 L337.902961,133.947522 L316.748172,146.519463 L283.72126,103.677064 C283.620337,103.547888 283.514633,103.421611 283.404323,103.298441 C280.65676,100.233497 275.659987,99.6524183 272.25157,101.999092 Z M385.522553,55.6419287 L258.541321,33.9700806 C249.775096,32.4739517 241.521263,37.3822911 240.105868,44.9331634 L224.912159,125.988849 L267.516543,96.4378553 C274.327973,91.7453983 284.330791,92.9059262 289.827086,99.0358534 C290.047571,99.2822289 290.258821,99.5348244 290.460484,99.7932203 L319.011026,136.802787 L333.641683,128.107736 C340.87422,123.820186 350.731283,125.571617 355.626393,132.025605 L377.87542,161.697901 L398.259236,72.1305085 C399.991185,64.5202462 394.288778,57.1380576 385.522553,55.6419287 Z M358.590424,69.2941071 C369.428425,71.1449273 376.507686,80.2692876 374.402395,89.6739361 C372.297104,99.0785846 361.884179,105.187222 351.144476,103.31796 C340.404772,101.448698 333.325512,92.3243373 335.332504,82.9381308 C337.339497,73.5519243 347.752422,67.4432868 358.590424,69.2941071 Z M356.623895,76.1884329 C350.077582,75.0861041 343.773233,78.7619042 342.542738,84.3985623 C341.312242,90.0352204 345.592625,95.503678 352.10324,96.6127041 C358.613854,97.7217303 364.918203,94.0459301 366.184396,88.4025747 C367.45059,82.7592192 363.170207,77.2907616 356.623895,76.1884329 Z" id="Shape-Copy-2" fill="#48A1D8" fill-rule="nonzero" opacity="0.5" style="mix-blend-mode: screen;" filter="url(#filter-4)"></path>
        <path d="M171,127.333333 L170.975533,127.423121 C170.861884,128.567737 170.356006,129.643994 169.535534,130.464466 L147.464466,152.535534 C146.526784,153.473216 145.255015,154 143.928932,154 L133.5,154 L133.446667,197.333333 L133.431534,197.517706 C132.93491,201.178461 129.796958,204 126,204 C121.857864,204 118.5,200.642136 118.5,196.5 L118.5,154 L108.071068,154 C106.744985,154 105.473216,153.473216 104.535534,152.535534 L82.4644661,130.464466 C81.5267842,129.526784 81,128.255015 81,126.928932 L81,91.0710678 C81,89.7449854 81.5267842,88.4732158 82.4644661,87.5355339 L104.535534,65.4644661 C105.473216,64.5267842 106.744985,64 108.071068,64 L143.928932,64 C145.255015,64 146.526784,64.5267842 147.464466,65.4644661 L169.535534,87.5355339 C170.473216,88.4732158 171,89.7449854 171,91.0710678 L171,127.333333 Z M129,154 L124,154 L124,196.5 C124,197.838872 125.05248,198.931924 126.375225,198.99694 L126.5,199 C127.765653,199 128.811637,198.059487 128.977178,196.839235 L129,196.5 L129,154 Z M166,91.0710678 L143.928932,69 L108.071068,69 L86,91.0710678 L86,126.928932 L108.071068,149 L143.928932,149 L166,126.928932 L166,91.0710678 Z M152.763772,93.2188554 C154.412076,94.8439959 154.412076,97.4788693 152.763772,99.1040098 L125.903096,125.587205 C121.287843,130.137598 113.80504,130.137598 109.189787,125.587205 L100.236228,116.759473 C98.5879238,115.134333 98.5879238,112.499459 100.236228,110.874319 C101.884533,109.249178 104.556963,109.249178 106.205267,110.874319 L114.26347,118.819277 C116.076605,120.606932 119.016278,120.606932 120.829413,118.819277 L146.794733,93.2188554 C148.443037,91.5937149 151.115467,91.5937149 152.763772,93.2188554 Z" id="Shape" fill="#FFFFFF" fill-rule="nonzero" transform="translate(126, 134) rotate(-26) translate(-126, -134)"></path>
    </g>
</svg>